{"glyphs":{"0":{"ha":614,"x_min":0,"x_max":581,"o":"m 300 1074 l 300 1074 q 307 1073 303 1074 q 466 998 400 1065 q 553 806 537 916 q 556 461 581 635 q 514 230 547 350 q 391 36 481 109 q 185 16 293 -31 q 108 87 138 41 q 60 183 78 134 q 19 564 0 368 q 50 819 26 692 q 142 1015 65 932 q 300 1074 210 1074 m 283 233 l 283 233 q 324 255 307 233 q 347 300 341 277 q 356 393 357 346 q 357 422 357 408 q 334 699 366 562 q 326 723 332 707 q 310 753 319 739 q 291 767 301 766 q 270 748 280 768 q 231 556 234 656 q 230 538 231 547 q 233 309 218 423 q 256 247 235 273 q 283 233 270 233 z "},"1":{"ha":574,"x_min":0,"x_max":540,"o":"m 29 755 l 29 755 q 2 839 0 785 q 13 907 2 871 q 52 960 23 943 q 104 974 77 971 q 152 986 129 977 q 209 1032 189 1006 q 239 1062 222 1049 q 283 1079 256 1075 q 400 1071 335 1085 q 488 1004 466 1057 q 492 948 496 977 q 483 794 487 871 q 452 387 473 590 q 448 355 450 372 q 444 267 437 310 q 460 239 450 245 q 485 233 471 233 q 505 229 494 231 q 538 177 536 218 q 525 92 540 136 q 495 31 511 49 q 374 -10 444 -14 q 172 -16 273 -12 q 103 -11 138 -18 q 45 22 69 -4 q 21 80 26 47 q 88 214 0 174 q 113 223 100 219 q 156 242 135 231 q 201 303 197 267 q 197 379 205 339 q 192 411 194 395 q 175 613 181 512 q 174 617 175 615 q 159 703 174 672 q 83 736 144 734 q 29 755 47 736 z "},"2":{"ha":664,"x_min":0,"x_max":630,"o":"m 360 282 q 469 277 410 263 q 528 282 499 281 q 579 269 556 282 q 592 255 589 262 q 593 239 594 248 q 595 226 593 233 q 603 171 602 198 q 606 137 604 154 q 618 30 615 84 q 618 24 618 27 q 617 8 618 16 q 609 -5 616 0 q 581 -11 597 -12 q 549 -9 565 -11 q 528 -7 538 -7 q 474 -6 500 -6 q 406 -5 440 -5 q 327 -1 366 -3 q 133 5 230 2 q 64 66 73 7 q 73 290 57 178 q 77 331 75 311 q 79 342 78 336 q 100 437 81 392 q 131 474 112 460 q 174 497 151 487 q 238 523 206 511 q 295 547 266 534 q 329 564 312 553 q 355 592 345 574 q 362 640 365 615 q 339 779 359 711 q 332 796 336 788 q 318 806 328 804 q 300 803 309 808 q 286 791 291 798 q 272 758 275 776 q 272 756 272 757 q 255 678 262 716 q 254 671 254 675 q 234 615 251 640 q 182 587 213 591 q 123 588 153 582 q 123 588 123 588 q 88 595 106 590 q 57 610 70 600 q 24 661 32 631 q 24 861 0 760 q 128 1031 43 967 q 262 1072 186 1069 q 461 1053 372 1081 q 609 921 551 1024 q 630 824 630 878 q 619 722 629 770 q 530 488 593 594 q 407 353 477 406 q 374 324 391 339 q 374 323 374 323 q 361 310 366 317 q 355 293 355 303 q 355 291 355 292 q 356 286 355 288 q 360 282 357 284 l 360 282 z "},"3":{"ha":726,"x_min":0,"x_max":692,"o":"m 92 793 l 92 793 q 67 875 72 833 q 75 971 60 924 q 200 1075 111 1059 q 388 1062 290 1090 q 545 988 486 1034 q 617 854 609 934 q 575 707 625 774 q 541 600 530 647 q 586 507 553 553 q 635 412 616 465 q 507 79 692 202 q 283 2 404 17 q 133 7 207 -11 q 22 102 54 31 q 36 210 0 165 q 136 261 73 254 q 220 257 178 263 q 296 253 258 252 q 385 284 346 254 q 415 338 410 307 q 396 395 420 370 q 333 422 369 417 q 295 433 313 426 q 262 455 277 439 q 244 555 229 500 q 294 648 260 605 q 296 650 294 648 q 316 679 302 658 q 345 725 331 700 q 361 768 358 749 q 349 789 365 787 q 336 787 342 791 q 323 779 329 784 q 212 724 273 738 q 92 793 125 717 z "},"4":{"ha":747,"x_min":0,"x_max":713,"o":"m 600 345 q 579 324 583 340 q 577 292 576 308 q 586 233 580 263 q 595 159 593 196 q 581 86 597 121 q 523 21 560 46 q 441 -3 486 -4 q 400 8 419 -3 q 372 39 381 20 q 368 97 363 67 q 368 99 368 98 q 370 233 374 165 q 370 244 370 238 q 366 288 370 266 q 343 322 361 311 q 302 332 324 331 q 124 331 213 339 q 121 331 123 331 q 58 334 88 326 q 17 367 32 344 q 1 418 3 391 q 24 523 0 473 q 204 811 98 677 q 317 972 263 890 q 369 1040 338 1010 q 448 1069 404 1071 q 507 1023 495 1061 q 509 938 518 984 q 485 861 500 892 q 393 723 447 787 q 361 681 376 702 q 359 679 360 680 q 340 652 354 671 q 311 610 326 633 q 288 571 296 587 q 287 552 280 554 q 371 542 329 545 q 383 541 377 541 q 412 540 398 538 q 425 557 423 542 q 425 594 427 573 q 419 633 422 615 q 415 663 415 654 q 440 697 416 688 q 487 720 464 707 q 507 730 497 725 q 570 749 536 746 q 611 741 593 751 q 636 707 630 730 q 630 659 641 682 q 629 656 630 658 q 613 603 618 633 q 628 553 607 572 q 656 541 641 545 q 684 530 671 538 q 712 475 710 509 q 701 396 713 435 q 648 346 692 353 q 625 345 637 345 q 600 345 612 347 l 600 345 z "},"5":{"ha":611,"x_min":0,"x_max":577,"o":"m 159 1049 q 169 1055 163 1053 q 222 1070 194 1067 q 467 1074 345 1082 q 530 1057 503 1076 q 557 1000 553 1033 q 562 979 559 989 q 569 912 572 947 q 568 898 568 905 q 561 864 566 880 q 534 831 555 848 q 484 807 520 821 q 409 786 448 793 q 351 790 371 779 q 352 749 352 769 q 368 635 348 689 q 388 616 375 622 q 416 607 401 610 q 441 599 430 604 q 452 594 446 597 q 519 547 491 578 q 567 430 561 498 q 525 181 577 294 q 342 14 473 68 q 203 7 271 -11 q 70 57 134 25 q 62 60 66 59 q 36 75 48 66 q 17 96 24 83 q 16 176 0 137 q 58 250 33 214 q 83 290 73 271 q 91 305 87 298 q 100 322 95 315 q 113 336 104 330 q 173 341 143 353 q 229 311 202 330 q 271 287 251 296 q 361 295 323 264 q 377 389 404 345 q 295 451 349 433 q 224 457 258 461 q 199 456 212 456 q 187 456 193 456 q 169 455 178 455 q 153 461 161 456 q 118 521 120 484 q 124 594 117 557 q 128 624 127 610 q 127 855 138 743 q 123 926 125 890 q 127 992 120 960 q 159 1049 134 1024 l 159 1049 z "},"6":{"ha":693,"x_min":0,"x_max":659,"o":"m 241 587 q 245 586 242 586 q 255 587 248 587 q 262 589 258 588 q 310 596 286 592 q 404 608 355 606 q 560 554 492 608 q 625 309 659 453 q 493 81 591 165 q 211 2 368 -16 q 52 90 111 14 q 14 216 18 148 q 16 495 0 355 q 123 870 26 697 q 299 1031 189 975 q 415 1068 347 1056 q 533 1053 484 1081 q 580 994 566 1031 q 597 912 591 966 q 589 815 604 858 q 524 781 574 773 q 491 796 506 785 q 479 804 486 800 q 369 811 426 831 q 275 746 311 790 q 240 648 243 702 q 239 638 239 643 q 237 606 235 621 q 237 599 237 602 q 241 587 238 590 l 241 587 m 273 220 q 296 204 281 207 q 346 229 321 203 q 376 278 370 256 q 366 369 385 324 q 348 395 360 382 q 322 414 336 409 q 292 406 307 418 q 282 390 286 399 q 278 372 279 381 q 277 365 277 369 q 265 293 270 337 q 273 220 260 249 l 273 220 z "},"7":{"ha":564,"x_min":0,"x_max":530,"o":"m 268 775 q 253 779 261 779 q 238 778 245 779 q 233 777 235 777 q 208 776 220 776 q 192 774 200 775 q 178 774 184 774 q 98 772 138 770 q 58 784 75 772 q 32 822 39 798 q 22 867 25 846 q 14 932 17 900 q 9 978 12 955 q 6 998 8 987 q 1 1041 0 1020 q 22 1075 1 1063 q 54 1079 37 1081 q 56 1078 56 1079 q 184 1075 120 1076 q 443 1058 316 1076 q 516 1001 503 1045 q 526 904 529 958 q 526 888 526 896 q 502 706 530 794 q 435 581 475 640 q 420 555 427 568 q 295 296 340 433 q 278 144 277 220 q 273 58 277 100 q 235 4 266 12 q 165 -1 204 -5 q 153 -1 159 -1 q 84 24 114 -2 q 58 100 58 56 q 71 365 44 234 q 239 687 127 540 q 252 706 245 696 q 262 719 257 713 q 279 746 275 730 q 279 763 281 754 q 268 775 276 771 l 268 775 z "},"8":{"ha":713,"x_min":0,"x_max":680,"o":"m 463 614 l 463 614 q 481 600 470 606 q 505 587 493 593 q 522 578 515 583 q 587 524 557 555 q 667 374 650 461 q 642 201 680 285 q 526 53 605 110 q 345 -1 444 2 q 197 18 269 -5 q 75 102 123 43 q 13 316 12 197 q 77 524 0 436 q 127 557 98 543 q 174 586 153 570 q 203 627 195 602 q 196 668 208 647 q 168 711 184 690 q 143 750 152 732 q 121 877 117 811 q 226 1042 136 986 q 418 1050 316 1099 q 528 916 498 1004 q 503 699 567 800 q 496 690 500 695 q 468 651 481 673 q 463 614 454 629 m 295 836 l 295 836 q 282 803 282 821 q 302 766 282 785 q 343 753 322 748 q 378 776 365 759 q 389 810 392 793 q 384 819 388 812 q 377 831 380 825 q 371 839 373 837 q 330 853 353 857 q 295 836 307 849 m 351 269 l 351 269 q 398 320 379 282 q 412 395 417 357 q 361 445 406 432 q 267 434 292 460 q 246 370 241 409 q 269 303 250 331 q 308 274 283 286 q 351 269 333 263 z "},"9":{"ha":606,"x_min":0,"x_max":572,"o":"m 569 655 l 569 655 q 570 629 570 642 q 570 623 570 626 q 555 363 572 492 q 554 351 555 357 q 475 92 551 206 q 339 8 420 28 q 179 10 259 -12 q 98 49 134 21 q 45 159 54 90 q 81 275 37 229 q 116 286 98 288 q 149 271 134 283 q 172 249 161 261 q 223 212 193 222 q 269 215 246 206 q 307 241 292 223 q 327 279 319 258 q 336 321 334 301 q 293 372 336 363 q 198 380 249 381 q 131 385 154 378 q 46 478 65 411 q 24 610 27 545 q 23 629 24 620 q 80 953 0 801 q 231 1067 134 1036 q 410 1030 328 1097 q 569 655 564 874 m 323 603 l 323 603 q 368 655 355 621 q 372 724 380 688 q 305 836 354 788 q 244 828 271 869 q 198 723 209 781 q 228 618 189 664 q 323 603 273 576 z "},"\u0000":{"ha":0,"x_min":0,"x_max":0,"o":""},"\u001d":{"ha":0,"x_min":0,"x_max":0,"o":""}," ":{"ha":345,"x_min":0,"x_max":0,"o":""}," ":{"ha":345,"x_min":0,"x_max":0,"o":""},"!":{"ha":271,"x_min":0,"x_max":237,"o":"m 234 812 q 214 613 230 712 q 183 446 198 515 q 172 388 176 409 q 168 343 170 370 q 156 254 165 299 q 119 189 146 210 q 107 184 114 184 q 97 188 102 184 q 33 290 47 224 q 19 418 20 355 q 17 453 18 437 q 5 943 0 697 q 26 1027 5 988 q 107 1070 56 1072 q 191 1030 157 1069 q 230 925 224 985 q 234 812 237 865 l 234 812 m 98 -5 q 71 -4 85 -7 q 26 45 34 7 q 36 112 20 79 q 92 136 52 144 q 157 92 131 124 q 173 62 168 79 q 171 27 178 44 q 146 4 163 11 q 113 -4 130 -3 q 98 -5 106 -5 l 98 -5 z "},"\"":{"ha":372,"x_min":0,"x_max":338,"o":"m 70 962 q 50 962 62 964 q 38 961 44 961 q 29 963 33 961 q 11 986 16 972 q 5 1013 6 1000 q 3 1019 4 1016 q 0 1045 0 1032 q 12 1065 1 1058 q 39 1070 24 1071 q 115 1061 77 1071 q 161 1017 154 1052 q 155 930 164 973 q 118 867 149 893 q 50 836 89 844 q 37 835 43 833 q 26 849 28 838 q 23 874 23 861 q 24 892 23 886 q 45 932 27 916 q 53 937 47 934 q 66 945 60 941 q 75 955 73 950 q 70 962 77 959 l 70 962 m 244 962 q 224 962 235 964 q 212 961 218 961 q 203 963 207 961 q 185 986 191 972 q 178 1013 180 1000 q 177 1019 178 1016 q 175 1045 174 1032 q 186 1065 175 1058 q 213 1070 198 1071 q 289 1061 250 1071 q 334 1017 328 1052 q 328 930 338 973 q 292 867 323 893 q 224 836 263 844 q 211 835 218 833 q 199 849 202 838 q 197 874 197 861 q 198 892 197 886 q 219 932 201 916 q 227 937 222 934 q 240 945 233 941 q 248 955 246 950 q 244 962 250 959 l 244 962 z "},"#":{"ha":578,"x_min":0,"x_max":544,"o":"m 427 448 l 427 448 q 431 446 429 446 q 459 452 446 445 q 484 458 471 458 q 528 418 515 453 q 540 355 541 384 q 519 313 538 321 q 475 303 500 304 q 435 297 454 302 q 408 269 417 291 q 404 233 403 252 q 406 173 404 203 q 408 98 408 136 q 400 48 407 80 q 378 -1 393 16 q 336 14 363 -17 q 321 62 322 35 q 323 172 318 117 q 326 222 325 197 q 326 227 326 224 q 326 260 327 242 q 319 294 326 279 q 296 312 313 309 q 270 268 277 312 q 260 171 263 224 q 256 117 258 140 q 254 81 254 99 q 252 48 254 64 q 243 20 252 32 q 222 11 231 6 q 208 30 213 16 q 199 59 202 43 q 195 81 195 74 q 184 222 184 151 q 181 266 184 244 q 161 302 177 288 q 136 315 150 311 q 107 326 122 321 q 40 357 69 335 q 26 388 22 372 q 45 415 30 404 q 79 433 61 427 q 108 438 93 436 q 149 448 130 441 q 182 473 169 455 q 194 516 197 493 q 180 560 192 540 q 137 588 164 584 q 81 591 109 593 q 64 590 73 591 q 63 590 64 590 q 30 593 48 589 q 7 613 12 596 q 42 692 0 669 q 134 715 85 715 q 137 716 136 716 q 161 720 149 715 q 174 746 174 728 q 171 783 174 764 q 169 809 169 799 q 180 1002 175 905 q 180 1004 180 1003 q 184 1034 181 1018 q 197 1060 187 1050 q 222 1057 214 1074 q 234 1012 231 1040 q 238 968 237 985 q 239 960 238 963 q 248 862 243 911 q 254 793 251 827 q 255 789 254 791 q 259 757 256 777 q 269 727 262 738 q 288 732 275 717 q 299 758 296 743 q 302 789 301 774 q 302 796 302 793 q 302 865 304 830 q 304 949 300 907 q 315 991 305 971 q 329 1007 320 1001 q 349 1013 338 1014 q 380 985 370 1011 q 391 923 389 959 q 393 856 393 887 q 395 816 393 829 q 393 773 396 799 q 391 726 390 747 q 408 705 393 706 q 522 673 471 708 q 538 656 532 667 q 537 635 544 644 q 519 622 531 627 q 497 616 507 618 q 422 573 453 606 q 393 514 397 549 q 415 454 389 478 q 427 448 420 450 m 334 511 l 334 511 q 331 562 342 536 q 299 598 320 587 q 254 588 278 610 q 240 541 236 569 q 257 492 243 512 q 302 472 281 462 q 334 511 324 482 z "},"$":{"ha":696,"x_min":0,"x_max":663,"o":"m 247 951 q 246 958 247 954 q 246 1005 243 981 q 268 1044 249 1028 q 320 1067 288 1061 q 378 1057 353 1073 q 393 1038 389 1049 q 405 980 406 1010 l 405 956 q 538 910 473 944 q 606 862 576 892 q 629 832 619 848 q 643 717 663 774 q 574 620 623 660 q 549 608 563 610 q 528 614 538 608 q 509 627 518 620 q 489 646 499 636 q 451 679 470 662 q 376 721 418 712 q 335 709 353 723 q 317 673 316 696 q 328 650 319 661 q 348 632 337 640 q 410 593 378 611 q 523 501 478 559 q 555 341 566 429 q 515 179 544 254 q 495 140 509 159 q 461 114 481 122 q 416 108 439 108 q 403 107 410 108 q 398 52 406 79 q 291 -1 373 -9 q 254 16 268 1 q 245 45 243 30 q 247 102 246 74 q 230 101 239 102 q 109 113 168 95 q 0 275 3 159 q 17 340 0 311 q 71 381 35 370 q 130 382 101 389 q 188 364 159 376 q 221 353 204 358 q 288 342 248 343 q 347 366 328 340 q 341 405 359 388 q 298 433 324 422 q 254 450 271 444 q 252 450 253 450 l 243 453 q 162 486 199 467 q 96 544 124 505 q 56 694 52 612 q 243 950 65 886 q 247 951 245 951 z "},"%":{"ha":607,"x_min":0,"x_max":573,"o":"m 156 1072 l 156 1072 q 202 1053 181 1067 q 287 931 264 1009 q 264 788 310 853 q 181 737 232 748 q 86 756 130 726 q 33 863 39 798 q 44 986 24 926 q 111 1067 60 1043 q 156 1072 132 1076 m 170 851 l 170 851 q 207 871 195 852 q 216 911 218 889 q 193 946 213 933 q 142 942 166 960 q 114 897 117 924 q 131 862 113 873 q 170 851 148 851 m 522 1057 l 522 1057 q 551 1000 555 1038 q 530 922 547 962 q 245 217 387 570 q 218 136 231 177 q 204 94 212 115 q 60 15 157 -45 q 58 188 0 58 q 200 525 130 356 q 245 633 223 579 q 272 696 258 665 q 296 752 283 724 q 344 869 322 810 q 349 882 346 876 q 418 1044 376 966 q 466 1073 437 1074 q 522 1057 495 1072 m 443 319 l 443 319 q 498 285 476 311 q 537 85 573 195 q 477 12 520 37 q 416 -1 449 -4 q 359 26 382 3 q 332 93 335 55 q 357 261 324 180 q 389 306 368 288 q 440 319 410 323 q 443 319 441 319 m 437 103 l 437 103 q 469 116 457 103 q 475 150 481 130 q 460 174 470 163 q 435 186 450 185 q 414 176 422 185 q 401 155 405 166 q 404 119 395 136 q 435 103 416 104 q 437 103 436 103 z "},"&":{"ha":1001,"x_min":0,"x_max":967,"o":"m 833 172 l 833 172 q 878 108 856 140 q 894 85 884 98 q 923 42 909 64 q 940 3 937 20 q 925 -24 940 -16 q 895 -37 911 -33 q 646 45 734 -92 q 595 129 621 87 q 520 48 566 82 q 253 -2 396 -24 q 10 252 45 41 q 11 395 0 321 q 72 520 22 469 q 122 553 93 538 q 168 582 147 566 q 197 623 189 597 q 191 664 202 642 q 163 706 179 685 q 138 745 146 727 q 116 873 111 806 q 220 1038 130 982 q 413 1046 311 1095 q 522 911 493 1000 q 488 682 563 787 q 481 674 485 678 q 460 642 468 660 q 462 606 450 618 q 492 587 473 594 q 512 576 503 582 q 557 541 536 560 q 568 557 562 549 q 628 639 597 598 q 647 667 638 653 q 718 741 672 712 q 722 743 720 741 q 886 786 800 780 q 931 784 909 789 q 966 749 965 774 q 951 696 967 725 q 920 645 936 668 q 907 625 911 633 q 794 450 851 536 q 761 399 777 425 q 721 336 741 368 q 753 289 737 313 q 833 172 793 231 m 290 831 l 290 831 q 276 799 276 817 q 296 762 276 781 q 338 749 317 743 q 373 771 359 754 q 383 805 387 788 q 378 814 382 808 q 371 826 375 821 q 366 835 368 832 q 324 848 347 852 q 290 831 300 844 m 320 264 l 320 264 q 378 291 354 264 q 421 348 403 317 q 434 368 428 358 q 372 429 407 405 q 292 444 336 453 q 250 414 265 437 q 250 322 227 372 q 320 264 272 271 z "},"'":{"ha":198,"x_min":0,"x_max":164,"o":"m 70 962 q 50 962 62 964 q 39 961 44 961 q 29 963 33 961 q 12 986 16 972 q 5 1013 7 1000 q 3 1019 4 1016 q 0 1045 0 1032 q 13 1065 1 1058 q 39 1070 24 1071 q 115 1061 77 1071 q 161 1017 154 1052 q 155 930 164 973 q 118 867 149 893 q 50 836 89 844 q 37 835 43 833 q 26 849 28 838 q 23 874 23 861 q 24 892 24 886 q 45 932 27 916 q 54 937 48 934 q 66 945 60 941 q 75 955 73 950 q 70 962 77 959 l 70 962 z "},"(":{"ha":359,"x_min":0,"x_max":325,"o":"m 1 506 q 7 625 0 566 q 82 881 26 758 q 83 884 83 882 q 151 1007 111 948 q 202 1063 170 1035 q 270 1090 234 1091 q 309 1068 294 1088 q 324 1025 323 1048 q 292 938 322 977 q 147 634 193 801 q 178 307 101 468 q 253 203 210 251 q 286 162 270 183 q 319 98 311 134 q 296 28 325 56 q 226 -1 267 -1 q 146 27 183 1 q 88 89 110 53 q 47 198 60 140 q 1 506 5 348 l 1 506 z "},")":{"ha":359,"x_min":0,"x_max":325,"o":"m 323 506 l 323 506 q 278 198 319 348 q 236 89 264 140 q 178 27 214 53 q 98 -1 141 1 q 29 28 58 -1 q 5 98 0 56 q 38 162 14 134 q 72 203 54 183 q 146 307 115 251 q 177 634 223 468 q 32 938 132 801 q 0 1025 2 977 q 16 1068 1 1048 q 54 1090 31 1088 q 122 1063 90 1091 q 174 1007 155 1035 q 241 884 214 948 q 242 881 241 882 q 317 625 298 758 q 323 506 325 566 z "},"*":{"ha":319,"x_min":0,"x_max":286,"o":"m 165 904 l 165 904 q 166 902 165 903 q 175 892 170 896 q 184 883 180 888 q 188 858 192 869 q 176 842 183 847 q 159 844 167 838 q 144 860 152 850 q 132 874 138 868 q 117 881 125 881 q 107 876 111 880 q 93 865 100 871 q 75 852 85 858 q 61 846 71 849 q 43 847 52 843 q 35 866 35 850 q 42 880 36 876 q 69 899 54 891 q 82 906 75 902 q 83 907 82 907 q 91 912 87 909 q 97 921 95 916 q 94 934 98 926 q 76 937 89 941 q 50 924 64 932 q 37 916 43 919 q 27 911 32 913 q 19 906 23 908 q 9 905 15 903 q 0 915 0 908 q 4 927 1 921 q 10 935 7 932 q 41 964 24 951 q 50 972 46 967 q 54 986 54 977 q 49 999 52 992 q 43 1013 46 1005 q 31 1044 35 1029 q 35 1056 30 1055 q 47 1053 39 1057 q 60 1042 54 1048 q 71 1031 65 1037 q 85 1016 77 1023 q 100 1007 92 1009 q 114 1010 109 1005 q 120 1023 119 1015 q 115 1045 121 1034 q 99 1068 108 1057 q 94 1075 96 1072 q 94 1076 94 1075 q 84 1089 89 1082 q 83 1102 80 1097 q 101 1107 90 1111 q 123 1092 112 1103 q 144 1068 135 1081 q 145 1067 144 1068 q 153 1059 149 1062 q 163 1058 159 1055 q 171 1065 168 1061 q 177 1070 174 1069 q 227 1099 201 1084 q 227 1099 227 1099 q 235 1103 230 1101 q 245 1102 239 1105 q 251 1092 253 1098 q 244 1079 250 1085 q 235 1070 239 1073 q 233 1068 233 1069 q 221 1057 227 1063 q 197 1033 210 1045 q 197 1032 197 1033 q 190 1025 194 1030 q 186 1016 186 1021 q 193 1009 186 1012 q 202 1009 197 1008 q 210 1013 207 1011 q 212 1015 212 1014 q 229 1026 221 1019 q 250 1040 238 1034 q 262 1043 255 1043 q 278 1033 271 1042 q 275 1007 286 1019 q 253 988 265 996 q 243 981 246 983 q 233 974 240 977 q 221 966 226 970 q 221 956 217 962 q 247 905 240 931 q 248 895 248 899 q 242 892 246 890 q 233 897 238 893 q 226 905 229 901 q 194 928 211 921 q 171 930 180 933 q 163 910 161 924 q 165 904 163 907 m 153 952 l 153 952 q 164 962 161 954 q 164 982 168 971 q 149 998 161 992 q 133 996 138 1002 q 127 980 127 989 q 135 959 126 966 q 153 952 144 951 z "},"+":{"ha":698,"x_min":0,"x_max":664,"o":"m 440 329 q 437 296 435 313 q 438 287 437 292 q 435 243 438 265 q 432 208 433 226 q 439 117 431 163 q 442 102 441 110 q 445 28 453 65 q 377 -19 429 -12 q 289 -13 326 -26 q 248 45 252 3 q 248 121 243 86 q 260 226 254 174 q 260 237 260 231 q 264 255 262 244 q 270 297 269 275 q 260 331 271 319 q 205 351 241 347 q 130 355 170 355 q 72 359 98 356 q 36 372 52 360 q 19 406 22 386 q 18 408 18 406 q 3 492 7 444 q 36 563 0 539 q 78 572 53 572 q 131 570 103 573 q 206 570 172 566 q 252 603 240 574 q 256 651 259 626 q 254 699 256 674 q 253 827 246 764 q 284 858 258 852 q 337 857 309 863 q 378 838 366 850 q 416 768 407 810 q 426 688 425 726 q 425 665 426 678 q 429 603 423 634 q 465 564 435 571 q 497 564 480 562 q 504 565 500 565 q 581 561 543 569 q 630 536 610 556 q 637 424 664 488 q 560 340 611 360 q 507 340 535 334 q 475 343 491 343 q 475 343 475 343 q 459 342 468 343 q 446 336 451 341 q 440 329 441 333 l 440 329 z "},",":{"ha":264,"x_min":0,"x_max":230,"o":"m 50 -105 q 50 -84 46 -95 q 58 -63 54 -73 q 62 -56 60 -60 q 69 -45 66 -50 q 70 -36 71 -39 q 60 -32 68 -33 q 16 -9 32 -30 q 0 39 0 12 q 83 113 6 114 q 203 44 161 109 q 201 -56 230 -9 q 116 -114 172 -102 q 77 -117 97 -118 q 50 -105 56 -115 l 50 -105 z "},"-":{"ha":904,"x_min":0,"x_max":870,"o":"m 800 524 q 867 402 870 488 q 832 356 864 368 q 760 349 801 345 q 458 355 609 355 q 365 356 412 356 q 132 377 249 353 q 1 510 14 401 q 5 529 0 520 q 25 542 12 538 q 52 545 38 546 q 437 530 244 530 q 586 538 511 532 q 690 543 638 541 q 800 524 758 546 l 800 524 z "},"­":{"ha":904,"x_min":0,"x_max":870,"o":"m 800 524 q 867 402 870 488 q 832 356 864 368 q 760 349 801 345 q 458 355 609 355 q 365 356 412 356 q 132 377 249 353 q 1 510 14 401 q 5 529 0 520 q 25 542 12 538 q 52 545 38 546 q 437 530 244 530 q 586 538 511 532 q 690 543 638 541 q 800 524 758 546 l 800 524 z "},".":{"ha":222,"x_min":0,"x_max":189,"o":"m 3 1 q 11 48 4 26 q 35 87 18 71 q 84 104 56 104 q 166 42 143 98 q 159 -63 189 -14 q 157 -65 158 -64 q 100 -98 136 -93 q 53 -96 77 -102 q 16 -69 29 -90 q 3 1 0 -37 l 3 1 z "},"/":{"ha":519,"x_min":0,"x_max":485,"o":"m 143 -5 q 132 -7 138 -7 q 72 3 101 -9 q 31 23 50 10 q 5 58 12 37 q 6 97 0 77 q 20 134 12 116 q 28 151 24 143 q 71 261 50 205 q 155 488 115 374 q 211 649 183 568 q 312 935 260 792 q 322 964 317 949 q 365 1057 337 1018 q 456 1080 393 1097 q 479 1065 471 1076 q 485 1049 484 1057 q 484 1032 485 1040 q 430 842 467 942 q 412 785 420 811 q 342 559 376 672 q 339 551 340 555 q 290 395 315 474 q 245 256 267 326 q 201 102 222 179 q 195 81 198 92 q 180 28 191 53 q 143 -5 169 4 l 143 -5 z "},":":{"ha":222,"x_min":0,"x_max":189,"o":"m 3 96 q 11 143 4 121 q 35 182 18 166 q 84 199 56 199 q 166 137 143 193 q 159 32 189 81 q 157 30 158 31 q 100 -3 136 2 q 53 -1 77 -7 q 16 26 29 5 q 3 96 0 58 l 3 96 m 3 463 q 11 510 4 488 q 35 549 18 533 q 84 566 56 566 q 166 504 143 559 q 159 399 189 448 q 157 397 158 398 q 100 363 136 369 q 53 366 77 359 q 16 393 29 372 q 3 463 0 425 l 3 463 z "},";":{"ha":264,"x_min":0,"x_max":230,"o":"m 22 463 q 30 510 23 488 q 54 549 37 533 q 103 566 75 566 q 185 504 162 559 q 178 399 208 448 q 176 397 177 398 q 119 363 155 369 q 72 366 96 359 q 35 393 48 372 q 22 463 19 425 l 22 463 m 50 -105 q 50 -84 46 -95 q 58 -63 53 -73 q 62 -56 60 -60 q 68 -45 66 -50 q 70 -36 71 -39 q 60 -32 68 -33 q 16 -9 32 -30 q 0 39 0 12 q 83 113 6 114 q 203 44 161 109 q 201 -56 230 -9 q 116 -114 172 -102 q 77 -117 97 -118 q 50 -105 55 -115 l 50 -105 z "},";":{"ha":264,"x_min":0,"x_max":230,"o":"m 22 463 q 30 510 23 488 q 54 549 37 533 q 103 566 75 566 q 185 504 162 559 q 178 399 208 448 q 176 397 177 398 q 119 363 155 369 q 72 366 96 359 q 35 393 48 372 q 22 463 19 425 l 22 463 m 50 -105 q 50 -84 46 -95 q 58 -63 53 -73 q 62 -56 60 -60 q 68 -45 66 -50 q 70 -36 71 -39 q 60 -32 68 -33 q 16 -9 32 -30 q 0 39 0 12 q 83 113 6 114 q 203 44 161 109 q 201 -56 230 -9 q 116 -114 172 -102 q 77 -117 97 -118 q 50 -105 55 -115 l 50 -105 z "},"<":{"ha":547,"x_min":0,"x_max":513,"o":"m 417 821 q 469 800 444 825 q 476 670 513 741 q 395 555 440 598 q 344 511 371 532 q 262 428 294 477 q 283 419 264 429 q 326 394 301 409 q 371 367 351 379 q 396 351 391 355 q 456 299 428 328 q 496 231 484 269 q 499 185 501 208 q 493 120 498 162 q 471 44 488 77 q 421 17 454 12 q 367 45 395 24 q 316 91 340 67 q 287 117 300 106 q 144 243 214 178 q 117 268 132 255 q 34 357 67 308 q 45 460 0 407 q 253 680 149 570 q 349 781 301 730 q 417 821 378 813 l 417 821 z "},"=":{"ha":550,"x_min":0,"x_max":516,"o":"m 462 568 q 514 446 516 532 q 487 400 511 412 q 430 392 463 389 q 337 398 370 397 q 258 399 304 399 q 214 400 239 400 q 68 421 129 397 q 1 554 7 446 q 3 573 0 564 q 19 586 9 583 q 41 589 29 589 q 80 585 62 586 q 169 576 130 579 q 270 574 209 574 q 306 576 295 574 q 324 581 317 578 q 342 584 331 583 q 376 587 353 586 q 462 568 429 589 l 462 568 m 462 336 q 514 214 516 300 q 487 168 511 179 q 430 160 463 157 q 337 165 370 164 q 258 168 304 167 q 214 168 239 168 q 68 189 129 164 q 1 321 7 213 q 3 340 0 332 q 19 354 9 350 q 41 356 29 357 q 80 352 62 354 q 169 344 130 347 q 270 342 209 342 q 306 344 295 342 q 324 348 317 346 q 342 352 331 350 q 376 355 353 354 q 462 336 429 357 l 462 336 z "},">":{"ha":547,"x_min":0,"x_max":513,"o":"m 96 821 l 96 821 q 165 781 135 813 q 311 625 238 703 q 467 460 389 543 q 479 357 513 407 q 395 268 446 308 q 368 243 380 255 q 227 117 299 178 q 197 91 213 106 q 146 45 173 67 q 92 17 119 24 q 42 44 58 12 q 20 120 25 77 q 14 185 14 162 q 17 231 12 208 q 57 299 29 269 q 117 351 85 328 q 142 367 122 355 q 187 394 162 379 q 230 419 212 409 q 251 428 249 429 q 169 511 219 477 q 119 555 142 532 q 37 670 73 598 q 44 800 0 741 q 96 821 68 825 z "},"?":{"ha":465,"x_min":0,"x_max":431,"o":"m 264 314 q 245 224 258 269 q 205 183 234 190 q 148 196 176 176 q 112 255 121 219 q 102 326 104 292 q 99 365 101 345 q 94 434 94 399 q 106 499 94 469 q 164 566 129 539 q 201 601 184 582 q 186 838 292 724 q 166 845 176 847 q 155 829 156 844 q 157 787 155 810 q 156 716 163 748 q 103 679 149 684 q 47 686 74 676 q 9 726 20 696 q 2 802 0 760 q 10 881 5 844 q 13 899 12 890 q 50 1016 18 962 q 117 1064 76 1053 q 199 1060 157 1076 q 318 960 265 1030 q 393 821 370 890 q 360 576 431 692 q 264 314 289 454 l 264 314 m 186 -5 q 159 -4 172 -7 q 115 45 122 7 q 124 112 108 79 q 180 136 140 144 q 245 92 218 124 q 261 62 256 79 q 259 27 266 44 q 234 4 251 11 q 201 -4 218 -3 q 186 -5 194 -5 l 186 -5 z "},"@":{"ha":616,"x_min":0,"x_max":582,"o":"m 199 370 l 199 370 q 197 377 198 374 q 178 492 179 433 q 177 501 177 496 q 193 631 168 568 q 296 720 224 699 q 365 718 330 728 q 422 678 399 707 q 443 566 455 627 q 399 456 429 508 q 427 463 415 452 q 448 488 439 473 q 489 607 483 543 q 447 713 490 673 q 338 747 404 752 q 182 657 241 736 q 145 546 151 607 q 148 427 140 484 q 201 297 157 352 q 326 242 246 242 q 407 258 367 245 q 477 273 441 268 q 509 253 505 274 q 510 208 513 231 q 509 192 509 199 q 490 104 508 146 q 356 1 450 17 q 20 372 87 -44 q 3 587 0 479 q 81 890 6 748 q 179 1012 117 958 q 322 1070 241 1066 q 439 1032 387 1069 q 563 830 540 956 q 555 589 582 709 q 530 476 543 532 q 517 425 524 450 q 513 408 515 417 q 500 350 506 379 q 498 336 499 343 q 495 315 498 326 q 486 298 493 305 q 454 288 472 288 q 429 304 437 288 q 427 310 428 307 q 420 323 425 317 q 397 334 408 338 q 377 317 387 330 q 360 291 368 304 q 353 278 356 283 q 308 263 336 258 q 261 283 279 269 q 199 370 218 318 m 262 578 l 262 578 q 254 541 254 561 q 262 498 255 523 q 284 456 269 473 q 323 445 299 439 q 362 488 347 453 q 374 557 376 522 q 345 603 372 592 q 304 606 326 608 q 269 588 283 603 q 262 578 265 583 z "},"A":{"ha":724,"x_min":0,"x_max":690,"o":"m 689 96 l 689 96 q 659 21 687 51 q 592 -9 631 -3 q 519 -9 554 -14 q 473 6 494 -7 q 443 55 448 26 q 438 117 437 85 q 435 165 438 143 q 420 194 431 191 q 393 193 409 197 q 371 189 382 191 q 323 189 347 188 q 304 190 313 190 q 276 187 286 191 q 262 163 267 182 q 264 98 256 131 q 269 56 269 76 q 265 31 270 43 q 206 -1 250 5 q 117 -3 163 -7 q 45 8 71 2 q 12 24 26 11 q 2 46 3 33 q 1 71 0 58 q 4 218 3 144 q 16 519 5 369 q 50 746 23 629 q 142 952 77 863 q 328 1069 217 1048 q 525 992 439 1089 q 622 786 594 901 q 659 559 650 671 q 683 211 676 386 q 686 174 684 194 q 689 96 690 135 m 381 472 l 381 472 q 421 520 416 482 q 415 605 426 558 q 391 690 404 652 q 383 715 387 705 q 372 737 380 728 q 346 741 359 749 q 323 715 333 732 q 310 689 313 699 q 298 660 305 677 q 266 564 277 615 q 294 486 255 512 q 348 471 319 474 q 381 472 368 469 z "},"B":{"ha":627,"x_min":0,"x_max":593,"o":"m 572 414 l 572 414 q 580 353 579 382 q 534 87 593 213 q 347 1 472 -24 q 300 20 323 7 q 257 39 279 33 q 244 45 252 41 q 225 52 235 50 q 211 49 216 54 q 200 20 201 33 q 193 3 199 9 q 164 -4 186 -3 q 154 -4 159 -4 q 86 1 119 -6 q 35 43 54 8 q 23 125 20 83 q 24 196 23 161 q 25 319 26 257 q 18 614 20 465 q 18 696 18 656 q 16 848 18 766 q 11 898 15 869 q 4 1009 0 954 q 60 1084 8 1065 q 100 1081 81 1088 q 136 1061 119 1073 q 146 1055 141 1058 q 159 1044 153 1050 q 171 1033 165 1038 q 186 1027 178 1027 q 202 1029 194 1026 q 204 1029 203 1029 q 243 1040 223 1034 q 315 1059 279 1053 q 386 1056 351 1065 q 487 953 461 1029 q 476 679 533 817 q 461 648 470 664 q 443 604 446 626 q 468 562 439 582 q 572 414 551 509 m 258 710 l 258 710 q 307 756 292 723 q 311 809 317 782 q 275 842 305 836 q 237 837 256 844 q 215 808 218 829 q 216 764 214 786 q 218 730 218 747 q 231 709 218 712 q 258 710 244 705 m 351 203 l 351 203 q 374 317 409 248 q 314 369 356 357 q 291 373 305 371 q 264 372 277 374 q 248 361 252 370 q 238 286 239 329 q 242 217 237 243 q 286 186 250 191 q 351 203 321 181 z "},"C":{"ha":619,"x_min":0,"x_max":585,"o":"m 561 316 l 561 316 q 553 304 557 311 q 543 289 547 297 q 517 227 527 259 q 509 198 513 212 q 471 100 497 146 q 299 -3 412 18 q 109 47 186 -24 q 45 174 61 101 q 24 321 29 248 q 20 360 22 341 q 36 755 0 559 q 94 933 51 846 q 227 1059 136 1021 q 345 1074 281 1078 q 461 1046 410 1069 q 560 964 524 1020 q 579 854 585 912 q 551 726 576 795 q 466 633 526 656 q 444 633 454 630 q 427 646 433 636 q 423 666 422 655 q 424 701 422 683 q 420 771 427 736 q 412 788 417 780 q 399 800 408 795 q 383 801 391 802 q 367 796 374 800 q 281 717 302 770 q 258 599 260 663 q 272 315 253 456 q 278 279 273 296 q 295 248 283 261 q 338 235 319 224 q 371 275 357 247 q 395 331 385 304 q 408 362 403 351 q 461 406 427 395 q 530 397 496 416 q 554 375 543 389 q 568 347 565 361 q 561 316 570 330 z "},"D":{"ha":629,"x_min":0,"x_max":595,"o":"m 590 577 l 590 577 q 589 559 590 568 q 505 160 583 352 q 422 33 477 86 q 281 5 366 -21 q 265 14 275 7 q 243 27 254 22 q 225 28 233 33 q 221 24 223 27 q 220 24 221 24 q 163 -2 198 -1 q 94 1 127 -4 q 81 2 88 1 q 19 28 45 4 q 2 62 4 43 q 3 102 0 81 q 7 179 5 140 q 15 331 12 255 q 18 783 22 557 q 16 897 17 840 q 24 983 14 941 q 75 1050 35 1026 q 159 1071 112 1069 q 250 1068 206 1072 q 276 1067 263 1067 q 462 1010 378 1067 q 571 811 547 932 q 590 577 595 689 m 276 398 l 276 398 q 306 409 292 389 q 330 461 320 429 q 346 524 340 494 q 351 564 351 553 q 332 642 350 597 q 276 691 314 686 q 248 671 253 690 q 245 633 243 651 q 254 498 250 566 q 254 477 254 489 q 257 432 254 454 q 276 398 260 409 z "},"E":{"ha":522,"x_min":0,"x_max":488,"o":"m 439 286 l 439 286 q 448 271 445 279 q 452 254 451 264 q 453 254 453 254 q 463 214 458 234 q 487 88 481 151 q 399 -5 488 -3 q 189 2 294 -12 q 161 5 176 3 q 107 13 134 6 q 60 41 81 19 q 18 127 25 82 q 14 225 12 172 q 15 288 16 255 q 10 457 13 364 q 3 750 5 602 q 5 1004 0 898 q 15 1057 7 1042 q 35 1071 22 1071 q 61 1067 47 1072 q 98 1063 80 1061 q 236 1067 161 1073 q 348 1067 298 1063 q 399 1054 376 1073 q 415 1027 411 1043 q 420 993 418 1010 q 422 970 420 981 q 421 882 429 922 q 361 827 414 841 q 331 824 350 825 q 291 825 311 824 q 251 825 266 825 q 239 824 245 824 q 218 820 227 825 q 205 797 210 816 q 197 642 191 722 q 197 642 197 642 q 197 635 197 638 q 201 631 198 633 q 218 627 208 627 q 237 627 228 626 q 253 627 247 627 q 325 610 292 624 q 403 538 378 589 q 417 460 422 494 q 359 421 412 426 q 292 423 327 420 q 191 421 240 429 q 197 402 194 415 q 203 376 200 389 q 206 362 205 368 q 209 353 208 356 q 279 282 237 295 q 376 283 321 269 q 390 287 384 285 q 422 292 406 293 q 432 290 428 292 q 439 286 435 288 z "},"F":{"ha":567,"x_min":0,"x_max":533,"o":"m 441 484 l 441 484 q 449 431 446 458 q 443 385 453 406 q 397 361 427 363 q 360 357 386 359 q 309 356 334 355 q 273 364 283 357 q 281 351 279 359 q 283 335 283 343 q 284 274 283 304 q 293 108 283 190 q 298 85 295 98 q 305 38 303 62 q 293 -2 307 14 q 255 -18 278 -17 q 210 -16 232 -18 q 190 -14 199 -14 q 179 -14 184 -14 q 63 4 119 -14 q 30 39 36 15 q 26 90 24 63 q 26 109 26 100 q 21 230 23 170 q 10 576 14 404 q 4 850 7 713 q 3 990 3 920 q 2 1005 2 998 q 4 1044 0 1027 q 34 1069 9 1061 q 87 1075 59 1077 q 89 1075 87 1075 q 249 1080 169 1073 q 261 1082 255 1081 q 356 1086 309 1088 q 443 1062 403 1085 q 516 962 496 1025 q 532 837 533 901 q 528 797 532 817 q 508 766 524 777 q 478 758 494 758 q 446 761 462 758 q 353 779 399 770 q 295 783 324 785 q 246 762 266 782 q 231 729 234 747 q 228 690 227 710 q 237 624 230 656 q 244 607 239 614 q 263 597 252 599 q 315 595 283 593 q 366 595 342 597 q 403 584 390 593 q 428 538 422 565 q 441 484 435 511 z "},"G":{"ha":649,"x_min":0,"x_max":615,"o":"m 374 701 l 374 701 q 350 753 360 727 q 349 756 349 755 q 335 783 344 771 q 301 794 316 804 q 275 761 286 783 q 260 722 264 738 q 228 524 235 631 q 258 326 222 416 q 281 295 265 307 q 324 291 301 283 q 361 316 345 299 q 378 342 373 327 q 366 373 382 363 q 328 391 350 384 q 296 404 311 397 q 276 422 282 411 q 265 465 267 442 q 267 517 260 491 q 295 544 275 538 q 334 549 314 549 q 341 550 338 549 q 428 555 385 552 q 504 561 466 559 q 566 531 555 562 q 572 456 576 500 q 571 378 570 418 q 571 340 571 359 q 570 223 570 281 q 568 106 569 165 q 568 98 568 102 q 561 37 570 63 q 515 2 553 11 q 420 -6 468 -9 q 408 -4 414 -6 q 397 1 401 -3 q 389 19 391 9 q 384 72 385 45 q 270 7 331 32 q 142 9 204 -17 q 76 70 100 30 q 20 262 26 158 q 13 758 0 509 q 196 1048 21 957 q 488 1013 351 1108 q 600 740 615 906 q 489 631 583 648 q 421 640 453 623 q 384 684 398 657 q 374 701 379 692 z "},"H":{"ha":673,"x_min":0,"x_max":640,"o":"m 439 16 l 439 16 q 420 66 421 35 q 422 111 419 87 q 426 142 425 126 q 415 224 428 184 q 368 290 403 264 q 316 302 342 308 q 275 268 290 296 q 265 215 264 243 q 270 159 266 187 q 274 124 273 140 q 275 107 275 115 q 275 36 281 68 q 224 -3 268 3 q 125 2 175 -7 q 96 5 110 4 q 54 19 73 7 q 34 45 39 30 q 27 78 28 60 q 13 641 7 359 q 13 764 13 703 q 13 805 13 785 q 7 941 16 871 q 6 951 7 947 q 4 1015 0 985 q 43 1065 7 1045 q 122 1070 80 1080 q 229 1023 184 1064 q 262 944 257 989 q 267 720 276 833 q 267 700 267 710 q 263 671 266 688 q 259 609 258 641 q 283 558 260 576 q 320 554 301 548 q 402 660 400 578 q 379 893 399 779 q 369 965 374 929 q 368 975 368 970 q 369 1023 361 1000 q 418 1064 385 1057 q 487 1062 451 1070 q 550 1044 524 1053 q 601 1007 588 1031 q 612 949 613 983 q 614 747 613 848 q 625 220 613 484 q 629 151 627 185 q 635 64 634 107 q 596 -9 640 14 q 553 -16 575 -18 q 547 -16 550 -16 q 489 -12 517 -17 q 439 16 461 -7 z "},"I":{"ha":275,"x_min":0,"x_max":241,"o":"m 237 230 l 237 230 q 239 94 241 161 q 226 36 239 62 q 171 2 208 7 q 98 0 134 -3 q 82 1 90 0 q 45 7 63 0 q 18 37 26 16 q 10 79 11 58 q 5 567 2 323 q 5 585 5 576 q 5 843 6 714 q 3 970 4 907 q 2 985 2 977 q 2 1024 0 1004 q 17 1057 3 1043 q 111 1073 54 1086 q 195 1023 169 1059 q 207 987 205 1006 q 208 949 208 968 q 222 473 208 711 q 223 441 222 457 q 231 328 226 385 q 237 230 235 279 z "},"J":{"ha":551,"x_min":0,"x_max":517,"o":"m 483 380 l 483 380 q 454 189 470 284 q 432 101 447 144 q 385 28 418 58 q 236 -14 332 -12 q 90 27 140 -17 q 25 158 51 68 q 14 327 0 248 q 106 418 27 407 q 188 385 154 419 q 219 303 221 351 q 219 302 219 302 q 217 272 218 292 q 218 233 216 252 q 227 207 220 214 q 251 216 241 197 q 264 263 260 235 q 271 310 269 292 q 272 319 271 315 q 284 594 286 455 q 286 725 285 660 q 277 802 291 766 q 239 835 261 832 q 191 831 216 838 q 132 829 161 822 q 107 856 113 837 q 102 895 102 876 q 102 901 102 898 q 104 993 101 947 q 104 1023 104 1008 q 123 1057 106 1049 q 163 1067 139 1065 q 363 1080 263 1078 q 497 967 476 1074 q 509 755 517 861 q 508 709 508 730 q 483 380 505 544 z "},"K":{"ha":667,"x_min":0,"x_max":633,"o":"m 369 524 l 369 524 q 362 518 366 521 q 340 499 350 510 q 330 473 330 489 q 354 407 334 437 q 398 352 374 378 q 422 325 411 338 q 551 156 490 240 q 570 130 560 143 q 574 125 571 127 q 583 111 579 118 q 588 94 587 104 q 548 40 585 56 q 477 18 511 24 q 469 16 473 16 q 408 6 433 6 q 354 25 382 6 q 324 57 336 38 q 311 74 318 66 q 255 148 278 106 q 230 186 243 168 q 234 117 238 161 q 227 50 230 73 q 226 46 226 47 q 185 -4 218 3 q 119 -8 153 -12 q 94 -7 105 -7 q 40 8 56 -8 q 23 60 25 24 q 12 783 0 420 q 11 948 14 864 q 15 1012 9 979 q 49 1065 20 1045 q 96 1070 71 1076 q 127 1069 111 1068 q 173 1063 151 1070 q 256 965 245 1035 q 258 814 267 895 q 255 699 251 751 q 309 772 263 738 q 394 829 354 806 q 416 842 407 837 q 509 888 464 876 q 590 854 554 899 q 628 765 623 810 q 591 680 633 720 q 439 569 522 620 q 372 526 405 547 q 371 524 372 525 q 369 524 370 524 z "},"L":{"ha":515,"x_min":0,"x_max":481,"o":"m 429 342 q 456 291 450 321 q 463 231 462 261 q 464 212 463 221 q 471 163 467 189 q 479 95 477 129 q 469 30 481 60 q 429 -3 455 3 q 374 -7 402 -8 q 357 -7 366 -7 q 193 -7 275 -8 q 175 -6 184 -7 q 150 -6 163 -6 q 73 -7 111 -5 q 67 -7 70 -7 q 34 -7 51 -9 q 9 10 17 -5 q 4 42 3 25 q 5 566 0 304 q 8 937 8 751 q 8 964 8 951 q 8 971 8 968 q 10 1020 5 996 q 39 1053 14 1044 q 147 1072 93 1066 q 205 1043 185 1074 q 216 992 216 1019 q 218 972 216 982 q 223 589 236 781 q 218 382 218 486 q 286 334 222 320 q 320 343 302 338 q 361 354 340 349 q 412 354 387 361 q 429 342 422 350 l 429 342 z "},"M":{"ha":700,"x_min":0,"x_max":666,"o":"m 332 723 q 344 739 342 728 q 347 760 347 749 q 347 770 347 766 q 351 810 349 791 q 353 818 352 814 q 357 860 355 839 q 363 912 359 886 q 377 977 366 946 q 417 1025 388 1007 q 467 1034 441 1037 q 473 1034 470 1034 q 606 1021 540 1032 q 629 1016 618 1019 q 648 1004 640 1013 q 663 975 660 991 q 665 941 666 958 q 659 699 662 820 q 648 90 649 394 q 647 59 649 74 q 636 31 645 43 q 606 8 624 15 q 569 0 587 2 q 563 -1 566 -1 q 504 -5 534 -6 q 453 18 474 -3 q 419 88 425 50 q 417 165 414 125 q 416 235 420 200 q 399 275 415 259 q 375 281 387 286 q 355 264 363 277 q 346 244 349 255 q 329 214 342 227 q 292 211 311 202 q 261 233 273 220 q 247 250 253 241 q 218 275 236 267 q 204 271 208 277 q 200 256 200 264 q 195 205 198 230 q 186 59 188 132 q 183 27 186 43 q 167 2 180 12 q 136 -6 153 -7 q 79 -2 106 -8 q 32 27 51 4 q 17 62 20 43 q 15 99 15 81 q 15 102 15 101 q 15 130 15 116 q 10 552 16 340 q 7 730 8 640 q 7 783 7 757 q 5 899 6 842 q 5 928 5 913 q 4 957 4 943 q 2 977 3 967 q 2 1010 0 993 q 21 1043 6 1029 q 53 1065 37 1057 q 132 1079 92 1085 q 258 990 215 1063 q 292 835 296 919 q 292 815 292 825 q 293 770 290 792 q 311 730 296 748 q 318 725 314 726 q 325 722 322 723 q 329 722 328 722 q 332 723 330 722 l 332 723 z "},"N":{"ha":634,"x_min":0,"x_max":600,"o":"m 597 940 l 597 940 q 586 593 590 766 q 575 139 581 366 q 570 81 575 109 q 542 31 564 54 q 418 3 486 -18 q 303 68 351 23 q 290 79 299 72 q 257 107 274 92 q 237 134 239 123 q 230 75 238 104 q 227 62 228 69 q 217 33 224 47 q 197 9 211 18 q 150 -3 176 -3 q 102 1 124 -4 q 54 34 69 9 q 37 91 39 59 q 34 844 0 467 q 35 886 35 862 q 48 1001 35 943 q 115 1064 61 1058 q 186 1056 151 1067 q 258 980 232 1036 q 291 871 283 923 q 311 612 308 744 q 316 512 313 562 q 317 464 317 489 q 323 375 317 419 q 353 296 329 331 q 376 283 369 275 q 384 310 382 290 q 386 349 386 330 q 386 363 386 357 q 387 565 389 464 q 387 659 387 612 q 385 764 387 711 q 387 975 380 870 q 397 1009 387 994 q 458 1041 414 1030 q 544 1046 502 1053 q 597 1010 586 1040 q 599 981 600 996 q 597 940 598 961 z "},"O":{"ha":541,"x_min":0,"x_max":507,"o":"m 471 816 l 471 816 q 480 768 477 793 q 481 410 507 590 q 377 71 463 227 q 155 23 287 -51 q 45 168 72 78 q 13 353 18 257 q 38 777 0 567 q 42 804 40 790 q 93 992 53 905 q 196 1069 133 1063 q 323 1038 259 1076 q 471 816 444 958 m 294 321 l 294 321 q 314 434 311 366 q 317 538 318 501 q 317 545 317 542 q 311 661 317 613 q 285 765 306 709 q 270 790 279 778 q 248 805 260 802 q 224 794 235 808 q 207 751 211 777 q 201 701 202 726 q 199 685 200 692 q 215 339 184 511 q 224 306 217 321 q 251 285 233 289 q 277 294 267 283 q 294 321 288 305 z "},"P":{"ha":718,"x_min":0,"x_max":684,"o":"m 374 1065 l 374 1065 q 620 902 555 1038 q 669 621 684 767 q 271 387 625 270 q 277 275 274 331 q 283 136 281 205 q 275 69 285 102 q 239 16 265 37 q 131 -3 191 -14 q 67 12 98 0 q 18 51 37 24 q 2 103 3 75 q 3 158 0 131 q 14 405 12 281 q 15 441 14 422 q 21 563 17 502 q 28 726 28 645 q 33 789 30 758 q 28 990 45 892 q 54 1057 19 1040 q 135 1069 90 1075 q 196 1017 181 1061 q 277 1063 232 1048 q 374 1065 325 1073 m 419 615 l 419 615 q 442 710 441 655 q 414 801 442 764 q 332 838 381 837 q 314 833 322 838 q 300 801 303 824 q 299 752 298 779 q 302 707 300 726 q 303 693 302 699 q 317 629 304 661 q 365 588 330 597 q 419 615 403 583 z "},"Q":{"ha":628,"x_min":0,"x_max":594,"o":"m 581 161 l 581 161 q 550 62 594 96 q 452 7 505 27 q 432 0 442 3 q 413 0 422 -3 q 392 15 399 3 q 380 39 385 26 q 374 54 376 47 q 354 65 367 65 q 326 58 341 64 q 298 45 311 52 q 286 39 290 41 q 274 35 279 37 q 203 7 239 19 q 121 -1 163 -5 q 50 32 79 3 q 19 90 26 57 q 10 155 12 122 q 9 166 10 161 q 1 340 2 253 q 12 700 0 520 q 14 758 14 728 q 18 854 12 806 q 48 941 24 902 q 266 1069 130 1056 q 511 998 402 1082 q 564 896 557 958 q 564 773 570 835 q 561 724 562 747 q 559 662 560 693 q 550 444 558 553 q 545 397 548 420 q 543 260 532 328 q 562 208 550 235 q 581 161 573 184 m 357 591 l 357 591 q 375 630 372 600 q 375 693 378 661 q 369 737 372 725 q 334 792 360 770 q 276 807 308 810 q 202 749 221 797 q 182 652 184 701 q 179 622 180 637 q 174 428 168 525 q 198 324 176 374 q 213 299 203 313 q 235 275 222 284 q 262 270 248 265 q 284 304 285 281 q 273 346 283 327 q 249 382 262 366 q 218 439 228 406 q 226 534 212 477 q 275 612 240 591 q 299 614 288 618 q 321 603 310 610 q 349 590 334 593 q 357 591 353 589 z "},"R":{"ha":608,"x_min":0,"x_max":574,"o":"m 368 431 l 368 431 q 488 245 441 351 q 526 31 534 140 q 505 2 522 7 q 467 -1 488 -2 q 452 0 459 0 q 439 -1 448 0 q 390 -1 420 -1 q 336 3 360 -1 q 308 21 311 7 q 277 251 288 135 q 270 281 275 275 q 260 279 265 286 q 251 259 255 273 q 248 231 248 245 q 254 141 249 186 q 256 95 255 119 q 260 45 258 68 q 255 10 263 17 q 220 2 248 3 q 215 2 218 2 q 90 1 153 -4 q 75 3 82 1 q 62 10 67 5 q 37 68 41 33 q 33 134 33 104 q 33 142 33 138 q 31 278 32 210 q 31 309 31 294 q 31 423 31 366 q 29 637 30 530 q 20 878 28 758 q 5 1000 14 939 q 4 1010 5 1005 q 2 1045 0 1028 q 22 1071 3 1061 q 73 1074 47 1080 q 278 1057 175 1053 q 385 1055 334 1062 q 478 1010 435 1048 q 561 841 547 940 q 541 653 574 743 q 368 431 487 519 q 368 431 368 431 q 368 431 368 431 m 292 607 l 292 607 q 322 619 302 597 q 347 679 340 642 q 352 745 353 716 q 343 777 351 753 q 324 827 336 802 q 299 863 312 852 q 277 857 286 874 q 272 831 272 846 q 273 802 271 817 q 273 781 273 790 q 273 771 273 776 q 271 718 272 745 q 271 685 270 707 q 277 639 272 662 q 292 607 281 616 z "},"S":{"ha":564,"x_min":0,"x_max":530,"o":"m 292 285 q 284 389 303 332 q 233 480 265 445 q 144 543 194 518 q 111 563 127 553 q 26 672 47 604 q 12 812 4 739 q 35 930 16 871 q 98 1031 53 990 q 163 1063 128 1056 q 235 1072 197 1071 q 412 1074 324 1077 q 464 1065 440 1074 q 500 1031 487 1057 q 519 935 519 985 q 522 909 521 922 q 522 741 530 825 q 508 702 519 722 q 480 672 497 682 q 423 686 450 659 q 379 743 397 713 q 368 759 372 753 q 329 791 353 781 q 294 792 311 798 q 264 772 276 787 q 255 742 254 757 q 263 711 256 726 q 279 689 269 696 q 302 675 289 682 q 311 671 307 673 q 442 544 396 627 q 486 350 486 453 q 484 241 487 295 q 483 208 484 224 q 483 167 482 188 q 473 59 486 111 q 404 -14 456 4 q 331 -9 368 -20 q 327 -7 329 -8 q 85 -1 205 24 q 3 62 3 -18 q 3 155 4 109 q 3 275 0 214 q 16 332 4 305 q 65 366 35 366 q 126 353 96 365 q 214 317 171 336 q 235 309 224 313 q 292 285 264 295 l 292 285 z "},"T":{"ha":744,"x_min":0,"x_max":710,"o":"m 467 1 q 459 -8 464 -4 q 426 -16 445 -18 q 350 -7 388 -12 q 276 1 313 -2 q 243 8 258 1 q 218 31 227 16 q 212 63 212 46 q 215 137 212 100 q 215 142 215 140 q 224 682 235 412 q 221 699 225 691 q 201 709 214 708 q 151 709 176 711 q 114 709 133 708 q 34 737 68 708 q 5 799 9 764 q 3 869 0 835 q 5 928 4 899 q 9 1029 6 979 q 19 1063 9 1048 q 41 1075 28 1073 q 67 1077 54 1077 q 177 1074 122 1076 q 296 1072 237 1074 q 623 1060 460 1068 q 665 1050 646 1060 q 691 1000 688 1032 q 701 764 710 882 q 688 726 701 742 q 652 712 672 714 q 599 709 628 709 q 527 705 562 711 q 475 666 493 698 q 461 608 463 639 q 458 447 455 528 q 458 359 458 403 q 461 201 458 280 q 469 77 463 138 q 471 62 470 70 q 474 30 473 46 q 467 1 474 14 l 467 1 z "},"U":{"ha":684,"x_min":0,"x_max":650,"o":"m 607 348 l 607 348 q 605 216 605 282 q 607 171 606 194 q 592 27 616 96 q 525 -14 573 -7 q 444 -3 477 -22 q 426 26 427 8 q 429 64 425 45 q 431 89 431 77 q 342 52 385 72 q 149 -7 253 4 q 66 7 104 -13 q 31 56 41 26 q 17 117 20 85 q 18 538 0 326 q 25 884 31 711 q 22 913 24 897 q 20 983 19 947 q 38 1046 21 1018 q 116 1084 66 1086 q 208 1068 166 1082 q 298 964 296 1050 q 298 684 299 824 q 297 575 297 629 q 296 568 297 573 q 297 506 296 549 q 302 422 297 464 q 321 365 308 381 q 360 381 335 349 q 387 457 381 416 q 387 458 387 457 q 399 628 401 543 q 389 807 398 718 q 380 941 382 874 q 450 1025 370 1025 q 559 1021 505 1023 q 596 1018 578 1021 q 627 1000 614 1014 q 648 911 650 970 q 636 798 645 852 q 629 748 631 768 q 625 694 627 721 q 610 453 615 574 q 607 348 608 400 z "},"V":{"ha":639,"x_min":0,"x_max":605,"o":"m 486 1042 l 486 1042 q 544 1033 513 1046 q 589 999 575 1019 q 603 941 605 974 q 593 879 600 908 q 591 864 592 871 q 498 402 547 633 q 486 338 492 370 q 455 186 469 262 q 451 165 453 176 q 435 91 446 127 q 397 28 424 55 q 315 -2 362 -4 q 237 38 268 0 q 210 112 216 72 q 168 313 189 212 q 41 846 117 583 q 35 867 39 856 q 10 964 20 912 q 18 1053 0 1015 q 103 1093 36 1090 q 255 1017 195 1088 q 326 817 315 928 q 370 655 336 731 q 412 825 407 735 q 419 876 415 851 q 422 911 421 891 q 433 984 425 947 q 470 1038 442 1020 q 486 1042 477 1041 z "},"W":{"ha":990,"x_min":0,"x_max":956,"o":"m 939 1031 l 939 1031 q 954 986 952 1011 q 954 937 956 961 q 892 534 932 734 q 868 402 880 468 q 857 339 862 370 q 830 188 842 263 q 827 167 829 177 q 813 94 823 130 q 777 31 803 58 q 695 -1 743 -2 q 617 36 648 -1 q 588 108 595 68 q 536 331 558 227 q 491 520 515 427 q 440 377 463 450 q 421 316 431 347 q 376 169 397 243 q 371 149 374 159 q 348 78 362 113 q 304 19 334 43 q 220 -3 267 -9 q 146 43 173 3 q 126 119 129 79 q 103 319 114 218 q 26 854 77 589 q 22 875 24 864 q 5 972 10 921 q 21 1059 0 1024 q 110 1090 43 1094 q 254 1002 201 1078 q 302 825 302 920 q 304 789 304 809 q 310 711 304 751 q 336 643 316 671 q 340 658 334 646 q 354 686 346 670 q 370 715 363 702 q 380 734 378 730 q 395 770 389 752 q 458 879 416 830 q 561 926 503 922 q 659 879 620 930 q 696 787 684 836 q 726 707 707 745 q 738 684 733 696 q 739 660 743 671 q 772 829 773 741 q 774 872 773 851 q 785 999 776 936 q 798 1042 788 1021 q 829 1069 808 1062 q 879 1066 854 1076 q 934 1037 911 1059 q 939 1031 937 1034 z "},"X":{"ha":751,"x_min":0,"x_max":718,"o":"m 705 1031 l 705 1031 q 716 998 718 1019 q 699 941 713 970 q 640 807 670 874 q 515 526 578 664 q 513 522 514 524 q 489 462 498 491 q 486 401 480 433 q 522 327 498 359 q 544 292 534 310 q 579 227 562 259 q 650 92 616 160 q 651 89 650 90 q 661 66 656 78 q 663 41 665 54 q 638 0 658 16 q 593 -17 618 -15 q 459 49 507 -20 q 406 151 427 98 q 364 233 388 193 q 355 199 365 219 q 334 163 345 179 q 323 146 327 151 q 307 111 315 127 q 273 41 292 77 q 271 39 272 41 q 262 24 267 31 q 250 12 258 18 q 232 4 241 6 q 211 0 223 1 q 204 -1 208 0 q 136 -6 176 -5 q 65 4 96 -7 q 33 50 35 15 q 48 107 33 79 q 82 161 63 135 q 113 209 100 185 q 146 269 130 241 q 200 374 176 316 q 199 510 226 437 q 193 528 196 519 q 97 766 151 642 q 81 796 93 774 q 42 867 63 827 q 11 943 21 908 q 14 988 0 977 q 87 1016 52 1010 q 151 1038 118 1022 q 199 1057 174 1053 q 246 1040 224 1061 q 261 1004 258 1025 q 264 995 262 1000 q 313 840 282 918 q 324 816 318 828 q 347 760 338 789 q 350 701 355 732 q 435 875 384 792 q 454 906 445 890 q 536 1015 482 967 q 619 1055 572 1045 q 705 1031 667 1065 z "},"Y":{"ha":766,"x_min":0,"x_max":732,"o":"m 14 1061 q 76 1086 38 1086 q 146 1078 115 1085 q 210 1080 178 1073 q 257 1084 235 1084 q 300 1067 280 1083 q 334 1004 320 1047 q 352 932 347 962 q 356 855 358 894 q 355 815 355 836 q 355 811 355 813 q 357 787 355 799 q 368 766 359 775 q 379 759 372 761 q 391 758 385 756 q 399 768 397 762 q 401 782 401 775 q 404 810 403 796 q 413 896 407 853 q 426 949 416 913 q 451 1019 437 985 q 477 1067 465 1053 q 510 1084 492 1081 q 548 1086 529 1086 q 567 1086 558 1086 q 572 1086 570 1086 q 656 1086 614 1088 q 704 998 732 1073 q 651 854 684 940 q 595 711 618 768 q 575 662 585 686 q 511 465 531 567 q 498 277 498 372 q 485 92 497 184 q 463 33 482 59 q 390 7 433 5 q 325 23 355 5 q 281 98 289 51 q 258 269 262 183 q 207 576 257 426 q 128 746 172 663 q 54 905 87 824 q 40 934 48 917 q 12 998 24 964 q 10 1056 0 1032 q 14 1061 12 1059 l 14 1061 z "},"Z":{"ha":709,"x_min":0,"x_max":675,"o":"m 318 310 q 317 309 318 310 q 511 327 415 303 q 616 242 617 347 q 614 135 615 189 q 614 133 614 134 q 608 70 615 101 q 578 18 602 38 q 535 1 559 4 q 488 -2 512 -3 q 180 -1 334 -1 q 166 -1 173 -1 q 73 8 116 -4 q 20 77 30 20 q 20 299 0 189 q 199 572 73 458 q 279 663 241 617 q 294 681 287 672 q 323 717 307 700 q 210 743 269 738 q 86 728 146 749 q 84 727 85 728 q 65 721 75 723 q 46 722 56 719 q 26 747 30 729 q 24 781 22 764 q 33 1015 33 897 q 82 1075 33 1068 q 184 1077 132 1082 q 223 1076 206 1076 q 580 1082 401 1080 q 609 1080 594 1082 q 635 1070 623 1078 q 654 1044 648 1060 q 663 1012 660 1029 q 670 878 675 945 q 593 676 656 769 q 487 535 545 603 q 429 463 457 499 q 397 423 413 443 q 318 310 351 370 l 318 310 z "},"[":{"ha":359,"x_min":0,"x_max":325,"o":"m 45 1092 q 61 1100 53 1098 q 87 1101 74 1105 q 94 1100 90 1101 l 145 1099 l 191 1097 q 217 1099 203 1097 q 261 1099 239 1101 q 298 1076 283 1096 q 319 1020 313 1054 q 310 959 325 985 q 292 943 302 948 q 237 931 265 931 q 172 932 205 930 q 170 819 175 876 q 166 736 167 777 q 171 273 166 505 q 173 115 172 193 l 191 115 q 217 115 203 114 q 261 115 239 118 q 298 92 283 113 q 319 37 313 71 q 310 -24 325 3 q 292 -40 302 -35 q 237 -52 265 -52 q 167 -51 202 -53 l 152 -50 l 132 -50 q 54 -37 92 -58 q 5 42 10 -8 q 7 142 0 93 q 9 164 7 154 q 18 611 23 387 q 20 900 17 755 q 20 938 20 916 q 20 1019 17 977 q 37 1080 22 1056 q 45 1091 41 1086 l 45 1092 z "},"\\":{"ha":519,"x_min":0,"x_max":485,"o":"m 342 -5 l 342 -5 q 305 28 316 4 q 290 81 294 53 q 284 102 287 92 q 239 256 263 179 q 195 395 218 326 q 146 551 170 474 q 143 559 144 555 q 73 785 109 672 q 55 842 65 811 q 1 1032 18 942 q 0 1049 0 1040 q 5 1065 1 1057 q 29 1080 14 1076 q 120 1057 92 1097 q 163 964 148 1018 q 173 935 168 949 q 274 649 225 792 q 330 488 302 568 q 414 261 370 374 q 457 151 435 205 q 465 134 460 143 q 479 97 473 116 q 480 58 485 77 q 454 23 473 37 q 413 3 435 10 q 353 -7 384 -9 q 342 -5 347 -7 z "},"]":{"ha":359,"x_min":0,"x_max":325,"o":"m 231 1100 q 237 1101 234 1101 q 263 1100 250 1105 q 279 1092 271 1098 l 279 1091 q 287 1080 283 1086 q 304 1019 302 1056 q 305 938 307 977 q 304 900 304 916 q 306 611 308 755 q 316 164 301 387 q 318 142 317 154 q 320 42 325 93 q 271 -37 315 -8 q 193 -50 233 -58 l 173 -50 q 157 -51 165 -50 q 87 -52 123 -53 q 33 -40 59 -52 q 15 -24 22 -35 q 6 37 0 3 q 26 92 12 71 q 63 115 41 113 q 108 115 85 118 q 134 115 121 114 l 151 115 l 154 273 q 158 736 159 505 q 155 819 157 777 q 153 932 149 876 q 87 931 120 930 q 33 943 59 931 q 15 959 22 948 q 6 1020 0 985 q 26 1076 12 1054 q 63 1099 41 1096 q 108 1099 85 1101 q 134 1097 121 1097 q 179 1099 157 1098 q 231 1100 205 1099 z "},"^":{"ha":405,"x_min":0,"x_max":371,"o":"m 367 1088 q 325 1060 355 1065 q 271 1055 294 1055 q 242 1058 256 1054 q 220 1075 229 1061 q 205 1109 211 1090 q 203 1119 204 1114 q 201 1123 202 1120 q 194 1145 199 1132 q 181 1167 189 1159 q 167 1165 174 1175 q 150 1120 154 1145 q 142 1090 147 1104 q 116 1066 133 1072 q 80 1065 99 1061 q 67 1067 74 1066 q 37 1073 52 1069 q 12 1086 22 1076 q 5 1113 0 1098 q 18 1139 9 1127 q 22 1144 20 1141 q 101 1275 62 1208 q 133 1331 117 1303 q 138 1342 136 1337 q 147 1360 142 1352 q 160 1373 153 1369 q 192 1367 177 1379 q 218 1336 207 1355 q 237 1302 229 1317 q 241 1295 239 1297 q 319 1174 275 1232 q 351 1130 336 1152 q 356 1123 354 1126 q 367 1107 363 1116 q 367 1088 371 1098 l 367 1088 z "},"_":{"ha":950,"x_min":0,"x_max":916,"o":"m 903 -19 q 879 -28 893 -27 q 849 -27 864 -28 q 833 -26 841 -26 q 743 -25 788 -26 q 561 -24 652 -24 q 193 -26 377 -24 q 77 -12 132 -30 q 22 32 44 1 q 12 100 0 63 q 49 122 20 117 q 102 130 78 128 q 116 131 111 130 q 341 135 227 142 q 431 133 387 134 q 576 133 504 132 q 781 132 679 134 q 804 131 793 132 q 860 119 833 129 q 902 82 887 109 q 915 33 913 59 q 915 5 916 19 q 903 -19 913 -9 l 903 -19 z "},"`":{"ha":279,"x_min":0,"x_max":245,"o":"m 0 1341 l 0 1341 q 1 1345 0 1343 q 27 1366 5 1361 q 74 1369 49 1371 q 112 1362 99 1367 q 150 1316 132 1352 q 181 1246 168 1280 q 192 1221 188 1230 q 209 1183 201 1202 q 236 1126 222 1154 q 242 1092 245 1109 q 214 1063 235 1071 q 172 1055 193 1055 q 121 1077 140 1056 q 90 1126 102 1099 q 45 1222 68 1174 q 21 1274 33 1249 q 14 1294 18 1280 q 4 1321 9 1308 q 0 1341 0 1335 z "},"a":{"ha":733,"x_min":0,"x_max":699,"o":"m 489 178 q 474 162 483 176 q 381 43 436 96 q 186 -16 298 -36 q 65 88 96 9 q 29 252 35 167 q 59 597 0 431 q 267 795 125 735 q 519 818 390 844 q 606 791 555 812 q 668 734 656 771 q 690 384 699 563 q 690 278 690 330 q 688 102 691 191 q 655 26 686 58 q 578 -3 625 -5 q 537 12 555 -1 q 505 67 511 33 q 503 90 504 72 q 501 129 503 108 q 497 165 500 151 q 489 178 494 180 l 489 178 m 541 488 q 516 523 542 511 q 462 538 490 535 q 346 486 392 541 q 289 366 299 431 q 295 331 286 345 q 324 315 303 317 q 393 342 363 315 q 524 458 463 395 q 541 488 541 475 l 541 488 z "},"b":{"ha":652,"x_min":0,"x_max":618,"o":"m 286 131 q 264 123 276 130 q 225 71 237 102 q 208 40 218 55 q 130 -11 179 -4 q 64 19 91 -11 q 28 85 39 47 q 5 281 0 180 q 20 511 8 396 q 34 833 39 672 q 30 873 33 850 q 24 982 20 927 q 74 1057 28 1037 q 138 1062 105 1065 q 215 1053 177 1062 q 276 1013 252 1043 q 298 947 294 983 q 308 687 315 818 q 324 686 309 688 q 359 680 339 684 q 396 673 380 676 q 416 668 413 669 q 576 516 534 625 q 614 292 618 408 q 578 104 614 201 q 446 -19 542 7 q 408 -17 427 -23 q 361 23 378 -5 q 347 56 355 36 q 323 108 338 84 q 286 131 309 132 l 286 131 m 421 377 q 384 433 416 406 q 321 460 351 460 q 302 450 310 459 q 291 430 294 441 q 303 380 286 403 q 340 342 320 358 q 346 338 343 340 q 367 325 357 328 q 393 330 377 321 q 413 350 405 338 q 421 377 422 363 l 421 377 z "},"c":{"ha":508,"x_min":0,"x_max":474,"o":"m 374 413 l 374 413 q 433 376 410 404 q 456 262 466 328 q 427 146 447 197 q 356 37 406 81 q 201 -9 288 -13 q 85 35 134 -8 q 32 138 45 76 q 15 258 19 199 q 12 289 14 275 q 3 527 0 408 q 26 701 2 616 q 95 818 47 769 q 218 872 144 867 q 350 824 290 872 q 437 711 410 777 q 441 505 474 608 q 358 434 416 444 q 259 475 301 425 q 258 477 258 476 q 252 484 255 481 q 245 489 249 487 q 227 483 235 492 q 215 463 218 475 q 238 311 194 382 q 274 371 253 343 q 326 411 294 399 q 374 413 350 418 z "},"d":{"ha":570,"x_min":0,"x_max":536,"o":"m 311 50 q 269 33 288 47 q 250 22 260 27 q 245 20 248 21 q 144 -6 196 -7 q 48 77 65 0 q 33 515 0 294 q 100 643 41 594 q 162 670 130 665 q 229 675 195 675 q 269 677 248 676 q 276 777 278 725 q 276 817 275 798 q 280 886 277 850 q 287 949 283 923 q 401 1069 295 1068 q 520 945 512 1062 q 517 554 536 753 q 511 460 513 507 q 504 328 507 393 q 481 12 499 172 q 438 -50 476 -31 q 384 -40 409 -59 q 349 5 361 -22 q 344 16 347 11 q 335 34 340 26 q 324 45 330 40 q 311 50 318 50 l 311 50 m 240 286 q 260 297 252 285 q 262 300 261 298 q 268 311 265 305 q 271 327 270 317 q 268 391 272 355 q 245 449 263 427 q 189 453 228 470 q 173 430 176 446 q 171 399 170 414 q 199 313 173 353 q 216 295 205 302 q 240 286 227 287 l 240 286 z "},"e":{"ha":560,"x_min":0,"x_max":526,"o":"m 339 406 l 339 406 q 347 411 342 408 q 428 418 385 431 q 486 361 472 404 q 476 283 490 322 q 471 267 473 275 q 436 161 458 212 q 279 4 389 51 q 172 1 225 -16 q 97 61 125 18 q 53 151 68 103 q 7 480 0 311 q 47 673 9 581 q 260 835 110 812 q 438 781 359 842 q 524 606 517 713 q 526 554 526 587 q 516 493 526 522 q 482 460 507 465 q 458 463 470 460 q 457 463 457 463 q 290 474 374 482 q 221 426 239 467 q 209 335 203 385 q 238 249 216 284 q 244 242 240 245 q 254 239 249 239 q 274 254 267 241 q 287 285 282 268 q 293 314 291 302 q 294 320 294 317 q 339 406 301 372 m 345 658 l 345 658 q 311 681 332 676 q 271 673 298 682 q 222 647 243 663 q 210 612 201 631 q 218 605 212 607 q 229 603 223 603 q 233 602 231 603 q 291 602 259 600 q 342 622 322 604 q 345 658 357 640 z "},"f":{"ha":621,"x_min":0,"x_max":587,"o":"m 503 856 l 503 856 q 531 833 518 846 q 566 688 587 770 q 542 629 559 659 q 491 593 524 599 q 464 599 477 591 q 440 616 452 606 q 434 621 437 618 q 372 646 407 644 q 328 627 346 646 q 319 590 313 609 q 349 576 324 572 q 362 580 356 578 q 376 585 369 583 q 433 567 408 590 q 466 513 456 545 q 485 437 480 478 q 462 366 490 397 q 402 345 437 342 q 391 347 397 345 q 366 348 378 349 q 349 334 354 347 q 345 306 345 323 q 347 271 345 288 q 348 254 348 261 q 349 218 349 235 q 351 144 350 178 q 355 64 352 110 q 352 -83 361 -9 q 281 -207 342 -157 q 243 -224 264 -219 q 205 -218 223 -229 q 182 -188 189 -207 q 158 -105 162 -144 q 156 -26 155 -66 q 155 39 157 5 q 155 196 153 118 q 155 204 155 200 q 157 275 156 239 q 157 289 157 281 q 158 319 160 304 q 144 340 157 334 q 125 342 135 342 q 114 341 119 341 q 77 341 96 340 q 10 403 20 351 q 25 500 0 455 q 68 541 42 527 q 123 563 94 554 q 149 572 136 568 q 150 583 150 573 q 148 604 149 592 q 146 625 147 616 q 145 632 145 630 q 146 712 142 672 q 193 820 153 774 q 340 880 254 875 q 441 879 391 887 q 503 856 474 872 z "},"g":{"ha":555,"x_min":0,"x_max":521,"o":"m 515 606 l 515 606 q 520 533 521 570 q 510 60 520 297 q 510 56 510 58 q 481 -96 513 -24 q 377 -182 445 -157 q 147 -208 266 -229 q 87 -184 114 -201 q 54 -131 61 -166 q 55 50 35 -40 q 77 94 61 75 q 122 115 96 115 q 168 95 147 112 q 176 89 172 92 q 264 45 215 54 q 345 83 315 43 q 370 168 368 122 q 304 154 337 163 q 165 145 233 129 q 75 220 107 166 q 33 332 42 274 q 98 650 0 505 q 235 725 151 718 q 262 723 248 725 q 308 724 287 719 q 326 734 319 727 q 338 750 332 741 q 345 759 341 755 q 372 780 355 774 q 416 772 395 785 q 468 719 446 752 q 504 652 491 685 q 515 606 512 629 m 269 376 l 269 376 q 300 395 287 380 q 321 458 325 425 q 292 521 318 492 q 261 535 279 534 q 232 517 243 532 q 203 434 202 481 q 220 393 205 411 q 259 374 235 376 q 269 376 264 374 z "},"h":{"ha":535,"x_min":0,"x_max":501,"o":"m 227 557 q 277 550 246 544 q 330 562 309 555 q 333 564 331 563 q 403 573 370 576 q 462 538 437 570 q 494 453 488 500 q 499 360 500 406 q 499 336 499 348 q 495 74 501 205 q 470 21 493 41 q 414 -3 448 0 q 349 26 370 -4 q 325 94 328 56 q 323 167 321 130 q 318 262 328 215 q 287 311 311 292 q 243 309 256 332 q 228 242 230 286 q 230 158 227 199 q 235 102 233 117 q 143 -3 243 3 q 48 20 90 -10 q 18 75 26 43 q 5 227 0 150 q 9 629 5 427 q 12 831 11 730 q 13 861 13 845 q 26 1004 9 937 q 67 1052 38 1040 q 132 1063 97 1063 q 205 1035 175 1063 q 244 950 238 1000 q 247 855 250 901 q 220 605 243 729 q 220 604 220 605 q 217 576 216 590 q 227 557 219 564 l 227 557 z "},"i":{"ha":250,"x_min":0,"x_max":216,"o":"m 50 793 l 50 793 q 47 796 49 795 q 35 819 39 806 q 25 869 27 841 q 47 913 24 898 q 79 916 62 919 q 154 892 120 914 q 192 824 189 866 q 169 788 190 797 q 122 780 149 779 q 76 783 95 781 q 50 793 62 785 m 203 550 l 203 550 q 199 496 201 524 q 195 431 196 463 q 203 299 195 366 q 210 123 216 211 q 188 46 206 82 q 126 -3 167 8 q 62 13 92 -8 q 19 66 33 33 q 5 186 0 124 q 6 224 6 205 q 9 363 6 294 q 12 401 11 382 q 14 469 13 435 q 17 562 14 515 q 18 583 18 572 q 21 643 20 612 q 20 664 21 652 q 20 695 19 680 q 32 722 22 711 q 65 733 45 734 q 102 726 85 731 q 150 708 127 720 q 185 672 173 696 q 203 550 208 614 z "},"j":{"ha":286,"x_min":-414,"x_max":252,"o":"m 96 765 l 96 765 q 79 779 85 770 q 62 814 67 795 q 60 821 61 818 q 53 868 52 844 q 97 916 54 909 q 144 915 120 920 q 184 890 168 909 q 196 814 207 855 q 177 770 194 789 q 138 754 160 754 q 96 765 115 755 m 243 144 l 243 144 q -18 -220 218 -117 q -175 -234 -75 -239 q -344 -186 -274 -229 q -385 -50 -414 -144 q -368 -23 -378 -31 q -338 -12 -359 -15 q -238 -19 -290 -8 q -136 -26 -187 -29 q -90 -14 -114 -24 q -50 10 -66 -3 q -1 66 -18 37 q 45 224 43 142 q 50 360 49 294 q 54 446 52 402 q 54 534 55 490 q 54 563 54 549 q 54 599 54 581 q 56 673 51 636 q 90 706 61 702 q 136 711 113 711 q 181 699 160 711 q 228 642 216 676 q 242 569 240 608 q 250 380 250 474 q 250 343 250 361 q 243 144 252 244 z "},"k":{"ha":694,"x_min":0,"x_max":660,"o":"m 30 1039 q 89 1073 50 1068 q 161 1073 128 1078 q 235 1039 203 1067 q 268 961 262 1008 q 271 873 273 915 q 271 863 271 868 q 259 702 269 782 q 247 543 250 623 q 255 522 247 523 q 275 530 263 520 q 297 553 286 540 q 315 574 309 566 q 319 578 317 576 q 450 733 385 656 q 487 770 467 753 q 532 789 507 787 q 619 746 578 789 q 659 656 660 703 q 639 610 655 631 q 528 499 591 550 q 481 456 504 477 q 461 439 471 448 q 419 395 435 419 q 416 336 404 372 q 538 127 464 225 q 575 73 557 100 q 590 46 584 60 q 591 18 595 32 q 572 -6 585 3 q 497 -32 538 -31 q 420 -11 455 -33 q 344 87 371 28 q 298 170 321 129 q 273 215 286 193 q 260 225 265 229 q 254 211 256 222 q 251 186 252 199 q 252 170 251 174 q 258 124 254 146 q 261 106 260 115 q 265 88 262 98 q 272 46 271 68 q 258 12 273 24 q 244 5 252 7 q 229 3 237 3 q 80 -2 155 -1 q 40 2 60 -3 q 16 22 24 8 q 5 52 7 36 q 6 127 0 88 q 9 159 8 144 q 16 286 13 223 q 25 528 22 407 q 28 604 26 565 q 23 970 39 791 q 23 972 23 970 q 22 1019 19 996 q 30 1039 24 1030 l 30 1039 z "},"l":{"ha":259,"x_min":-14,"x_max":225,"o":"m 5 461 q 6 642 5 551 q 7 745 7 694 q 9 804 8 774 q -9 1025 22 920 q -14 1042 -14 1033 q 12 1072 -10 1065 q 59 1075 33 1078 q 100 1068 84 1072 q 202 972 182 1044 q 220 826 222 901 q 219 416 225 621 q 215 152 215 284 q 172 32 215 85 q 87 -5 140 3 q 9 31 35 -12 q 3 65 3 47 q 3 315 1 190 q 5 461 5 388 l 5 461 z "},"m":{"ha":690,"x_min":0,"x_max":656,"o":"m 427 372 q 422 370 425 371 q 418 366 420 368 q 395 329 405 349 q 391 319 393 324 q 355 278 378 292 q 308 278 330 267 q 273 310 286 289 q 258 338 264 323 q 229 382 246 362 q 228 242 216 313 q 230 224 229 233 q 214 68 243 142 q 160 10 196 31 q 85 1 124 -11 q 14 87 28 24 q 11 195 4 140 q 12 203 11 199 q 14 569 22 386 q 13 593 14 581 q 6 707 12 651 q 6 781 0 745 q 62 848 19 829 q 149 843 105 867 q 196 791 182 822 q 218 726 210 760 q 244 653 227 688 q 249 678 241 661 q 269 711 258 695 q 285 733 280 728 q 325 757 301 752 q 366 742 348 762 q 379 710 376 727 q 389 682 381 694 q 401 673 396 671 q 411 683 407 675 q 418 701 415 692 q 418 702 418 701 q 453 780 430 736 q 510 847 476 823 q 590 844 545 870 q 619 807 610 830 q 633 760 629 785 q 648 448 656 605 q 648 444 648 446 q 630 117 644 280 q 619 54 629 85 q 583 3 609 22 q 533 -11 560 -12 q 484 5 507 -10 q 448 60 455 28 q 440 127 440 93 q 439 146 439 137 q 436 254 437 200 q 437 273 436 259 q 438 312 438 290 q 437 351 439 334 q 429 371 435 368 q 427 372 428 372 l 427 372 z "},"n":{"ha":587,"x_min":0,"x_max":553,"o":"m 31 15 q 9 67 12 36 q 10 130 6 99 q 24 532 33 331 q 6 738 19 635 q 5 745 5 741 q 1 795 1 768 q 13 841 0 823 q 60 854 25 859 q 117 805 100 844 q 136 739 131 773 q 137 730 136 734 q 144 709 139 719 q 159 697 149 699 q 178 703 170 696 q 216 754 203 723 q 233 783 224 769 q 344 852 275 836 q 482 839 418 876 q 549 706 544 791 q 541 537 553 621 q 533 453 535 490 q 531 248 530 350 q 533 193 531 221 q 526 50 542 117 q 488 0 515 16 q 427 -2 460 -16 q 374 65 387 20 q 358 228 353 144 q 349 370 361 300 q 326 421 343 398 q 303 437 317 432 q 276 439 290 443 q 247 416 258 432 q 200 275 201 353 q 211 119 199 197 q 212 113 211 116 q 206 41 219 75 q 159 5 191 14 q 95 -4 127 -5 q 45 5 68 -5 q 31 15 37 9 l 31 15 z "},"o":{"ha":420,"x_min":0,"x_max":387,"o":"m 85 821 q 182 848 125 848 q 281 825 239 848 q 358 720 340 787 q 378 586 377 652 q 383 324 385 455 q 383 253 383 289 q 384 222 383 238 q 379 117 387 170 q 334 25 372 64 q 269 -5 307 0 q 117 29 180 -18 q 33 160 53 76 q 23 520 0 339 q 37 643 29 582 q 43 700 41 671 q 45 718 45 709 q 55 775 47 747 q 85 821 62 803 l 85 821 m 208 245 q 211 246 210 246 q 236 273 227 252 q 248 310 245 294 q 238 520 270 416 q 222 549 235 537 q 191 543 204 562 q 168 490 177 524 q 155 425 159 456 q 151 382 151 393 q 164 291 150 336 q 180 261 169 277 q 208 245 191 245 l 208 245 z "},"p":{"ha":665,"x_min":0,"x_max":631,"o":"m 241 107 q 231 71 230 96 q 236 23 232 45 q 238 5 237 12 q 235 -134 246 -65 q 188 -202 225 -182 q 103 -216 150 -222 q 46 -195 71 -214 q 12 -140 18 -172 q 5 -74 5 -108 q 5 -70 5 -72 q 1 111 1 21 q 5 462 0 287 q 11 551 7 506 q 16 649 15 601 q 11 748 18 699 q 9 758 10 753 q 6 804 4 782 q 33 838 8 825 q 88 849 60 851 q 146 838 117 846 q 149 838 147 838 q 153 837 151 837 q 211 830 182 828 q 248 844 231 834 q 277 855 262 850 q 491 790 402 881 q 602 584 580 699 q 522 189 631 374 q 416 96 485 123 q 310 100 362 83 q 298 102 304 101 q 289 105 295 103 q 264 111 277 109 q 243 110 251 113 q 241 107 242 109 l 241 107 m 306 390 q 317 389 311 388 q 346 406 334 392 q 386 490 382 441 q 362 538 384 518 q 317 559 340 559 q 293 524 295 559 q 291 486 292 505 q 290 431 289 458 q 293 408 290 420 q 306 390 296 395 l 306 390 z "},"q":{"ha":589,"x_min":0,"x_max":555,"o":"m 326 100 q 301 100 317 103 q 269 94 286 98 q 241 89 252 90 q 144 107 189 84 q 60 230 78 151 q 88 702 0 471 q 163 807 115 767 q 284 840 212 846 q 309 836 296 838 q 361 831 335 829 q 397 849 382 835 q 419 863 408 857 q 491 871 454 879 q 538 842 519 864 q 554 800 552 824 q 553 753 555 777 q 551 733 551 743 q 541 445 551 589 q 533 296 536 370 q 528 174 530 235 q 524 54 526 114 q 525 -13 523 22 q 512 -158 534 -90 q 442 -216 492 -202 q 354 -197 393 -229 q 328 -134 330 -171 q 330 -39 324 -86 q 332 -1 331 -20 q 334 18 333 7 q 337 63 337 40 q 329 98 338 85 q 326 100 328 99 l 326 100 m 307 522 q 268 513 288 534 q 236 460 249 492 q 223 412 222 429 q 240 370 225 390 q 277 345 254 349 q 319 366 309 340 q 328 418 329 392 q 324 485 329 452 q 317 511 323 498 q 307 522 312 519 l 307 522 z "},"r":{"ha":598,"x_min":0,"x_max":564,"o":"m 6 840 q 64 878 25 877 q 136 862 102 879 q 229 839 179 836 q 269 844 249 841 q 340 850 304 852 q 543 666 495 819 q 547 530 564 600 q 443 463 530 460 q 359 523 385 471 q 353 540 356 532 q 340 570 349 556 q 319 585 332 581 q 296 582 306 589 q 284 562 288 574 q 268 406 262 486 q 268 380 268 393 q 277 258 269 319 q 283 189 281 224 q 286 163 285 176 q 289 98 290 131 q 270 38 288 65 q 178 -9 235 -7 q 68 -2 122 -16 q 35 12 50 1 q 8 76 8 35 q 16 156 8 116 q 21 202 20 182 q 26 418 25 310 q 26 486 26 452 q 16 747 32 618 q 9 773 14 759 q 2 807 5 790 q 6 840 0 825 l 6 840 z "},"s":{"ha":696,"x_min":0,"x_max":663,"o":"m 606 758 l 606 758 q 629 728 619 745 q 643 613 663 671 q 574 516 623 556 q 549 505 563 507 q 528 510 538 504 q 510 524 518 515 q 489 541 500 532 q 451 575 470 558 q 376 617 419 608 q 335 606 353 619 q 317 570 316 592 q 328 546 319 556 q 348 528 337 536 q 410 489 378 507 q 523 397 478 455 q 555 237 566 325 q 516 75 544 150 q 495 36 509 55 q 461 10 482 18 q 416 4 439 4 q 359 2 388 3 q 248 -2 303 0 q 230 -3 239 -2 q 109 9 168 -9 q 1 171 3 55 q 17 237 0 207 q 71 277 35 267 q 130 278 101 285 q 188 260 159 271 q 221 248 204 254 q 288 238 248 239 q 347 262 328 237 q 342 300 359 283 q 298 329 325 317 q 254 346 271 340 q 252 347 253 346 q 243 349 248 348 q 162 382 200 363 q 96 440 125 401 q 56 590 52 508 q 243 846 65 783 q 538 806 397 880 q 606 758 576 787 z "},"t":{"ha":605,"x_min":0,"x_max":571,"o":"m 562 273 l 562 273 q 567 206 571 241 q 439 15 550 79 q 245 -1 345 -32 q 149 89 176 26 q 125 222 121 152 q 134 306 127 264 q 142 388 139 347 q 141 403 142 395 q 134 416 140 411 q 115 421 125 422 q 93 416 104 420 q 68 411 79 411 q 35 425 50 413 q 14 452 21 437 q 5 515 0 482 q 36 586 9 555 q 104 621 63 616 q 121 620 112 621 q 150 621 136 619 q 173 633 164 623 q 183 659 181 644 q 184 688 184 673 q 184 698 184 692 q 184 776 186 736 q 184 796 184 786 q 183 894 182 845 q 183 909 183 901 q 185 946 182 928 q 203 975 189 965 q 252 983 226 987 q 328 961 292 979 q 392 871 384 933 q 379 722 399 799 q 370 671 374 695 q 370 642 366 656 q 383 628 374 633 q 401 621 391 623 q 423 618 412 618 q 459 611 443 616 q 481 584 475 605 q 493 520 488 556 q 493 455 498 484 q 461 427 488 427 q 370 416 411 427 q 324 345 328 404 q 323 317 323 331 q 326 197 319 257 q 335 166 327 180 q 352 153 341 157 q 372 154 362 149 q 383 171 382 160 q 382 191 384 181 q 382 193 382 192 q 409 312 372 258 q 487 338 441 347 q 555 290 532 328 q 562 273 559 281 z "},"u":{"ha":535,"x_min":0,"x_max":501,"o":"m 351 77 l 351 77 q 324 72 338 79 q 298 55 311 64 q 277 41 286 46 q 203 10 241 24 q 116 -9 166 -3 q 31 8 65 -16 q 5 55 11 26 q 1 109 0 83 q 7 199 3 153 q 10 254 9 227 q 15 745 23 499 q 22 802 12 775 q 66 838 37 829 q 127 841 96 847 q 227 779 189 830 q 260 667 258 728 q 257 483 264 574 q 253 361 254 422 q 257 328 252 345 q 278 304 262 311 q 310 308 295 298 q 330 333 324 317 q 336 377 337 354 q 343 725 340 551 q 346 755 343 741 q 358 782 349 770 q 397 799 374 798 q 463 772 436 800 q 486 719 481 749 q 490 659 491 689 q 486 248 488 454 q 494 77 485 162 q 479 3 501 35 q 444 -21 466 -14 q 401 -27 422 -27 q 354 -17 376 -27 q 333 16 332 -3 q 343 55 334 35 q 351 77 348 66 z "},"v":{"ha":542,"x_min":0,"x_max":508,"o":"m 309 504 q 323 554 323 526 q 334 693 329 624 q 336 704 335 699 q 345 760 336 732 q 385 803 358 791 q 445 811 412 815 q 475 803 460 809 q 499 784 490 797 q 507 757 507 772 q 506 727 508 742 q 355 68 460 391 q 334 20 349 41 q 292 -4 317 1 q 241 0 266 -9 q 193 45 207 16 q 172 107 180 74 q 165 135 169 121 q 124 275 144 205 q 20 726 56 497 q 100 844 0 827 q 177 841 136 848 q 246 810 218 834 q 288 715 283 771 q 291 631 292 673 q 304 498 288 564 q 309 504 307 500 l 309 504 z "},"w":{"ha":705,"x_min":0,"x_max":671,"o":"m 366 170 q 351 157 359 170 q 338 136 344 146 q 323 111 331 123 q 261 29 299 68 q 169 -3 223 -10 q 138 21 153 1 q 119 62 123 42 q 78 333 97 197 q 51 514 65 424 q 24 669 39 589 q 5 771 14 722 q 5 815 0 793 q 23 836 11 830 q 50 840 35 841 q 194 846 122 842 q 201 846 197 846 q 271 784 271 853 q 279 512 274 650 q 281 476 280 494 q 286 422 282 449 q 286 410 286 416 q 290 415 287 411 q 298 424 293 418 q 307 434 303 429 q 315 443 313 441 q 322 452 318 447 q 354 488 336 473 q 395 485 372 503 q 416 454 408 471 q 425 437 420 445 q 433 423 429 431 q 448 400 439 411 q 464 392 458 389 q 474 406 471 395 q 480 425 478 416 q 494 519 489 471 q 496 532 495 525 q 513 742 509 636 q 516 776 513 759 q 530 806 519 793 q 600 827 557 833 q 662 788 643 821 q 669 735 671 763 q 595 148 658 438 q 590 123 592 136 q 575 58 585 91 q 545 7 566 26 q 530 -1 538 1 q 496 5 512 -5 q 472 30 482 16 q 409 114 438 71 q 399 132 404 121 q 384 158 392 146 q 366 170 375 170 l 366 170 z "},"x":{"ha":745,"x_min":0,"x_max":711,"o":"m 359 247 q 291 154 316 210 q 269 115 281 133 q 255 92 262 103 q 205 25 233 50 q 121 5 177 0 q 46 28 83 11 q 15 50 28 35 q 9 100 0 74 q 31 147 18 126 q 35 152 33 150 q 98 253 65 204 q 174 376 139 313 q 186 469 201 431 q 133 550 171 507 q 129 555 131 552 q 61 676 79 612 q 97 806 44 741 q 128 830 110 821 q 169 835 146 840 q 211 817 195 829 q 250 771 226 804 q 261 757 254 766 q 317 682 286 727 q 357 607 349 637 q 428 688 399 642 q 504 773 458 738 q 568 794 532 793 q 631 776 603 795 q 661 707 669 745 q 629 631 652 668 q 549 513 594 569 q 537 498 543 505 q 512 465 523 481 q 498 426 500 448 q 508 381 497 401 q 532 341 518 360 q 535 338 534 340 q 537 334 536 336 q 682 115 614 227 q 674 36 711 70 q 591 6 637 10 q 580 4 585 5 q 532 7 555 -2 q 496 42 511 19 q 419 156 458 95 q 415 163 418 157 q 401 186 410 172 q 383 214 392 200 q 367 238 374 229 q 359 247 360 248 l 359 247 z "},"y":{"ha":577,"x_min":0,"x_max":543,"o":"m 336 241 q 326 242 332 242 q 298 234 311 242 q 273 216 286 227 q 245 197 259 205 q 121 184 184 164 q 46 263 68 208 q 17 479 8 368 q 26 646 19 563 q 27 665 27 655 q 36 720 28 694 q 73 758 43 745 q 216 726 154 784 q 241 670 236 702 q 245 608 247 638 q 221 397 245 501 q 230 403 222 400 q 245 409 237 406 q 256 412 253 411 q 294 457 282 429 q 313 562 313 507 q 332 667 314 616 q 401 723 354 713 q 486 699 448 734 q 518 641 511 674 q 528 574 526 608 q 528 572 528 573 q 502 146 543 357 q 443 -44 485 50 q 316 -193 400 -138 q 130 -198 225 -239 q 47 -144 81 -180 q 4 -41 8 -100 q 15 57 0 3 q 74 130 30 112 q 130 125 102 138 q 186 96 159 113 q 224 73 206 82 q 312 77 277 52 q 353 159 348 102 q 354 165 353 161 q 355 208 356 184 q 336 241 353 232 l 336 241 z "},"z":{"ha":681,"x_min":0,"x_max":647,"o":"m 363 667 q 318 674 346 677 q 264 663 291 671 q 225 650 238 655 q 138 629 183 632 q 83 653 105 629 q 67 690 71 669 q 58 758 59 724 q 62 798 56 779 q 131 845 78 838 q 234 848 184 852 q 271 847 256 847 q 541 844 406 850 q 543 844 542 844 q 585 839 563 844 q 619 817 606 834 q 631 760 633 792 q 623 699 629 728 q 618 680 621 689 q 560 503 602 588 q 490 374 529 437 q 459 330 476 353 q 410 252 429 292 q 417 252 410 252 q 433 252 423 252 q 461 253 446 252 q 489 253 477 253 q 503 253 500 253 q 614 250 559 258 q 635 230 631 246 q 640 195 640 213 q 640 182 640 189 q 638 71 647 126 q 620 24 635 45 q 575 -1 602 3 q 524 -3 549 -5 q 380 -1 452 -1 q 353 -1 367 -1 q 214 1 283 -1 q 175 0 196 1 q 109 1 142 -1 q 50 16 76 3 q 9 80 18 37 q 7 157 0 123 q 69 265 24 218 q 159 357 112 313 q 276 483 222 415 q 298 510 287 496 q 372 629 346 564 q 374 650 376 640 q 363 667 370 661 l 363 667 z "},"{":{"ha":467,"x_min":0,"x_max":433,"o":"m 345 1097 q 359 1095 352 1097 q 410 1061 387 1087 q 418 1006 433 1036 q 396 989 410 994 q 367 980 382 983 q 329 966 345 976 q 326 964 328 965 q 289 934 307 952 q 271 887 271 916 q 207 585 266 728 q 193 543 199 564 q 193 502 186 522 q 212 460 200 481 q 233 411 224 437 q 237 354 241 385 q 249 223 227 288 q 275 178 258 194 q 312 149 292 161 q 349 120 331 136 q 380 65 375 98 q 329 -21 382 2 q 223 -22 276 -44 q 121 98 152 18 q 87 248 91 170 q 87 305 85 276 q 77 420 96 365 q 44 470 66 444 q 13 512 26 490 q 1 557 0 534 q 18 599 3 581 q 49 633 32 617 q 72 657 62 645 q 132 836 136 735 q 267 1084 119 1006 q 345 1097 305 1101 l 345 1097 z "},"|":{"ha":253,"x_min":0,"x_max":219,"o":"m 45 1118 q 103 1136 71 1143 q 160 1106 135 1129 q 194 1060 186 1084 q 207 842 219 954 q 203 757 203 798 q 212 276 204 516 q 218 -2 215 137 q 164 -59 214 -50 q 68 -45 115 -67 q 7 38 14 -15 q 8 141 0 90 q 11 164 9 153 q 20 627 28 395 q 20 928 17 778 q 19 967 20 944 q 19 1050 16 1007 q 45 1118 22 1094 l 45 1118 z "},"}":{"ha":466,"x_min":0,"x_max":432,"o":"m 87 1097 l 87 1097 q 165 1084 127 1101 q 300 836 313 1006 q 360 657 296 735 q 383 633 370 645 q 415 599 401 617 q 431 557 429 581 q 419 512 432 534 q 388 470 406 490 q 355 420 366 444 q 345 305 337 365 q 345 248 347 276 q 311 98 341 170 q 209 -22 281 18 q 103 -21 156 -44 q 52 65 50 2 q 83 120 58 98 q 120 149 102 136 q 157 178 140 161 q 183 223 174 194 q 195 354 205 288 q 199 411 191 385 q 220 460 208 437 q 239 502 232 481 q 239 543 245 522 q 225 585 233 564 q 161 887 166 728 q 143 934 161 916 q 106 964 126 952 q 103 966 105 965 q 65 980 87 976 q 36 989 50 983 q 14 1006 22 994 q 23 1061 0 1036 q 73 1095 45 1087 q 87 1097 80 1097 z "},"~":{"ha":554,"x_min":0,"x_max":520,"o":"m 138 1090 q 130 1088 134 1090 q 129 1087 130 1088 q 111 1077 119 1083 q 83 1064 100 1067 q 52 1069 67 1063 q 25 1088 37 1076 q 5 1119 10 1101 q 22 1173 0 1150 q 152 1217 77 1223 q 265 1198 210 1212 q 294 1190 279 1195 q 367 1179 331 1176 q 397 1193 385 1184 q 416 1202 406 1198 q 438 1205 426 1206 q 460 1200 449 1204 q 480 1190 471 1196 q 509 1164 499 1181 q 504 1115 520 1136 q 463 1080 488 1093 q 341 1055 400 1050 q 220 1078 281 1061 q 179 1088 199 1084 q 138 1090 159 1094 l 138 1090 z "},"¡":{"ha":271,"x_min":0,"x_max":237,"o":"m 3 252 q 23 451 7 352 q 54 618 39 549 q 64 676 61 655 q 69 721 68 695 q 81 810 72 765 q 117 876 90 854 q 130 881 123 880 q 140 877 136 880 q 203 775 190 840 q 218 646 217 709 q 220 612 219 628 q 231 122 237 367 q 211 37 232 76 q 130 -6 180 -7 q 47 35 80 -4 q 7 139 14 79 q 3 252 0 199 l 3 252 m 138 1070 q 166 1068 153 1071 q 211 1019 203 1057 q 201 952 217 985 q 145 928 186 920 q 80 972 106 941 q 64 1003 69 985 q 66 1038 59 1021 q 91 1060 74 1053 q 124 1069 107 1067 q 138 1070 132 1069 l 138 1070 z "},"¢":{"ha":509,"x_min":0,"x_max":475,"o":"m 97 903 q 153 938 122 926 l 153 941 q 153 986 151 964 q 175 1023 156 1008 q 228 1043 195 1038 q 286 1034 260 1049 q 300 1017 296 1027 q 311 962 312 990 q 312 931 312 947 q 351 907 332 922 q 437 801 410 863 q 441 607 475 705 q 359 542 416 551 q 259 581 301 533 l 258 582 q 245 593 253 589 q 227 588 235 596 q 216 569 219 580 q 237 427 194 494 q 273 483 252 456 q 326 520 294 509 q 374 522 350 527 q 433 487 410 513 q 456 380 466 441 q 426 271 446 319 q 355 170 405 211 q 307 144 332 154 q 302 93 309 117 q 195 43 277 35 q 157 59 172 45 q 149 87 148 72 q 151 134 151 110 q 85 168 115 143 q 32 265 45 207 q 14 378 18 323 q 12 407 13 393 q 3 629 0 518 q 27 793 3 713 q 97 903 48 857 z "},"£":{"ha":805,"x_min":0,"x_max":771,"o":"m 566 564 l 566 564 q 580 479 589 523 q 522 425 571 435 q 505 422 514 423 q 464 414 484 421 q 429 377 437 402 q 417 325 420 351 q 416 322 416 323 q 412 298 415 313 q 402 248 406 275 q 401 198 397 220 q 425 170 405 176 q 472 179 449 165 q 610 315 562 226 q 612 318 611 317 q 633 346 620 334 q 676 342 654 360 q 714 296 697 325 q 740 247 730 267 q 743 240 741 243 q 760 127 771 186 q 687 38 741 67 q 576 1 633 9 q 111 77 328 -46 q 7 199 34 120 q 13 255 0 231 q 60 278 26 279 q 115 257 89 273 q 124 252 119 254 q 158 238 140 243 q 192 238 175 233 q 231 283 222 251 q 195 431 257 368 q 134 536 146 473 q 138 584 131 559 q 166 620 145 610 q 196 621 180 625 q 217 618 207 618 q 235 629 227 619 q 244 667 245 646 q 243 753 245 709 q 247 889 239 822 q 301 1009 255 956 q 490 1074 380 1090 q 655 932 608 1045 q 677 809 677 878 q 641 693 678 740 q 607 670 627 677 q 568 668 588 663 q 533 693 547 675 q 513 734 519 712 q 509 753 511 741 q 499 792 505 772 q 484 823 494 813 q 458 821 473 833 q 420 767 439 805 q 394 690 400 730 q 410 629 388 650 q 422 624 415 625 q 462 616 441 619 q 522 604 492 613 q 566 564 551 592 z "},"¤":{"ha":688,"x_min":0,"x_max":0,"o":""},"¥":{"ha":766,"x_min":0,"x_max":732,"o":"m 212 449 l 256 449 q 218 538 240 494 q 154 673 187 606 q 54 893 100 781 q 40 922 48 905 q 12 987 24 953 q 10 1044 0 1021 l 14 1050 q 77 1074 39 1075 q 146 1066 115 1074 q 210 1068 178 1061 q 258 1072 235 1073 q 300 1056 281 1072 q 334 993 320 1036 q 353 921 347 950 q 356 844 359 882 q 355 804 355 824 q 356 800 355 802 q 358 775 355 787 q 368 754 360 764 q 379 747 373 749 q 391 747 385 745 q 399 757 397 750 q 402 770 401 764 q 404 799 404 785 q 413 884 408 842 q 427 938 416 902 q 451 1007 437 973 q 477 1056 465 1042 q 510 1072 492 1069 q 549 1074 529 1075 q 568 1074 558 1074 l 572 1074 q 656 1074 614 1077 q 705 986 732 1061 q 651 842 684 928 q 595 699 618 756 q 568 635 582 667 q 517 505 538 572 q 504 452 510 478 q 552 433 531 448 q 590 380 577 412 q 583 322 602 348 q 558 307 572 311 q 481 294 521 294 l 479 262 q 494 262 486 262 q 552 241 527 260 q 590 189 577 221 q 583 131 602 157 q 558 115 572 120 q 485 102 523 104 q 482 58 486 80 q 455 14 477 31 q 365 -3 418 -12 q 294 49 313 6 q 286 100 288 74 q 239 104 262 101 q 152 211 150 128 q 171 248 152 234 l 171 249 q 212 258 189 259 q 298 258 255 258 q 294 292 296 275 q 239 296 266 292 q 152 402 150 319 q 171 439 152 425 l 171 440 q 212 449 189 450 z "},"¦":{"ha":688,"x_min":0,"x_max":0,"o":""},"§":{"ha":692,"x_min":0,"x_max":659,"o":"m 595 967 l 595 967 q 633 846 643 916 q 624 808 630 831 q 605 767 617 785 q 572 751 592 750 q 500 780 536 758 q 464 798 482 791 q 412 808 439 810 q 370 778 382 804 q 376 744 363 756 q 408 725 390 732 q 476 704 443 710 q 537 685 507 698 q 594 640 567 673 q 649 433 659 547 q 633 162 648 297 q 628 112 630 136 q 616 18 626 63 q 574 -70 606 -28 q 390 -168 504 -151 q 189 -119 276 -184 q 110 104 85 -31 q 175 168 121 159 q 216 159 198 170 q 250 132 233 148 q 310 94 275 107 q 367 109 336 89 q 411 156 399 128 q 392 201 424 183 q 343 206 369 209 q 342 206 342 206 q 230 208 286 204 q 113 235 167 208 q 31 347 51 275 q 43 548 0 450 q 104 633 66 596 q 119 645 112 640 q 140 664 132 654 q 145 692 148 675 q 143 709 144 701 q 137 798 134 753 q 236 968 147 906 q 498 1011 358 1036 q 568 987 535 1006 q 595 967 583 980 m 297 515 l 297 515 q 262 484 277 503 q 252 429 243 455 q 284 381 260 404 q 311 359 296 368 q 380 375 338 349 q 449 440 422 401 q 454 507 475 479 q 425 524 442 518 q 297 515 359 547 z "},"¨":{"ha":317,"x_min":0,"x_max":283,"o":"m 33 1072 q 7 1121 14 1093 q 1 1173 0 1148 q 7 1201 1 1188 q 28 1221 14 1215 q 64 1220 45 1227 q 96 1200 83 1213 q 127 1142 122 1175 q 115 1083 132 1110 q 83 1057 104 1065 q 33 1072 52 1049 l 33 1072 m 185 1072 q 159 1121 166 1093 q 153 1173 152 1148 q 160 1201 154 1188 q 180 1221 165 1215 q 216 1220 197 1227 q 248 1200 235 1213 q 279 1142 274 1175 q 267 1083 283 1110 q 235 1057 256 1065 q 185 1072 204 1049 l 185 1072 z "},"©":{"ha":1040,"x_min":0,"x_max":1006,"o":"m 575 513 l 575 513 q 618 488 602 508 q 636 409 643 454 q 614 328 629 364 q 562 254 598 284 q 446 222 511 218 q 361 252 397 222 q 322 323 332 281 q 309 408 312 366 q 307 429 309 418 q 301 593 299 511 q 319 714 301 655 q 370 795 334 761 q 460 832 406 829 q 558 799 515 832 q 623 720 602 766 q 625 577 650 649 q 564 528 606 535 q 490 557 522 522 q 490 558 490 557 q 480 566 486 564 q 467 563 473 568 q 458 549 460 557 q 475 444 442 493 q 501 485 486 465 q 540 513 516 505 q 575 513 557 517 m 404 31 q 262 55 332 33 q 39 300 87 118 q 24 659 0 477 q 92 874 32 774 q 330 1017 178 1000 q 551 1009 444 1031 q 747 907 659 988 q 878 304 1006 646 q 683 98 812 168 q 404 31 553 28 l 404 31 m 527 165 q 672 208 606 173 q 768 325 738 243 q 771 614 808 467 q 517 892 726 833 q 333 865 418 910 q 210 732 248 821 q 180 379 151 557 q 185 309 182 344 q 211 221 184 260 q 309 174 246 178 q 527 165 412 156 l 527 165 z "},"ª":{"ha":439,"x_min":0,"x_max":0,"o":""},"«":{"ha":774,"x_min":0,"x_max":741,"o":"m 665 735 q 706 719 686 739 q 712 616 741 673 q 648 526 683 560 q 608 492 629 508 q 543 426 568 465 q 559 419 545 427 q 593 399 574 411 q 629 378 613 388 q 648 366 644 368 q 695 324 673 348 q 727 271 718 300 q 730 235 732 253 q 725 183 729 216 q 708 124 721 150 q 668 102 694 98 q 626 125 647 108 q 585 161 604 142 q 562 181 573 172 q 450 281 505 229 q 429 300 441 290 q 363 370 389 331 q 372 452 336 409 q 588 680 480 566 q 611 704 600 692 q 665 735 634 729 l 665 735 m 328 735 q 370 719 350 739 q 375 616 404 673 q 311 526 347 560 q 271 492 292 508 q 207 426 231 465 q 223 419 208 427 q 257 399 237 411 q 292 378 276 388 q 312 366 308 368 q 359 324 337 348 q 391 271 381 300 q 393 235 395 253 q 388 183 393 216 q 371 124 384 150 q 332 102 358 98 q 289 125 311 108 q 249 161 268 142 q 226 181 236 172 q 114 281 169 229 q 92 300 104 290 q 26 370 53 331 q 36 452 0 409 q 252 680 144 566 q 275 704 263 692 q 328 735 298 729 l 328 735 z "},"¬":{"ha":688,"x_min":0,"x_max":0,"o":""},"®":{"ha":524,"x_min":0,"x_max":490,"o":"m 252 795 l 252 795 q 287 742 273 772 q 297 682 300 712 q 291 673 296 675 q 281 673 286 672 q 276 673 278 673 q 273 673 275 673 q 259 672 267 672 q 243 673 250 672 q 235 679 237 675 q 227 744 230 711 q 224 752 226 751 q 222 752 223 754 q 219 746 220 750 q 218 738 218 742 q 220 713 219 726 q 221 700 220 707 q 222 686 221 692 q 221 675 223 677 q 211 673 218 673 q 209 673 210 673 q 174 673 191 671 q 170 673 172 673 q 166 675 168 674 q 159 692 160 682 q 157 711 157 702 q 157 713 157 712 q 157 751 157 732 q 157 760 157 756 q 157 792 157 777 q 157 853 157 823 q 154 921 157 887 q 150 956 153 939 q 149 959 150 958 q 149 968 149 964 q 155 976 149 973 q 169 977 161 979 q 227 972 198 970 q 257 972 243 974 q 283 959 271 970 q 307 911 303 939 q 302 858 311 883 q 252 795 286 819 q 252 795 252 795 m 231 845 l 231 845 q 239 848 234 842 q 246 865 244 854 q 248 884 248 876 q 245 893 248 886 q 240 907 243 900 q 233 917 237 914 q 227 916 229 920 q 225 908 225 912 q 225 900 225 904 q 226 894 226 897 q 226 891 226 892 q 225 876 225 884 q 225 866 224 873 q 227 853 225 860 q 231 845 228 847 m 197 583 q 127 595 161 584 q 19 714 42 625 q 12 889 0 800 q 44 994 15 946 q 161 1064 86 1056 q 364 1010 275 1083 q 428 716 490 883 q 333 616 396 650 q 197 583 269 582 l 197 583 m 256 648 q 327 669 295 652 q 374 726 359 686 q 376 867 394 795 q 252 1003 354 975 q 162 990 203 1012 q 102 925 121 968 q 87 753 73 840 q 90 718 89 736 q 102 675 90 694 q 151 653 119 654 q 256 648 201 644 l 256 648 z "},"¯":{"ha":454,"x_min":0,"x_max":0,"o":""},"°":{"ha":332,"x_min":0,"x_max":298,"o":"m 136 836 q 15 913 44 829 q 7 1023 0 967 q 30 1088 12 1059 q 102 1126 56 1124 q 223 1089 170 1131 q 279 1014 260 1059 q 281 921 298 968 q 225 859 264 880 q 143 836 186 838 q 136 836 140 836 l 136 836 m 148 917 q 174 918 161 915 q 213 940 197 923 q 234 979 230 956 q 216 1024 237 1008 q 168 1037 196 1039 q 123 1022 144 1034 q 102 1009 111 1017 q 87 989 92 1001 q 98 945 82 965 q 148 917 118 922 l 148 917 z "},"±":{"ha":740,"x_min":1,"x_max":706,"o":"m 466 550 q 463 517 461 534 q 464 508 464 513 q 461 465 465 486 q 458 429 459 447 q 466 338 458 383 q 469 323 467 331 q 471 250 479 286 q 404 201 454 208 q 315 208 353 195 q 274 266 279 224 q 274 341 269 307 q 286 447 279 394 q 287 458 286 452 q 290 475 288 465 q 296 518 294 496 q 286 551 297 540 q 231 571 267 567 q 157 576 196 576 q 98 580 125 577 q 62 593 78 581 q 45 627 49 606 q 45 628 45 627 q 30 712 33 665 q 62 784 26 760 q 104 793 79 793 q 157 791 130 793 q 232 791 198 787 q 279 823 266 795 q 283 871 286 847 q 279 920 281 895 q 279 1048 272 985 q 310 1079 285 1074 q 363 1078 336 1084 q 405 1059 391 1071 q 442 989 433 1030 q 452 908 452 947 q 452 886 452 899 q 455 823 450 854 q 490 785 461 792 q 523 785 507 783 q 530 786 527 785 q 607 781 569 789 q 656 757 636 777 q 664 645 690 708 q 587 561 637 581 q 534 561 561 555 q 502 564 517 564 q 501 564 502 564 q 486 563 494 564 q 471 557 477 562 q 466 550 468 554 l 466 550 m 649 171 q 703 49 706 135 q 675 3 701 14 q 616 -5 650 -8 q 372 2 494 2 q 296 3 334 2 q 107 24 202 -1 q 1 157 12 48 q 4 176 1 166 q 20 189 9 185 q 43 191 31 192 q 354 177 198 176 q 475 184 415 178 q 560 190 518 188 q 649 171 615 192 l 649 171 z "},"²":{"ha":688,"x_min":0,"x_max":0,"o":""},"³":{"ha":688,"x_min":0,"x_max":0,"o":""},"´":{"ha":279,"x_min":0,"x_max":245,"o":"m 245 1341 q 241 1321 245 1335 q 232 1294 237 1308 q 224 1274 227 1280 q 200 1222 212 1249 q 155 1126 178 1174 q 124 1077 143 1099 q 73 1055 106 1056 q 31 1063 52 1055 q 3 1092 10 1071 q 9 1126 0 1109 q 36 1183 24 1154 q 54 1221 45 1202 q 64 1246 58 1230 q 96 1316 77 1280 q 134 1362 114 1352 q 172 1369 146 1367 q 219 1366 197 1371 q 245 1345 241 1361 q 245 1341 245 1343 l 245 1341 z "},"µ":{"ha":800,"x_min":0,"x_max":0,"o":""},"¶":{"ha":694,"x_min":0,"x_max":0,"o":""},"·":{"ha":222,"x_min":0,"x_max":189,"o":"m 2 446 q 11 493 3 471 q 35 532 18 516 q 84 549 56 549 q 166 486 143 542 q 159 381 189 431 q 157 379 158 380 q 100 346 136 351 q 53 348 77 342 q 16 375 29 355 q 2 446 0 407 l 2 446 z "},"∙":{"ha":222,"x_min":0,"x_max":189,"o":"m 2 446 q 11 493 3 471 q 35 532 18 516 q 84 549 56 549 q 166 486 143 542 q 159 381 189 431 q 157 379 158 380 q 100 346 136 351 q 53 348 77 342 q 16 375 29 355 q 2 446 0 407 l 2 446 z "},"¸":{"ha":240,"x_min":0,"x_max":206,"o":"m 115 -41 q 104 -34 112 -37 q 102 -33 104 -33 q 63 -13 81 -26 q 44 43 39 9 q 64 70 48 64 q 100 71 80 75 q 134 61 119 67 q 203 -38 206 37 q 190 -110 203 -75 q 111 -186 163 -161 q 97 -196 105 -190 q 57 -219 79 -209 q 20 -222 35 -230 q 6 -187 0 -208 q 28 -146 12 -165 q 55 -117 44 -126 q 76 -98 65 -107 q 96 -80 86 -89 q 114 -60 106 -71 q 115 -41 122 -50 l 115 -41 z "},"¹":{"ha":688,"x_min":0,"x_max":0,"o":""},"º":{"ha":487,"x_min":0,"x_max":0,"o":""},"»":{"ha":774,"x_min":0,"x_max":740,"o":"m 75 735 l 75 735 q 129 704 106 729 q 241 585 185 644 q 368 452 304 518 q 377 370 404 409 q 311 300 351 331 q 290 281 299 290 q 178 181 235 229 q 155 161 168 172 q 114 125 136 142 q 72 102 93 108 q 33 124 45 98 q 15 183 20 150 q 10 235 11 216 q 13 271 9 253 q 44 324 22 300 q 92 366 66 348 q 112 378 96 368 q 147 399 127 388 q 181 419 166 411 q 197 426 195 427 q 133 492 172 465 q 93 526 111 508 q 28 616 57 560 q 35 719 0 673 q 75 735 54 739 m 412 735 l 412 735 q 466 704 443 729 q 578 585 522 644 q 704 452 642 518 q 713 370 740 409 q 648 300 687 331 q 626 281 636 290 q 514 181 572 229 q 492 161 504 172 q 451 125 473 142 q 409 102 429 108 q 369 124 382 98 q 352 183 356 150 q 347 235 347 216 q 349 271 345 253 q 381 324 359 300 q 429 366 404 348 q 448 378 432 368 q 483 399 464 388 q 517 419 503 411 q 534 426 532 427 q 469 492 509 465 q 429 526 448 508 q 365 616 393 560 q 371 719 336 673 q 412 735 390 739 z "},"¼":{"ha":1158,"x_min":0,"x_max":0,"o":""},"½":{"ha":1332,"x_min":0,"x_max":0,"o":""},"¾":{"ha":1158,"x_min":0,"x_max":0,"o":""},"¿":{"ha":465,"x_min":-22,"x_max":408,"o":"m 144 749 q 163 840 151 795 q 204 880 175 873 q 260 867 233 887 q 296 808 288 844 q 306 737 304 772 q 310 699 307 719 q 315 629 314 664 q 302 564 315 594 q 244 497 280 524 q 208 463 225 481 q 223 225 117 339 q 242 218 233 216 q 254 235 252 220 q 252 275 254 254 q 253 347 245 315 q 306 385 260 380 q 361 377 334 387 q 399 338 389 368 q 406 262 408 304 q 398 182 404 220 q 396 165 397 173 q 359 47 391 100 q 292 -1 333 10 q 210 3 251 -12 q 91 103 143 33 q 15 242 39 173 q 48 488 -22 372 q 144 749 120 610 l 144 749 m 222 1069 q 250 1067 236 1069 q 294 1018 287 1056 q 285 951 300 983 q 229 926 269 918 q 163 970 190 939 q 148 1002 153 984 q 150 1036 142 1019 q 174 1059 158 1053 q 208 1067 191 1065 q 222 1069 215 1068 l 222 1069 z "},"À":{"ha":724,"x_min":0,"x_max":690,"o":"m 689 96 l 689 96 q 659 21 687 51 q 592 -9 631 -3 q 519 -9 554 -14 q 473 6 494 -7 q 443 55 448 26 q 438 117 437 85 q 435 165 438 143 q 420 194 431 191 q 393 193 409 197 q 371 189 382 191 q 323 189 347 188 q 304 190 313 190 q 276 187 286 191 q 262 163 267 182 q 264 98 256 131 q 269 56 269 76 q 265 31 270 43 q 206 -1 250 5 q 117 -3 163 -7 q 45 8 71 2 q 12 24 26 11 q 2 46 3 33 q 1 71 0 58 q 4 218 3 144 q 16 519 5 369 q 50 746 23 629 q 142 952 77 863 q 328 1069 217 1048 q 525 992 439 1089 q 622 786 594 901 q 659 559 650 671 q 683 211 676 386 q 686 174 684 194 q 689 96 690 135 m 381 472 l 381 472 q 421 520 416 482 q 415 605 426 558 q 391 690 404 652 q 383 715 387 705 q 372 737 380 728 q 346 741 359 749 q 323 715 333 732 q 310 689 313 699 q 298 660 305 677 q 266 564 277 615 q 294 486 255 512 q 348 471 319 474 q 381 472 368 469 m 182 1374 l 182 1374 q 182 1377 182 1376 q 209 1399 186 1394 q 256 1401 231 1404 q 294 1395 281 1399 q 332 1349 313 1385 q 363 1279 351 1312 q 374 1253 370 1263 q 391 1216 383 1235 q 418 1158 404 1187 q 425 1124 428 1142 q 396 1096 418 1103 q 355 1088 375 1088 q 303 1110 322 1088 q 272 1159 284 1131 q 228 1255 250 1207 q 203 1308 216 1281 q 196 1326 201 1313 q 186 1354 191 1340 q 182 1374 182 1368 z "},"Á":{"ha":724,"x_min":0,"x_max":690,"o":"m 689 96 l 689 96 q 659 21 687 51 q 592 -9 631 -3 q 519 -9 554 -14 q 473 6 494 -7 q 443 55 448 26 q 438 117 437 85 q 435 165 438 143 q 420 194 431 191 q 393 193 409 197 q 371 189 382 191 q 323 189 347 188 q 304 190 313 190 q 276 187 286 191 q 262 163 267 182 q 264 98 256 131 q 269 56 269 76 q 265 31 270 43 q 206 -1 250 5 q 117 -3 163 -7 q 45 8 71 2 q 12 24 26 11 q 2 46 3 33 q 1 71 0 58 q 4 218 3 144 q 16 519 5 369 q 50 746 23 629 q 142 952 77 863 q 328 1069 217 1048 q 525 992 439 1089 q 622 786 594 901 q 659 559 650 671 q 683 211 676 386 q 686 174 684 194 q 689 96 690 135 m 381 472 l 381 472 q 421 520 416 482 q 415 605 426 558 q 391 690 404 652 q 383 715 387 705 q 372 737 380 728 q 346 741 359 749 q 323 715 333 732 q 310 689 313 699 q 298 660 305 677 q 266 564 277 615 q 294 486 255 512 q 348 471 319 474 q 381 472 368 469 m 425 1374 q 421 1354 425 1368 q 412 1326 417 1340 q 404 1308 407 1313 q 380 1255 392 1281 q 336 1159 358 1207 q 304 1110 323 1131 q 253 1088 286 1088 q 211 1096 233 1088 q 183 1124 190 1103 q 189 1158 180 1142 q 216 1216 203 1187 q 233 1253 224 1235 q 244 1279 238 1263 q 276 1349 257 1312 q 314 1395 294 1385 q 351 1401 326 1399 q 399 1399 376 1404 q 425 1377 421 1394 q 425 1374 425 1376 l 425 1374 z "},"Â":{"ha":724,"x_min":0,"x_max":690,"o":"m 689 96 l 689 96 q 659 21 687 51 q 592 -9 631 -3 q 519 -9 554 -14 q 473 6 494 -7 q 443 55 448 26 q 438 117 437 85 q 435 165 438 143 q 420 194 431 191 q 393 193 409 197 q 371 189 382 191 q 323 189 347 188 q 304 190 313 190 q 276 187 286 191 q 262 163 267 182 q 264 98 256 131 q 269 56 269 76 q 265 31 270 43 q 206 -1 250 5 q 117 -3 163 -7 q 45 8 71 2 q 12 24 26 11 q 2 46 3 33 q 1 71 0 58 q 4 218 3 144 q 16 519 5 369 q 50 746 23 629 q 142 952 77 863 q 328 1069 217 1048 q 525 992 439 1089 q 622 786 594 901 q 659 559 650 671 q 683 211 676 386 q 686 174 684 194 q 689 96 690 135 m 381 472 l 381 472 q 421 520 416 482 q 415 605 426 558 q 391 690 404 652 q 383 715 387 705 q 372 737 380 728 q 346 741 359 749 q 323 715 333 732 q 310 689 313 699 q 298 660 305 677 q 266 564 277 615 q 294 486 255 512 q 348 471 319 474 q 381 472 368 469 m 528 1118 q 485 1090 516 1095 q 431 1085 454 1084 q 402 1088 416 1084 q 380 1105 389 1092 q 366 1139 371 1121 q 363 1149 365 1144 q 361 1153 362 1151 q 354 1175 359 1162 q 342 1197 349 1189 q 327 1195 335 1204 q 311 1150 314 1175 q 302 1120 307 1135 q 276 1097 293 1101 q 241 1095 260 1092 q 227 1097 235 1097 q 197 1103 212 1099 q 172 1116 182 1107 q 165 1142 160 1128 q 179 1169 170 1157 q 182 1174 180 1172 q 261 1305 222 1238 q 294 1362 277 1333 q 298 1373 296 1367 q 308 1390 302 1381 q 321 1402 313 1399 q 352 1397 338 1409 q 378 1367 367 1385 q 397 1332 390 1348 q 401 1324 399 1328 q 480 1204 435 1262 q 512 1160 496 1182 q 517 1154 514 1157 q 527 1137 523 1145 q 528 1118 531 1128 l 528 1118 z "},"Ã":{"ha":724,"x_min":0,"x_max":690,"o":"m 689 96 l 689 96 q 659 21 687 51 q 592 -9 631 -3 q 519 -9 554 -14 q 473 6 494 -7 q 443 55 448 26 q 438 117 437 85 q 435 165 438 143 q 420 194 431 191 q 393 193 409 197 q 371 189 382 191 q 323 189 347 188 q 304 190 313 190 q 276 187 286 191 q 262 163 267 182 q 264 98 256 131 q 269 56 269 76 q 265 31 270 43 q 206 -1 250 5 q 117 -3 163 -7 q 45 8 71 2 q 12 24 26 11 q 2 46 3 33 q 1 71 0 58 q 4 218 3 144 q 16 519 5 369 q 50 746 23 629 q 142 952 77 863 q 328 1069 217 1048 q 525 992 439 1089 q 622 786 594 901 q 659 559 650 671 q 683 211 676 386 q 686 174 684 194 q 689 96 690 135 m 381 472 l 381 472 q 421 520 416 482 q 415 605 426 558 q 391 690 404 652 q 383 715 387 705 q 372 737 380 728 q 346 741 359 749 q 323 715 333 732 q 310 689 313 699 q 298 660 305 677 q 266 564 277 615 q 294 486 255 512 q 348 471 319 474 q 381 472 368 469 m 227 1120 q 218 1118 222 1120 q 216 1118 217 1118 q 199 1107 206 1113 q 170 1094 187 1097 q 139 1100 155 1093 q 113 1118 124 1107 q 93 1149 98 1131 q 110 1202 87 1180 q 239 1247 165 1254 q 353 1229 297 1242 q 382 1221 367 1225 q 454 1210 418 1206 q 485 1223 472 1215 q 504 1232 494 1228 q 526 1236 513 1236 q 548 1231 536 1235 q 568 1221 559 1226 q 596 1195 587 1211 q 592 1145 608 1166 q 550 1111 576 1124 q 428 1086 488 1080 q 307 1109 369 1091 q 267 1119 287 1114 q 227 1120 246 1124 l 227 1120 z "},"Ä":{"ha":724,"x_min":0,"x_max":690,"o":"m 689 96 l 689 96 q 659 21 687 51 q 592 -9 631 -3 q 519 -9 554 -14 q 473 6 494 -7 q 443 55 448 26 q 438 117 437 85 q 435 165 438 143 q 420 194 431 191 q 393 193 409 197 q 371 189 382 191 q 323 189 347 188 q 304 190 313 190 q 276 187 286 191 q 262 163 267 182 q 264 98 256 131 q 269 56 269 76 q 265 31 270 43 q 206 -1 250 5 q 117 -3 163 -7 q 45 8 71 2 q 12 24 26 11 q 2 46 3 33 q 1 71 0 58 q 4 218 3 144 q 16 519 5 369 q 50 746 23 629 q 142 952 77 863 q 328 1069 217 1048 q 525 992 439 1089 q 622 786 594 901 q 659 559 650 671 q 683 211 676 386 q 686 174 684 194 q 689 96 690 135 m 381 472 l 381 472 q 421 520 416 482 q 415 605 426 558 q 391 690 404 652 q 383 715 387 705 q 372 737 380 728 q 346 741 359 749 q 323 715 333 732 q 310 689 313 699 q 298 660 305 677 q 266 564 277 615 q 294 486 255 512 q 348 471 319 474 q 381 472 368 469 m 195 1111 q 169 1160 176 1133 q 163 1213 161 1187 q 169 1241 163 1227 q 190 1261 175 1255 q 225 1259 207 1266 q 258 1240 244 1253 q 288 1182 283 1214 q 276 1122 293 1150 q 245 1097 266 1105 q 195 1111 213 1088 l 195 1111 m 435 1111 q 409 1160 416 1133 q 403 1213 401 1187 q 409 1241 403 1227 q 430 1261 415 1255 q 466 1259 447 1266 q 498 1240 484 1253 q 528 1182 524 1214 q 517 1122 533 1150 q 485 1097 506 1105 q 435 1111 454 1088 l 435 1111 z "},"Å":{"ha":724,"x_min":0,"x_max":690,"o":"m 689 96 l 689 96 q 659 21 687 51 q 592 -9 631 -3 q 519 -9 554 -14 q 473 6 494 -7 q 443 55 448 26 q 438 117 437 85 q 435 165 438 143 q 420 194 431 191 q 393 193 409 197 q 371 189 382 191 q 323 189 347 188 q 304 190 313 190 q 276 187 286 191 q 262 163 267 182 q 264 98 256 131 q 269 56 269 76 q 265 31 270 43 q 206 -1 250 5 q 117 -3 163 -7 q 45 8 71 2 q 12 24 26 11 q 2 46 3 33 q 1 71 0 58 q 4 218 3 144 q 16 519 5 369 q 50 746 23 629 q 142 952 77 863 q 328 1069 217 1048 q 525 992 439 1089 q 622 786 594 901 q 659 559 650 671 q 683 211 676 386 q 686 174 684 194 q 689 96 690 135 m 381 472 l 381 472 q 421 520 416 482 q 415 605 426 558 q 391 690 404 652 q 383 715 387 705 q 372 737 380 728 q 346 741 359 749 q 323 715 333 732 q 310 689 313 699 q 298 660 305 677 q 266 564 277 615 q 294 486 255 512 q 348 471 319 474 q 381 472 368 469 m 474 1246 l 474 1246 q 474 1240 474 1243 q 464 1187 473 1213 q 398 1113 444 1138 q 302 1105 353 1088 q 237 1173 254 1125 q 227 1239 227 1203 q 233 1305 227 1274 q 269 1377 241 1348 q 342 1402 296 1406 q 434 1347 398 1393 q 474 1246 471 1301 m 349 1181 l 349 1181 q 362 1189 356 1183 q 380 1219 376 1201 q 379 1257 385 1238 q 368 1277 376 1269 q 347 1283 359 1285 q 334 1274 339 1280 q 314 1244 321 1261 q 306 1209 306 1226 q 320 1184 307 1191 q 349 1181 333 1177 z "},"Æ":{"ha":1099,"x_min":0,"x_max":1065,"o":"m 1063 91 l 1063 91 q 974 -3 1065 -2 q 828 -1 901 -7 q 679 1 753 5 q 631 -3 655 -1 q 528 -8 579 -12 q 481 7 502 -6 q 450 57 456 27 q 445 120 444 87 q 442 170 446 147 q 427 198 437 195 q 399 197 416 202 q 377 194 389 195 q 328 194 353 193 q 309 195 319 194 q 281 191 290 195 q 266 167 271 186 q 269 100 260 134 q 273 58 273 79 q 269 33 274 45 q 209 0 253 6 q 118 -1 165 -6 q 46 9 71 3 q 11 25 25 12 q 2 48 3 35 q 1 73 0 60 q 3 223 3 148 q 15 530 4 376 q 50 760 22 641 q 143 970 78 879 q 334 1089 220 1068 q 534 1010 447 1109 q 570 957 554 985 q 572 1023 571 992 q 572 1030 572 1026 q 575 1060 572 1044 q 589 1084 578 1075 q 612 1091 598 1091 q 642 1088 627 1090 q 664 1086 654 1086 q 819 1086 741 1086 q 895 1086 857 1086 q 967 1075 943 1088 q 994 1011 991 1061 q 996 988 996 1000 q 996 898 1004 939 q 936 843 988 857 q 904 840 924 840 q 864 840 884 840 q 823 840 838 841 q 811 840 817 840 q 789 836 798 840 q 777 812 781 831 q 768 654 762 735 q 768 654 768 654 q 768 648 768 650 q 772 644 769 645 q 789 639 779 640 q 809 639 799 638 q 825 639 819 640 q 898 623 864 636 q 977 549 952 601 q 992 469 998 503 q 932 430 987 435 q 865 431 901 429 q 762 429 812 437 q 768 411 765 424 q 774 384 771 397 q 777 370 776 376 q 780 361 779 363 q 851 288 808 301 q 950 290 895 275 q 964 293 958 291 q 998 298 981 300 q 1007 296 1003 298 q 1014 292 1010 295 q 1023 277 1021 285 q 1028 260 1026 269 q 1028 259 1028 260 q 1038 218 1033 239 q 1063 91 1057 155 m 387 481 l 387 481 q 428 530 423 492 q 421 617 433 569 q 397 703 410 665 q 389 729 393 718 q 378 751 387 742 q 352 754 365 764 q 328 729 338 745 q 315 703 318 713 q 302 673 310 690 q 270 574 281 627 q 299 496 259 522 q 353 481 325 484 q 387 481 373 478 z "},"Ç":{"ha":619,"x_min":0,"x_max":585,"o":"m 289 -5 q 109 47 182 -20 q 45 174 61 101 q 24 321 29 248 q 20 360 22 341 q 36 755 0 559 q 94 933 51 846 q 227 1059 136 1021 q 345 1074 281 1078 q 461 1046 410 1069 q 560 964 524 1020 q 579 854 585 912 q 551 726 576 795 q 466 633 526 656 q 444 633 454 630 q 427 646 433 636 q 423 666 422 655 q 424 701 422 683 q 420 771 427 736 q 412 788 417 780 q 399 800 408 795 q 383 801 391 802 q 367 796 374 800 q 281 717 302 770 q 258 599 260 663 q 272 315 253 456 q 278 279 273 296 q 295 248 283 261 q 338 235 319 224 q 371 275 357 247 q 395 331 385 304 q 408 362 403 351 q 461 406 427 395 q 530 397 496 416 q 554 375 543 389 q 568 347 565 361 q 561 316 570 330 q 553 304 557 311 q 543 289 547 297 q 517 227 527 259 l 509 198 q 471 100 497 146 q 398 33 441 58 q 448 -58 450 6 q 435 -130 447 -96 q 356 -207 408 -181 q 341 -216 350 -211 q 301 -240 323 -229 q 264 -243 279 -250 q 251 -207 245 -229 q 273 -166 256 -186 q 300 -137 289 -146 q 320 -119 310 -127 q 340 -100 330 -109 q 359 -81 351 -92 q 359 -61 367 -70 q 349 -54 357 -57 q 347 -54 348 -54 q 307 -33 326 -46 q 289 -5 294 -20 z "},"È":{"ha":522,"x_min":0,"x_max":488,"o":"m 439 286 l 439 286 q 448 271 445 279 q 452 254 451 264 q 453 254 453 254 q 463 214 458 234 q 487 88 481 151 q 399 -5 488 -3 q 189 2 294 -12 q 161 5 176 3 q 107 13 134 6 q 60 41 81 19 q 18 127 25 82 q 14 225 12 172 q 15 288 16 255 q 10 457 13 364 q 3 750 5 602 q 5 1004 0 898 q 15 1057 7 1042 q 35 1071 22 1071 q 61 1067 47 1072 q 98 1063 80 1061 q 236 1067 161 1073 q 348 1067 298 1063 q 399 1054 376 1073 q 415 1027 411 1043 q 420 993 418 1010 q 422 970 420 981 q 421 882 429 922 q 361 827 414 841 q 331 824 350 825 q 291 825 311 824 q 251 825 266 825 q 239 824 245 824 q 218 820 227 825 q 205 797 210 816 q 197 642 191 722 q 197 642 197 642 q 197 635 197 638 q 201 631 198 633 q 218 627 208 627 q 237 627 228 626 q 253 627 247 627 q 325 610 292 624 q 403 538 378 589 q 417 460 422 494 q 359 421 412 426 q 292 423 327 420 q 191 421 240 429 q 197 402 194 415 q 203 376 200 389 q 206 362 205 368 q 209 353 208 356 q 279 282 237 295 q 376 283 321 269 q 390 287 384 285 q 422 292 406 293 q 432 290 428 292 q 439 286 435 288 m 60 1374 l 60 1374 q 60 1377 60 1376 q 86 1399 64 1394 q 134 1401 109 1404 q 172 1395 159 1399 q 210 1349 191 1385 q 241 1279 228 1312 q 252 1253 248 1263 q 269 1216 260 1235 q 296 1158 281 1187 q 302 1124 305 1142 q 274 1096 295 1103 q 233 1088 253 1088 q 181 1110 199 1088 q 150 1159 162 1131 q 105 1255 127 1207 q 81 1308 93 1281 q 74 1326 79 1313 q 64 1354 68 1340 q 60 1374 60 1368 z "},"É":{"ha":522,"x_min":0,"x_max":488,"o":"m 439 286 l 439 286 q 448 271 445 279 q 452 254 451 264 q 453 254 453 254 q 463 214 458 234 q 487 88 481 151 q 399 -5 488 -3 q 189 2 294 -12 q 161 5 176 3 q 107 13 134 6 q 60 41 81 19 q 18 127 25 82 q 14 225 12 172 q 15 288 16 255 q 10 457 13 364 q 3 750 5 602 q 5 1004 0 898 q 15 1057 7 1042 q 35 1071 22 1071 q 61 1067 47 1072 q 98 1063 80 1061 q 236 1067 161 1073 q 348 1067 298 1063 q 399 1054 376 1073 q 415 1027 411 1043 q 420 993 418 1010 q 422 970 420 981 q 421 882 429 922 q 361 827 414 841 q 331 824 350 825 q 291 825 311 824 q 251 825 266 825 q 239 824 245 824 q 218 820 227 825 q 205 797 210 816 q 197 642 191 722 q 197 642 197 642 q 197 635 197 638 q 201 631 198 633 q 218 627 208 627 q 237 627 228 626 q 253 627 247 627 q 325 610 292 624 q 403 538 378 589 q 417 460 422 494 q 359 421 412 426 q 292 423 327 420 q 191 421 240 429 q 197 402 194 415 q 203 376 200 389 q 206 362 205 368 q 209 353 208 356 q 279 282 237 295 q 376 283 321 269 q 390 287 384 285 q 422 292 406 293 q 432 290 428 292 q 439 286 435 288 m 303 1374 q 299 1354 303 1368 q 290 1326 294 1340 q 282 1308 285 1313 q 258 1255 270 1281 q 213 1159 235 1207 q 182 1110 201 1131 q 131 1088 163 1088 q 89 1096 111 1088 q 61 1124 68 1103 q 67 1158 58 1142 q 94 1216 81 1187 q 111 1253 102 1235 q 122 1279 115 1263 q 153 1349 135 1312 q 191 1395 172 1385 q 229 1401 204 1399 q 277 1399 254 1404 q 302 1377 299 1394 q 303 1374 303 1376 l 303 1374 z "},"Ê":{"ha":522,"x_min":0,"x_max":488,"o":"m 439 286 l 439 286 q 448 271 445 279 q 452 254 451 264 q 453 254 453 254 q 463 214 458 234 q 487 88 481 151 q 399 -5 488 -3 q 189 2 294 -12 q 161 5 176 3 q 107 13 134 6 q 60 41 81 19 q 18 127 25 82 q 14 225 12 172 q 15 288 16 255 q 10 457 13 364 q 3 750 5 602 q 5 1004 0 898 q 15 1057 7 1042 q 35 1071 22 1071 q 61 1067 47 1072 q 98 1063 80 1061 q 236 1067 161 1073 q 348 1067 298 1063 q 399 1054 376 1073 q 415 1027 411 1043 q 420 993 418 1010 q 422 970 420 981 q 421 882 429 922 q 361 827 414 841 q 331 824 350 825 q 291 825 311 824 q 251 825 266 825 q 239 824 245 824 q 218 820 227 825 q 205 797 210 816 q 197 642 191 722 q 197 642 197 642 q 197 635 197 638 q 201 631 198 633 q 218 627 208 627 q 237 627 228 626 q 253 627 247 627 q 325 610 292 624 q 403 538 378 589 q 417 460 422 494 q 359 421 412 426 q 292 423 327 420 q 191 421 240 429 q 197 402 194 415 q 203 376 200 389 q 206 362 205 368 q 209 353 208 356 q 279 282 237 295 q 376 283 321 269 q 390 287 384 285 q 422 292 406 293 q 432 290 428 292 q 439 286 435 288 m 401 1118 q 359 1090 390 1095 q 305 1085 328 1084 q 276 1088 290 1084 q 254 1105 262 1092 q 240 1139 245 1121 q 237 1149 239 1144 q 235 1153 237 1151 q 228 1175 233 1162 q 216 1197 222 1189 q 201 1195 209 1204 q 184 1150 188 1175 q 176 1120 181 1135 q 150 1097 167 1101 q 115 1095 134 1092 q 101 1097 109 1097 q 72 1103 86 1099 q 46 1116 57 1107 q 39 1142 34 1128 q 53 1169 44 1157 q 56 1174 54 1172 q 135 1305 96 1238 q 168 1362 152 1333 q 172 1373 170 1367 q 181 1390 176 1381 q 195 1402 186 1399 q 226 1397 212 1409 q 252 1367 241 1385 q 271 1332 264 1348 q 275 1324 273 1328 q 354 1204 309 1262 q 386 1160 370 1182 q 391 1154 388 1157 q 401 1137 397 1145 q 401 1118 405 1128 l 401 1118 z "},"Ë":{"ha":522,"x_min":0,"x_max":488,"o":"m 439 286 l 439 286 q 448 271 445 279 q 452 254 451 264 q 453 254 453 254 q 463 214 458 234 q 487 88 481 151 q 399 -5 488 -3 q 189 2 294 -12 q 161 5 176 3 q 107 13 134 6 q 60 41 81 19 q 18 127 25 82 q 14 225 12 172 q 15 288 16 255 q 10 457 13 364 q 3 750 5 602 q 5 1004 0 898 q 15 1057 7 1042 q 35 1071 22 1071 q 61 1067 47 1072 q 98 1063 80 1061 q 236 1067 161 1073 q 348 1067 298 1063 q 399 1054 376 1073 q 415 1027 411 1043 q 420 993 418 1010 q 422 970 420 981 q 421 882 429 922 q 361 827 414 841 q 331 824 350 825 q 291 825 311 824 q 251 825 266 825 q 239 824 245 824 q 218 820 227 825 q 205 797 210 816 q 197 642 191 722 q 197 642 197 642 q 197 635 197 638 q 201 631 198 633 q 218 627 208 627 q 237 627 228 626 q 253 627 247 627 q 325 610 292 624 q 403 538 378 589 q 417 460 422 494 q 359 421 412 426 q 292 423 327 420 q 191 421 240 429 q 197 402 194 415 q 203 376 200 389 q 206 362 205 368 q 209 353 208 356 q 279 282 237 295 q 376 283 321 269 q 390 287 384 285 q 422 292 406 293 q 432 290 428 292 q 439 286 435 288 m 55 1111 q 30 1160 37 1133 q 23 1213 22 1187 q 30 1241 24 1227 q 51 1261 36 1255 q 86 1259 68 1266 q 118 1240 104 1253 q 149 1182 144 1214 q 137 1122 154 1150 q 106 1097 127 1105 q 55 1111 74 1088 l 55 1111 m 295 1111 q 270 1160 277 1133 q 264 1213 262 1187 q 270 1241 264 1227 q 291 1261 276 1255 q 326 1259 308 1266 q 358 1240 345 1253 q 389 1182 384 1214 q 377 1122 394 1150 q 346 1097 367 1105 q 295 1111 314 1088 l 295 1111 z "},"Ì":{"ha":275,"x_min":-52,"x_max":241,"o":"m 237 230 l 237 230 q 239 94 241 161 q 226 36 239 62 q 171 2 208 7 q 98 0 134 -3 q 82 1 90 0 q 45 7 63 0 q 18 37 26 16 q 10 79 11 58 q 5 567 2 323 q 5 585 5 576 q 5 843 6 714 q 3 970 4 907 q 2 985 2 977 q 2 1024 0 1004 q 17 1057 3 1043 q 111 1073 54 1086 q 195 1023 169 1059 q 207 987 205 1006 q 208 949 208 968 q 222 473 208 711 q 223 441 222 457 q 231 328 226 385 q 237 230 235 279 m -52 1379 l -52 1379 q -52 1383 -52 1381 q -25 1404 -47 1400 q 22 1407 -3 1409 q 60 1400 47 1405 q 98 1354 79 1391 q 130 1284 117 1318 q 140 1259 136 1268 q 157 1221 149 1240 q 184 1164 170 1192 q 191 1131 194 1148 q 162 1101 184 1109 q 121 1093 141 1093 q 69 1116 88 1095 q 38 1165 50 1137 q -6 1261 16 1213 q -31 1313 -18 1287 q -38 1332 -33 1318 q -47 1360 -43 1346 q -52 1379 -52 1374 z "},"Í":{"ha":275,"x_min":-54,"x_max":241,"o":"m 237 230 l 237 230 q 239 94 241 161 q 226 36 239 62 q 171 2 208 7 q 98 0 134 -3 q 82 1 90 0 q 45 7 63 0 q 18 37 26 16 q 10 79 11 58 q 5 567 2 323 q 5 585 5 576 q 5 843 6 714 q 3 970 4 907 q 2 985 2 977 q 2 1024 0 1004 q 17 1057 3 1043 q 111 1073 54 1086 q 195 1023 169 1059 q 207 987 205 1006 q 208 949 208 968 q 222 473 208 711 q 223 441 222 457 q 231 328 226 385 q 237 230 235 279 m 191 1379 q 187 1360 191 1374 q 178 1332 183 1346 q 170 1313 173 1318 q 146 1261 158 1287 q 102 1165 124 1213 q 71 1116 90 1137 q 19 1093 52 1095 q -23 1101 -1 1093 q -51 1131 -44 1109 q -45 1164 -54 1148 q -18 1221 -31 1192 q -1 1259 -9 1240 q 10 1284 4 1268 q 42 1354 23 1318 q 80 1400 60 1391 q 118 1407 92 1405 q 165 1404 143 1409 q 191 1383 187 1400 q 191 1379 191 1381 l 191 1379 z "},"Î":{"ha":275,"x_min":-75,"x_max":297,"o":"m 237 230 l 237 230 q 239 94 241 161 q 226 36 239 62 q 171 2 208 7 q 98 0 134 -3 q 82 1 90 0 q 45 7 63 0 q 18 37 26 16 q 10 79 11 58 q 5 567 2 323 q 5 585 5 576 q 5 843 6 714 q 3 970 4 907 q 2 985 2 977 q 2 1024 0 1004 q 17 1057 3 1043 q 111 1073 54 1086 q 195 1023 169 1059 q 207 987 205 1006 q 208 949 208 968 q 222 473 208 711 q 223 441 222 457 q 231 328 226 385 q 237 230 235 279 m 293 1124 q 251 1097 281 1102 q 197 1092 220 1091 q 168 1095 182 1091 q 146 1112 154 1099 q 132 1146 137 1128 q 128 1156 130 1151 q 127 1160 128 1158 q 120 1182 125 1168 q 107 1203 115 1196 q 93 1202 100 1211 q 76 1157 80 1182 q 67 1127 73 1141 q 42 1103 59 1108 q 6 1102 25 1099 q -7 1104 0 1103 q -37 1110 -22 1106 q -62 1122 -52 1114 q -70 1149 -75 1135 q -56 1176 -64 1164 q -53 1181 -54 1179 q 27 1312 -12 1245 q 59 1369 43 1340 q 64 1379 62 1373 q 73 1397 68 1388 q 86 1409 78 1406 q 118 1404 103 1416 q 144 1373 132 1392 q 163 1339 155 1354 q 167 1331 165 1335 q 245 1211 201 1269 q 277 1166 262 1189 q 282 1160 279 1164 q 293 1143 289 1152 q 293 1124 297 1135 l 293 1124 z "},"Ï":{"ha":275,"x_min":-94,"x_max":278,"o":"m 237 230 l 237 230 q 239 94 241 161 q 226 36 239 62 q 171 2 208 7 q 98 0 134 -3 q 82 1 90 0 q 45 7 63 0 q 18 37 26 16 q 10 79 11 58 q 5 567 2 323 q 5 585 5 576 q 5 843 6 714 q 3 970 4 907 q 2 985 2 977 q 2 1024 0 1004 q 17 1057 3 1043 q 111 1073 54 1086 q 195 1023 169 1059 q 207 987 205 1006 q 208 949 208 968 q 222 473 208 711 q 223 441 222 457 q 231 328 226 385 q 237 230 235 279 m -60 1111 q -86 1160 -79 1133 q -92 1213 -94 1187 q -86 1241 -92 1227 q -65 1261 -80 1255 q -30 1259 -48 1266 q 3 1240 -11 1253 q 33 1182 28 1214 q 22 1122 38 1150 q -10 1097 11 1105 q -60 1111 -41 1088 l -60 1111 m 180 1111 q 154 1160 161 1133 q 148 1213 147 1187 q 155 1241 149 1227 q 175 1261 161 1255 q 211 1259 193 1266 q 243 1240 229 1253 q 273 1182 269 1214 q 262 1122 278 1150 q 230 1097 251 1105 q 180 1111 199 1088 l 180 1111 z "},"Ð":{"ha":1029,"x_min":0,"x_max":0,"o":""},"Ñ":{"ha":634,"x_min":0,"x_max":600,"o":"m 597 940 l 597 940 q 586 593 590 766 q 575 139 581 366 q 570 81 575 109 q 542 31 564 54 q 418 3 486 -18 q 303 68 351 23 q 290 79 299 72 q 257 107 274 92 q 237 134 239 123 q 230 75 238 104 q 227 62 228 69 q 217 33 224 47 q 197 9 211 18 q 150 -3 176 -3 q 102 1 124 -4 q 54 34 69 9 q 37 91 39 59 q 34 844 0 467 q 35 886 35 862 q 48 1001 35 943 q 115 1064 61 1058 q 186 1056 151 1067 q 258 980 232 1036 q 291 871 283 923 q 311 612 308 744 q 316 512 313 562 q 317 464 317 489 q 323 375 317 419 q 353 296 329 331 q 376 283 369 275 q 384 310 382 290 q 386 349 386 330 q 386 363 386 357 q 387 565 389 464 q 387 659 387 612 q 385 764 387 711 q 387 975 380 870 q 397 1009 387 994 q 458 1041 414 1030 q 544 1046 502 1053 q 597 1010 586 1040 q 599 981 600 996 q 597 940 598 961 m 205 1120 q 197 1118 201 1120 q 195 1118 196 1118 q 178 1107 186 1113 q 149 1094 166 1097 q 118 1100 134 1093 q 92 1118 103 1107 q 72 1149 77 1131 q 89 1202 66 1180 q 218 1247 144 1254 q 332 1229 276 1242 q 361 1221 346 1225 q 433 1210 398 1206 q 465 1223 451 1215 q 483 1232 473 1228 q 505 1236 492 1236 q 527 1231 516 1235 q 547 1221 538 1226 q 575 1195 566 1211 q 571 1145 587 1166 q 529 1111 555 1124 q 407 1086 467 1080 q 286 1109 348 1091 q 245 1119 266 1114 q 205 1120 225 1124 l 205 1120 z "},"Ò":{"ha":541,"x_min":0,"x_max":507,"o":"m 471 816 l 471 816 q 480 768 477 793 q 481 410 507 590 q 377 71 463 227 q 155 23 287 -51 q 45 168 72 78 q 13 353 18 257 q 38 777 0 567 q 42 804 40 790 q 93 992 53 905 q 196 1069 133 1063 q 323 1038 259 1076 q 471 816 444 958 m 294 321 l 294 321 q 314 434 311 366 q 317 538 318 501 q 317 545 317 542 q 311 661 317 613 q 285 765 306 709 q 270 790 279 778 q 248 805 260 802 q 224 794 235 808 q 207 751 211 777 q 201 701 202 726 q 199 685 200 692 q 215 339 184 511 q 224 306 217 321 q 251 285 233 289 q 277 294 267 283 q 294 321 288 305 m 74 1374 l 74 1374 q 74 1377 74 1376 q 100 1399 78 1394 q 147 1401 122 1404 q 185 1395 172 1399 q 223 1349 205 1385 q 254 1279 241 1312 q 265 1253 261 1263 q 283 1216 274 1235 q 309 1158 295 1187 q 316 1124 319 1142 q 288 1096 309 1103 q 246 1088 267 1088 q 194 1110 213 1088 q 163 1159 176 1131 q 119 1255 141 1207 q 94 1308 106 1281 q 87 1326 92 1313 q 78 1354 82 1340 q 74 1374 74 1368 z "},"Ó":{"ha":541,"x_min":0,"x_max":507,"o":"m 471 816 l 471 816 q 480 768 477 793 q 481 410 507 590 q 377 71 463 227 q 155 23 287 -51 q 45 168 72 78 q 13 353 18 257 q 38 777 0 567 q 42 804 40 790 q 93 992 53 905 q 196 1069 133 1063 q 323 1038 259 1076 q 471 816 444 958 m 294 321 l 294 321 q 314 434 311 366 q 317 538 318 501 q 317 545 317 542 q 311 661 317 613 q 285 765 306 709 q 270 790 279 778 q 248 805 260 802 q 224 794 235 808 q 207 751 211 777 q 201 701 202 726 q 199 685 200 692 q 215 339 184 511 q 224 306 217 321 q 251 285 233 289 q 277 294 267 283 q 294 321 288 305 m 317 1374 q 313 1354 317 1368 q 303 1326 309 1340 q 296 1308 298 1313 q 271 1255 283 1281 q 227 1159 250 1207 q 196 1110 214 1131 q 144 1088 177 1088 q 103 1096 124 1088 q 75 1124 81 1103 q 81 1158 71 1142 q 108 1216 95 1187 q 125 1253 116 1235 q 136 1279 129 1263 q 167 1349 149 1312 q 205 1395 185 1385 q 243 1401 218 1399 q 290 1399 268 1404 q 316 1377 313 1394 q 317 1374 317 1376 l 317 1374 z "},"Ô":{"ha":541,"x_min":0,"x_max":507,"o":"m 471 816 l 471 816 q 480 768 477 793 q 481 410 507 590 q 377 71 463 227 q 155 23 287 -51 q 45 168 72 78 q 13 353 18 257 q 38 777 0 567 q 42 804 40 790 q 93 992 53 905 q 196 1069 133 1063 q 323 1038 259 1076 q 471 816 444 958 m 294 321 l 294 321 q 314 434 311 366 q 317 538 318 501 q 317 545 317 542 q 311 661 317 613 q 285 765 306 709 q 270 790 279 778 q 248 805 260 802 q 224 794 235 808 q 207 751 211 777 q 201 701 202 726 q 199 685 200 692 q 215 339 184 511 q 224 306 217 321 q 251 285 233 289 q 277 294 267 283 q 294 321 288 305 m 415 1118 q 373 1090 404 1095 q 319 1085 342 1084 q 290 1088 304 1084 q 268 1105 277 1092 q 254 1139 259 1121 q 251 1149 252 1144 q 250 1153 250 1151 q 242 1175 247 1162 q 230 1197 237 1189 q 215 1195 223 1204 q 198 1150 202 1175 q 190 1120 195 1135 q 164 1097 181 1101 q 128 1095 147 1092 q 115 1097 122 1097 q 85 1103 100 1099 q 60 1116 71 1107 q 53 1142 48 1128 q 67 1169 58 1157 q 70 1174 68 1172 q 149 1305 111 1238 q 181 1362 165 1333 q 186 1373 184 1367 q 195 1390 190 1381 q 209 1402 201 1399 q 240 1397 226 1409 q 266 1367 255 1385 q 285 1332 277 1348 q 289 1324 287 1328 q 368 1204 323 1262 q 399 1160 384 1182 q 404 1154 402 1157 q 415 1137 411 1145 q 415 1118 419 1128 l 415 1118 z "},"Õ":{"ha":541,"x_min":-18,"x_max":507,"o":"m 471 816 l 471 816 q 480 768 477 793 q 481 410 507 590 q 377 71 463 227 q 155 23 287 -51 q 45 168 72 78 q 13 353 18 257 q 38 777 0 567 q 42 804 40 790 q 93 992 53 905 q 196 1069 133 1063 q 323 1038 259 1076 q 471 816 444 958 m 294 321 l 294 321 q 314 434 311 366 q 317 538 318 501 q 317 545 317 542 q 311 661 317 613 q 285 765 306 709 q 270 790 279 778 q 248 805 260 802 q 224 794 235 808 q 207 751 211 777 q 201 701 202 726 q 199 685 200 692 q 215 339 184 511 q 224 306 217 321 q 251 285 233 289 q 277 294 267 283 q 294 321 288 305 m 121 1120 q 112 1118 116 1120 q 111 1118 112 1118 q 93 1107 101 1113 q 64 1094 82 1097 q 34 1100 50 1093 q 7 1118 19 1107 q -13 1149 -8 1131 q 5 1202 -18 1180 q 134 1247 60 1254 q 248 1229 191 1242 q 277 1221 262 1225 q 349 1210 313 1206 q 380 1223 367 1215 q 398 1232 389 1228 q 420 1236 408 1236 q 443 1231 431 1235 q 463 1221 454 1226 q 490 1195 481 1211 q 486 1145 503 1166 q 445 1111 470 1124 q 323 1086 382 1080 q 201 1109 263 1091 q 161 1119 182 1114 q 121 1120 140 1124 l 121 1120 z "},"Ö":{"ha":541,"x_min":0,"x_max":507,"o":"m 471 816 l 471 816 q 480 768 477 793 q 481 410 507 590 q 377 71 463 227 q 155 23 287 -51 q 45 168 72 78 q 13 353 18 257 q 38 777 0 567 q 42 804 40 790 q 93 992 53 905 q 196 1069 133 1063 q 323 1038 259 1076 q 471 816 444 958 m 294 321 l 294 321 q 314 434 311 366 q 317 538 318 501 q 317 545 317 542 q 311 661 317 613 q 285 765 306 709 q 270 790 279 778 q 248 805 260 802 q 224 794 235 808 q 207 751 211 777 q 201 701 202 726 q 199 685 200 692 q 215 339 184 511 q 224 306 217 321 q 251 285 233 289 q 277 294 267 283 q 294 321 288 305 m 72 1111 q 46 1160 54 1133 q 41 1213 39 1187 q 47 1241 41 1227 q 68 1261 53 1255 q 103 1259 85 1266 q 135 1240 121 1253 q 166 1182 161 1214 q 154 1122 171 1150 q 123 1097 144 1105 q 72 1111 91 1088 l 72 1111 m 313 1111 q 287 1160 294 1133 q 281 1213 279 1187 q 287 1241 281 1227 q 308 1261 293 1255 q 343 1259 325 1266 q 375 1240 361 1253 q 406 1182 401 1214 q 394 1122 411 1150 q 363 1097 384 1105 q 313 1111 331 1088 l 313 1111 z "},"×":{"ha":755,"x_min":0,"x_max":721,"o":"m 505 320 q 545 253 523 273 q 599 216 567 233 q 640 191 616 205 q 644 188 642 189 q 697 146 673 170 q 715 85 721 121 q 686 33 708 55 q 637 1 663 12 q 570 16 602 -11 q 513 76 538 43 q 496 97 504 87 q 490 104 492 101 q 487 107 488 106 q 486 109 486 109 q 487 108 486 109 q 488 106 488 107 q 490 104 489 105 q 491 104 491 104 q 490 105 491 104 q 487 108 489 106 q 481 115 485 111 q 462 138 471 126 q 407 195 437 174 q 377 200 392 203 q 351 189 363 197 q 280 122 313 159 q 275 117 278 120 q 236 71 251 90 q 211 40 224 55 q 174 7 197 25 q 142 -6 160 -5 q 108 9 124 -4 q 106 10 107 9 q 39 64 74 31 q 12 140 5 98 q 38 183 16 157 q 89 238 60 208 q 169 330 134 284 q 193 407 203 375 q 163 446 182 429 q 85 538 130 481 q 14 637 41 596 q 13 680 0 659 q 48 713 26 701 q 88 726 71 726 q 154 687 119 722 q 220 615 190 652 q 249 583 237 595 q 264 566 255 576 q 309 520 283 541 q 358 514 334 500 q 379 535 370 523 q 383 541 381 538 q 429 593 394 553 q 499 671 463 633 q 549 718 534 709 q 587 726 566 728 q 669 646 642 711 q 676 531 696 580 q 633 478 668 517 q 563 402 599 439 q 516 353 527 364 q 513 351 515 352 q 504 339 507 345 q 505 321 501 332 q 505 320 505 321 l 505 320 z "},"Ø":{"ha":541,"x_min":-119,"x_max":568,"o":"m 195 620 q 212 646 203 633 q 286 764 248 705 q 285 765 285 764 q 270 790 279 778 q 248 805 260 802 q 224 794 235 808 q 207 751 211 777 q 201 701 202 726 q 199 685 200 692 q 195 620 197 652 m 75 102 q 72 95 73 98 q 45 48 61 69 q 2 23 29 26 l -9 23 q -65 46 -39 28 q -101 76 -85 58 q -119 115 -117 93 q -110 153 -119 135 q -87 186 -100 170 l -76 201 q -9 298 -42 249 q 14 334 2 316 l 13 353 q 38 777 0 567 l 42 804 q 93 992 53 905 q 196 1069 133 1063 q 323 1038 259 1076 q 408 960 374 1004 q 452 1011 428 989 q 545 1013 488 1043 q 566 993 559 1006 q 567 976 568 985 q 562 960 565 968 q 475 798 528 881 q 480 768 479 783 q 481 410 507 590 q 377 71 463 227 q 155 23 287 -51 q 75 102 105 56 m 317 526 l 315 523 q 233 381 275 452 q 214 347 223 364 l 215 339 q 224 306 217 321 q 251 285 233 289 q 277 294 267 283 q 294 321 288 305 q 315 434 311 366 q 317 526 317 490 z "},"Ù":{"ha":684,"x_min":0,"x_max":650,"o":"m 607 348 l 607 348 q 605 216 605 282 q 607 171 606 194 q 592 27 616 96 q 525 -14 573 -7 q 444 -3 477 -22 q 426 26 427 8 q 429 64 425 45 q 431 89 431 77 q 342 52 385 72 q 149 -7 253 4 q 66 7 104 -13 q 31 56 41 26 q 17 117 20 85 q 18 538 0 326 q 25 884 31 711 q 22 913 24 897 q 20 983 19 947 q 38 1046 21 1018 q 116 1084 66 1086 q 208 1068 166 1082 q 298 964 296 1050 q 298 684 299 824 q 297 575 297 629 q 296 568 297 573 q 297 506 296 549 q 302 422 297 464 q 321 365 308 381 q 360 381 335 349 q 387 457 381 416 q 387 458 387 457 q 399 628 401 543 q 389 807 398 718 q 380 941 382 874 q 450 1025 370 1025 q 559 1021 505 1023 q 596 1018 578 1021 q 627 1000 614 1014 q 648 911 650 970 q 636 798 645 852 q 629 748 631 768 q 625 694 627 721 q 610 453 615 574 q 607 348 608 400 m 182 1374 l 182 1374 q 182 1377 182 1376 q 209 1399 186 1394 q 256 1401 231 1404 q 294 1395 281 1399 q 332 1349 313 1385 q 363 1279 351 1312 q 374 1253 370 1263 q 391 1216 383 1235 q 418 1158 404 1187 q 425 1124 428 1142 q 396 1096 418 1103 q 355 1088 375 1088 q 303 1110 322 1088 q 272 1159 284 1131 q 228 1255 250 1207 q 203 1308 216 1281 q 196 1326 201 1313 q 186 1354 191 1340 q 182 1374 182 1368 z "},"Ú":{"ha":684,"x_min":0,"x_max":650,"o":"m 607 348 l 607 348 q 605 216 605 282 q 607 171 606 194 q 592 27 616 96 q 525 -14 573 -7 q 444 -3 477 -22 q 426 26 427 8 q 429 64 425 45 q 431 89 431 77 q 342 52 385 72 q 149 -7 253 4 q 66 7 104 -13 q 31 56 41 26 q 17 117 20 85 q 18 538 0 326 q 25 884 31 711 q 22 913 24 897 q 20 983 19 947 q 38 1046 21 1018 q 116 1084 66 1086 q 208 1068 166 1082 q 298 964 296 1050 q 298 684 299 824 q 297 575 297 629 q 296 568 297 573 q 297 506 296 549 q 302 422 297 464 q 321 365 308 381 q 360 381 335 349 q 387 457 381 416 q 387 458 387 457 q 399 628 401 543 q 389 807 398 718 q 380 941 382 874 q 450 1025 370 1025 q 559 1021 505 1023 q 596 1018 578 1021 q 627 1000 614 1014 q 648 911 650 970 q 636 798 645 852 q 629 748 631 768 q 625 694 627 721 q 610 453 615 574 q 607 348 608 400 m 425 1374 q 421 1354 425 1368 q 412 1326 417 1340 q 404 1308 407 1313 q 380 1255 392 1281 q 336 1159 358 1207 q 304 1110 323 1131 q 253 1088 286 1088 q 211 1096 233 1088 q 183 1124 190 1103 q 189 1158 180 1142 q 216 1216 203 1187 q 233 1253 224 1235 q 244 1279 238 1263 q 276 1349 257 1312 q 314 1395 294 1385 q 351 1401 326 1399 q 399 1399 376 1404 q 425 1377 421 1394 q 425 1374 425 1376 l 425 1374 z "},"Û":{"ha":684,"x_min":0,"x_max":650,"o":"m 607 348 l 607 348 q 605 216 605 282 q 607 171 606 194 q 592 27 616 96 q 525 -14 573 -7 q 444 -3 477 -22 q 426 26 427 8 q 429 64 425 45 q 431 89 431 77 q 342 52 385 72 q 149 -7 253 4 q 66 7 104 -13 q 31 56 41 26 q 17 117 20 85 q 18 538 0 326 q 25 884 31 711 q 22 913 24 897 q 20 983 19 947 q 38 1046 21 1018 q 116 1084 66 1086 q 208 1068 166 1082 q 298 964 296 1050 q 298 684 299 824 q 297 575 297 629 q 296 568 297 573 q 297 506 296 549 q 302 422 297 464 q 321 365 308 381 q 360 381 335 349 q 387 457 381 416 q 387 458 387 457 q 399 628 401 543 q 389 807 398 718 q 380 941 382 874 q 450 1025 370 1025 q 559 1021 505 1023 q 596 1018 578 1021 q 627 1000 614 1014 q 648 911 650 970 q 636 798 645 852 q 629 748 631 768 q 625 694 627 721 q 610 453 615 574 q 607 348 608 400 m 528 1118 q 485 1090 516 1095 q 431 1085 454 1084 q 402 1088 416 1084 q 380 1105 389 1092 q 366 1139 371 1121 q 363 1149 365 1144 q 361 1153 362 1151 q 354 1175 359 1162 q 342 1197 349 1189 q 327 1195 335 1204 q 311 1150 314 1175 q 302 1120 307 1135 q 276 1097 293 1101 q 241 1095 260 1092 q 227 1097 235 1097 q 197 1103 212 1099 q 172 1116 182 1107 q 165 1142 160 1128 q 179 1169 170 1157 q 182 1174 180 1172 q 261 1305 222 1238 q 294 1362 277 1333 q 298 1373 296 1367 q 308 1390 302 1381 q 321 1402 313 1399 q 352 1397 338 1409 q 378 1367 367 1385 q 397 1332 390 1348 q 401 1324 399 1328 q 480 1204 435 1262 q 512 1160 496 1182 q 517 1154 514 1157 q 527 1137 523 1145 q 528 1118 531 1128 l 528 1118 z "},"Ü":{"ha":684,"x_min":0,"x_max":650,"o":"m 607 348 l 607 348 q 605 216 605 282 q 607 171 606 194 q 592 27 616 96 q 525 -14 573 -7 q 444 -3 477 -22 q 426 26 427 8 q 429 64 425 45 q 431 89 431 77 q 342 52 385 72 q 149 -7 253 4 q 66 7 104 -13 q 31 56 41 26 q 17 117 20 85 q 18 538 0 326 q 25 884 31 711 q 22 913 24 897 q 20 983 19 947 q 38 1046 21 1018 q 116 1084 66 1086 q 208 1068 166 1082 q 298 964 296 1050 q 298 684 299 824 q 297 575 297 629 q 296 568 297 573 q 297 506 296 549 q 302 422 297 464 q 321 365 308 381 q 360 381 335 349 q 387 457 381 416 q 387 458 387 457 q 399 628 401 543 q 389 807 398 718 q 380 941 382 874 q 450 1025 370 1025 q 559 1021 505 1023 q 596 1018 578 1021 q 627 1000 614 1014 q 648 911 650 970 q 636 798 645 852 q 629 748 631 768 q 625 694 627 721 q 610 453 615 574 q 607 348 608 400 m 195 1111 q 169 1160 176 1133 q 163 1213 161 1187 q 169 1241 163 1227 q 190 1261 175 1255 q 225 1259 207 1266 q 258 1240 244 1253 q 288 1182 283 1214 q 276 1122 293 1150 q 245 1097 266 1105 q 195 1111 213 1088 l 195 1111 m 435 1111 q 409 1160 416 1133 q 403 1213 401 1187 q 409 1241 403 1227 q 430 1261 415 1255 q 466 1259 447 1266 q 498 1240 484 1253 q 528 1182 524 1214 q 517 1122 533 1150 q 485 1097 506 1105 q 435 1111 454 1088 l 435 1111 z "},"Ý":{"ha":766,"x_min":0,"x_max":732,"o":"m 14 1061 q 76 1086 38 1086 q 146 1078 115 1085 q 210 1080 178 1073 q 257 1084 235 1084 q 300 1067 280 1083 q 334 1004 320 1047 q 352 932 347 962 q 356 855 358 894 q 355 815 355 836 q 355 811 355 813 q 357 787 355 799 q 368 766 359 775 q 379 759 372 761 q 391 758 385 756 q 399 768 397 762 q 401 782 401 775 q 404 810 403 796 q 413 896 407 853 q 426 949 416 913 q 451 1019 437 985 q 477 1067 465 1053 q 510 1084 492 1081 q 548 1086 529 1086 q 567 1086 558 1086 q 572 1086 570 1086 q 656 1086 614 1088 q 704 998 732 1073 q 651 854 684 940 q 595 711 618 768 q 575 662 585 686 q 511 465 531 567 q 498 277 498 372 q 485 92 497 184 q 463 33 482 59 q 390 7 433 5 q 325 23 355 5 q 281 98 289 51 q 258 269 262 183 q 207 576 257 426 q 128 746 172 663 q 54 905 87 824 q 40 934 48 917 q 12 998 24 964 q 10 1056 0 1032 q 14 1061 12 1059 l 14 1061 m 500 1381 q 496 1361 500 1375 q 487 1333 492 1347 q 479 1314 481 1320 q 454 1262 467 1288 q 410 1166 433 1214 q 379 1117 398 1138 q 328 1095 360 1095 q 286 1102 307 1095 q 258 1131 264 1110 q 264 1165 254 1149 q 291 1223 278 1194 q 308 1260 299 1242 q 319 1286 313 1270 q 350 1356 332 1319 q 389 1402 369 1392 q 426 1408 401 1406 q 473 1406 451 1411 q 500 1384 496 1401 q 500 1381 500 1383 l 500 1381 z "},"Þ":{"ha":760,"x_min":0,"x_max":0,"o":""},"ß":{"ha":644,"x_min":0,"x_max":610,"o":"m 594 359 l 594 359 q 597 344 595 351 q 608 214 610 281 q 572 91 606 147 q 533 41 554 60 q 474 15 511 22 q 373 15 425 4 q 296 75 321 26 q 309 180 274 131 q 328 197 316 191 q 359 205 342 204 q 386 210 374 205 q 404 231 398 215 q 401 275 409 253 q 336 391 379 338 q 292 456 313 422 q 260 639 246 542 q 288 708 264 677 q 304 724 295 717 q 328 751 319 735 q 330 797 337 772 q 305 840 323 823 q 262 854 287 857 q 234 835 245 850 q 220 801 222 819 q 226 593 210 699 q 230 551 228 572 q 241 456 235 504 q 261 215 256 336 q 243 78 265 146 q 142 3 221 9 q 67 10 101 1 q 14 57 34 20 q 7 132 0 93 q 8 139 7 136 q 14 195 11 168 q 25 330 24 261 q 22 519 24 424 q 23 862 14 691 q 130 1031 26 975 q 258 1078 189 1064 q 392 1067 328 1091 q 513 878 518 1006 q 460 642 507 750 q 454 607 452 625 q 465 586 456 595 q 483 569 473 577 q 496 557 490 563 q 543 496 524 529 q 594 359 581 432 z "},"à":{"ha":733,"x_min":0,"x_max":699,"o":"m 489 178 q 474 162 483 176 q 381 43 436 96 q 186 -16 298 -36 q 65 88 96 9 q 29 252 35 167 q 59 597 0 431 q 267 795 125 735 q 519 818 390 844 q 606 791 555 812 q 668 734 656 771 q 690 384 699 563 q 690 278 690 330 q 688 102 691 191 q 655 26 686 58 q 578 -3 625 -5 q 537 12 555 -1 q 505 67 511 33 q 503 90 504 72 q 501 129 503 108 q 497 165 500 151 q 489 178 494 180 l 489 178 m 541 488 q 516 523 542 511 q 462 538 490 535 q 346 486 392 541 q 289 366 299 431 q 295 331 286 345 q 324 315 303 317 q 393 342 363 315 q 524 458 463 395 q 541 488 541 475 l 541 488 m 216 1143 l 216 1143 q 216 1147 216 1145 q 243 1168 220 1164 q 290 1171 265 1173 q 328 1164 315 1168 q 366 1118 347 1155 q 397 1048 385 1082 q 408 1023 404 1032 q 425 985 417 1004 q 452 928 438 956 q 458 894 462 911 q 430 865 452 873 q 389 857 409 857 q 337 879 356 858 q 306 928 318 901 q 262 1025 283 977 q 237 1077 250 1050 q 230 1096 235 1082 q 220 1123 224 1109 q 216 1143 216 1137 z "},"á":{"ha":733,"x_min":0,"x_max":699,"o":"m 489 178 q 474 162 483 176 q 381 43 436 96 q 186 -16 298 -36 q 65 88 96 9 q 29 252 35 167 q 59 597 0 431 q 267 795 125 735 q 519 818 390 844 q 606 791 555 812 q 668 734 656 771 q 690 384 699 563 q 690 278 690 330 q 688 102 691 191 q 655 26 686 58 q 578 -3 625 -5 q 537 12 555 -1 q 505 67 511 33 q 503 90 504 72 q 501 129 503 108 q 497 165 500 151 q 489 178 494 180 l 489 178 m 541 488 q 516 523 542 511 q 462 538 490 535 q 346 486 392 541 q 289 366 299 431 q 295 331 286 345 q 324 315 303 317 q 393 342 363 315 q 524 458 463 395 q 541 488 541 475 l 541 488 m 459 1143 q 455 1123 459 1137 q 446 1096 451 1109 q 438 1077 441 1082 q 414 1025 426 1050 q 370 928 392 977 q 338 879 357 901 q 287 857 319 858 q 245 865 267 857 q 217 894 224 873 q 223 928 214 911 q 250 985 237 956 q 267 1023 258 1004 q 278 1048 272 1032 q 310 1118 291 1082 q 348 1164 328 1155 q 385 1171 360 1168 q 433 1168 410 1173 q 459 1147 455 1164 q 459 1143 459 1145 l 459 1143 z "},"â":{"ha":733,"x_min":0,"x_max":699,"o":"m 489 178 q 474 162 483 176 q 381 43 436 96 q 186 -16 298 -36 q 65 88 96 9 q 29 252 35 167 q 59 597 0 431 q 267 795 125 735 q 519 818 390 844 q 606 791 555 812 q 668 734 656 771 q 690 384 699 563 q 690 278 690 330 q 688 102 691 191 q 655 26 686 58 q 578 -3 625 -5 q 537 12 555 -1 q 505 67 511 33 q 503 90 504 72 q 501 129 503 108 q 497 165 500 151 q 489 178 494 180 l 489 178 m 541 488 q 516 523 542 511 q 462 538 490 535 q 346 486 392 541 q 289 366 299 431 q 295 331 286 345 q 324 315 303 317 q 393 342 363 315 q 524 458 463 395 q 541 488 541 475 l 541 488 m 575 900 q 533 873 564 878 q 479 867 502 867 q 450 870 464 867 q 427 887 436 874 q 414 922 418 903 q 410 932 412 927 q 409 936 410 933 q 401 958 407 945 q 389 979 396 972 q 374 978 382 987 q 358 932 361 958 q 349 903 355 917 q 324 879 340 884 q 288 878 307 874 q 275 880 282 879 q 245 885 260 882 q 220 898 230 889 q 213 925 208 911 q 227 952 218 939 q 229 956 228 954 q 309 1088 270 1021 q 341 1144 325 1116 q 346 1155 343 1149 q 355 1173 350 1164 q 368 1185 360 1181 q 400 1180 385 1192 q 426 1149 414 1168 q 444 1115 437 1130 q 448 1107 447 1110 q 528 987 483 1044 q 559 943 544 964 q 564 936 562 939 q 574 919 570 928 q 575 900 578 911 l 575 900 z "},"ã":{"ha":733,"x_min":0,"x_max":699,"o":"m 489 178 q 474 162 483 176 q 381 43 436 96 q 186 -16 298 -36 q 65 88 96 9 q 29 252 35 167 q 59 597 0 431 q 267 795 125 735 q 519 818 390 844 q 606 791 555 812 q 668 734 656 771 q 690 384 699 563 q 690 278 690 330 q 688 102 691 191 q 655 26 686 58 q 578 -3 625 -5 q 537 12 555 -1 q 505 67 511 33 q 503 90 504 72 q 501 129 503 108 q 497 165 500 151 q 489 178 494 180 l 489 178 m 541 488 q 516 523 542 511 q 462 538 490 535 q 346 486 392 541 q 289 366 299 431 q 295 331 286 345 q 324 315 303 317 q 393 342 363 315 q 524 458 463 395 q 541 488 541 475 l 541 488 m 260 903 q 252 901 256 903 q 250 900 251 901 q 233 890 240 896 q 204 877 221 880 q 173 882 189 876 q 146 901 158 889 q 127 932 132 913 q 144 985 121 963 q 273 1030 199 1036 q 387 1011 331 1025 q 416 1003 401 1008 q 488 992 452 989 q 519 1006 506 997 q 538 1015 528 1011 q 559 1018 547 1019 q 582 1013 570 1017 q 602 1003 593 1008 q 630 977 621 994 q 626 927 642 949 q 584 893 610 906 q 462 868 522 863 q 341 891 403 873 q 300 902 321 897 q 260 903 280 907 l 260 903 z "},"ä":{"ha":733,"x_min":0,"x_max":699,"o":"m 489 178 q 474 162 483 176 q 381 43 436 96 q 186 -16 298 -36 q 65 88 96 9 q 29 252 35 167 q 59 597 0 431 q 267 795 125 735 q 519 818 390 844 q 606 791 555 812 q 668 734 656 771 q 690 384 699 563 q 690 278 690 330 q 688 102 691 191 q 655 26 686 58 q 578 -3 625 -5 q 537 12 555 -1 q 505 67 511 33 q 503 90 504 72 q 501 129 503 108 q 497 165 500 151 q 489 178 494 180 l 489 178 m 541 488 q 516 523 542 511 q 462 538 490 535 q 346 486 392 541 q 289 366 299 431 q 295 331 286 345 q 324 315 303 317 q 393 342 363 315 q 524 458 463 395 q 541 488 541 475 l 541 488 m 249 880 q 223 929 231 901 q 217 981 216 956 q 224 1010 218 996 q 244 1029 230 1023 q 280 1028 262 1036 q 312 1008 298 1021 q 343 951 338 983 q 331 891 348 919 q 299 866 321 873 q 249 880 268 858 l 249 880 m 489 880 q 464 929 471 901 q 458 981 456 956 q 464 1010 458 996 q 485 1029 470 1023 q 520 1028 502 1036 q 552 1008 538 1021 q 583 951 578 983 q 571 891 588 919 q 540 866 561 873 q 489 880 508 858 l 489 880 z "},"å":{"ha":733,"x_min":0,"x_max":699,"o":"m 489 178 q 474 162 483 176 q 381 43 436 96 q 186 -16 298 -36 q 65 88 96 9 q 29 252 35 167 q 59 597 0 431 q 267 795 125 735 q 519 818 390 844 q 606 791 555 812 q 668 734 656 771 q 690 384 699 563 q 690 278 690 330 q 688 102 691 191 q 655 26 686 58 q 578 -3 625 -5 q 537 12 555 -1 q 505 67 511 33 q 503 90 504 72 q 501 129 503 108 q 497 165 500 151 q 489 178 494 180 l 489 178 m 541 488 q 516 523 542 511 q 462 538 490 535 q 346 486 392 541 q 289 366 299 431 q 295 331 286 345 q 324 315 303 317 q 393 342 363 315 q 524 458 463 395 q 541 488 541 475 l 541 488 m 536 1011 l 536 1011 q 536 1005 536 1008 q 527 951 536 977 q 461 878 507 903 q 364 870 416 852 q 299 938 317 890 q 290 1004 289 968 q 296 1070 290 1039 q 332 1142 304 1113 q 405 1167 359 1171 q 497 1113 461 1158 q 536 1011 533 1067 m 412 946 l 412 946 q 425 954 419 949 q 442 983 438 966 q 441 1022 447 1003 q 431 1042 439 1034 q 410 1048 421 1050 q 396 1038 401 1045 q 377 1009 385 1026 q 369 975 369 991 q 383 949 370 956 q 412 946 396 941 z "},"æ":{"ha":1179,"x_min":0,"x_max":1145,"o":"m 901 473 l 901 473 q 829 427 849 469 q 813 334 808 386 q 839 246 818 283 q 846 239 842 242 q 854 236 850 236 q 877 251 868 237 q 890 281 885 264 q 898 311 895 298 q 899 317 899 314 q 948 402 908 370 q 956 407 952 404 q 1039 411 996 426 q 1095 351 1083 395 q 1082 272 1099 311 q 1077 255 1080 263 q 1037 150 1061 201 q 871 -4 985 39 q 762 -3 816 -23 q 692 56 718 15 q 589 -12 663 -12 q 547 3 566 -9 q 513 60 520 25 q 512 83 513 65 q 510 123 511 101 q 506 160 509 145 q 497 174 503 175 q 482 157 492 171 q 388 35 444 89 q 190 -24 303 -45 q 67 81 98 1 q 30 248 35 161 q 60 599 0 431 q 271 801 127 740 q 529 824 397 850 q 616 797 566 817 q 680 739 667 776 q 682 727 682 733 q 684 723 683 725 q 885 841 755 829 q 1063 779 986 844 q 1144 599 1141 707 q 1144 546 1145 579 q 1132 484 1142 513 q 1096 452 1121 456 q 1072 455 1084 452 q 1070 456 1071 456 q 901 473 987 478 m 534 457 l 534 457 q 551 488 550 475 q 525 524 551 511 q 470 538 498 536 q 351 486 399 542 q 294 363 304 430 q 300 329 291 343 q 330 312 309 314 q 401 339 370 313 q 534 457 471 394 m 825 616 l 825 616 q 833 609 827 611 q 844 606 838 607 q 848 606 846 606 q 906 603 874 602 q 960 621 939 604 q 964 658 976 640 q 930 682 952 677 q 889 676 918 684 q 839 651 861 667 q 825 616 817 635 z "},"ç":{"ha":508,"x_min":0,"x_max":474,"o":"m 263 -4 q 201 -9 233 -10 q 85 35 134 -8 q 32 138 45 76 q 15 258 19 199 l 12 289 q 3 527 0 408 q 26 701 2 616 q 95 818 47 769 q 218 872 144 867 q 350 824 290 872 q 437 711 410 777 q 441 505 474 608 q 358 434 416 444 q 259 475 301 425 l 258 477 q 252 484 255 481 q 245 489 249 487 q 227 483 235 492 q 215 463 218 475 q 238 311 194 382 q 274 371 253 343 q 326 411 294 399 q 374 413 350 418 q 433 376 410 404 q 456 262 466 328 q 427 146 447 197 q 368 48 409 89 q 414 -41 416 21 q 401 -113 413 -79 q 322 -190 374 -164 q 307 -199 316 -194 q 268 -223 289 -212 q 231 -226 246 -233 q 217 -190 211 -212 q 239 -149 222 -169 q 266 -120 255 -130 q 286 -102 276 -111 q 307 -83 296 -92 q 325 -64 317 -75 q 326 -44 333 -53 q 315 -37 323 -40 l 313 -37 q 274 -16 292 -29 q 263 -4 268 -11 z "},"è":{"ha":570,"x_min":0,"x_max":536,"o":"m 342 404 l 342 404 q 350 408 346 406 q 432 412 389 427 q 487 353 475 397 q 475 275 490 314 q 469 258 471 267 q 430 155 454 205 q 267 4 378 46 q 159 5 212 -14 q 87 67 114 24 q 46 160 60 111 q 14 490 0 322 q 61 682 20 591 q 280 835 129 819 q 456 774 379 838 q 535 597 532 703 q 535 545 536 578 q 523 484 533 512 q 488 452 513 456 q 463 456 475 452 q 463 456 463 456 q 296 473 380 478 q 225 428 245 469 q 210 337 205 388 q 235 250 214 286 q 241 243 237 245 q 250 240 245 240 q 272 254 263 241 q 285 284 280 267 q 293 313 290 301 q 294 319 294 317 q 342 404 303 372 m 358 654 l 358 654 q 325 679 346 673 q 284 672 313 681 q 235 648 256 664 q 220 614 214 633 q 229 607 223 609 q 240 604 235 605 q 244 604 242 604 q 301 601 270 600 q 353 619 333 602 q 358 654 370 637 m 142 1143 l 142 1143 q 142 1147 142 1145 q 168 1168 146 1164 q 216 1171 191 1173 q 253 1164 241 1168 q 291 1118 273 1155 q 323 1048 310 1082 q 334 1023 329 1032 q 351 985 342 1004 q 378 928 363 956 q 384 894 387 911 q 356 865 377 873 q 314 857 334 857 q 262 879 281 858 q 231 928 243 901 q 187 1025 209 977 q 163 1077 175 1050 q 155 1096 160 1082 q 146 1123 150 1109 q 142 1143 142 1137 z "},"é":{"ha":570,"x_min":0,"x_max":536,"o":"m 342 404 l 342 404 q 350 408 346 406 q 432 412 389 427 q 487 353 475 397 q 475 275 490 314 q 469 258 471 267 q 430 155 454 205 q 267 4 378 46 q 159 5 212 -14 q 87 67 114 24 q 46 160 60 111 q 14 490 0 322 q 61 682 20 591 q 280 835 129 819 q 456 774 379 838 q 535 597 532 703 q 535 545 536 578 q 523 484 533 512 q 488 452 513 456 q 463 456 475 452 q 463 456 463 456 q 296 473 380 478 q 225 428 245 469 q 210 337 205 388 q 235 250 214 286 q 241 243 237 245 q 250 240 245 240 q 272 254 263 241 q 285 284 280 267 q 293 313 290 301 q 294 319 294 317 q 342 404 303 372 m 358 654 l 358 654 q 325 679 346 673 q 284 672 313 681 q 235 648 256 664 q 220 614 214 633 q 229 607 223 609 q 240 604 235 605 q 244 604 242 604 q 301 601 270 600 q 353 619 333 602 q 358 654 370 637 m 385 1143 q 380 1123 385 1137 q 371 1096 376 1109 q 363 1077 366 1082 q 339 1025 351 1050 q 295 928 317 977 q 264 879 283 901 q 212 857 245 858 q 171 865 192 857 q 142 894 149 873 q 149 928 139 911 q 176 985 163 956 q 193 1023 184 1004 q 203 1048 197 1032 q 235 1118 216 1082 q 273 1164 254 1155 q 311 1171 286 1168 q 358 1168 336 1173 q 385 1147 380 1164 q 385 1143 385 1145 l 385 1143 z "},"ê":{"ha":570,"x_min":0,"x_max":536,"o":"m 342 404 l 342 404 q 350 408 346 406 q 432 412 389 427 q 487 353 475 397 q 475 275 490 314 q 469 258 471 267 q 430 155 454 205 q 267 4 378 46 q 159 5 212 -14 q 87 67 114 24 q 46 160 60 111 q 14 490 0 322 q 61 682 20 591 q 280 835 129 819 q 456 774 379 838 q 535 597 532 703 q 535 545 536 578 q 523 484 533 512 q 488 452 513 456 q 463 456 475 452 q 463 456 463 456 q 296 473 380 478 q 225 428 245 469 q 210 337 205 388 q 235 250 214 286 q 241 243 237 245 q 250 240 245 240 q 272 254 263 241 q 285 284 280 267 q 293 313 290 301 q 294 319 294 317 q 342 404 303 372 m 358 654 l 358 654 q 325 679 346 673 q 284 672 313 681 q 235 648 256 664 q 220 614 214 633 q 229 607 223 609 q 240 604 235 605 q 244 604 242 604 q 301 601 270 600 q 353 619 333 602 q 358 654 370 637 m 467 883 q 424 856 454 861 q 370 850 393 850 q 341 853 355 850 q 319 870 328 857 q 305 905 310 886 q 302 915 303 909 q 300 918 301 916 q 293 941 298 927 q 281 962 288 955 q 266 961 274 970 q 249 916 253 941 q 241 886 246 900 q 215 862 232 867 q 179 861 198 857 q 166 863 173 862 q 136 868 151 865 q 111 881 121 872 q 104 908 99 893 q 118 935 109 922 q 121 939 119 937 q 200 1070 161 1004 q 232 1127 216 1099 q 237 1138 235 1132 q 247 1156 241 1147 q 260 1168 252 1164 q 291 1163 277 1175 q 317 1132 306 1151 q 336 1097 329 1113 q 340 1090 338 1093 q 418 970 374 1027 q 450 925 435 947 q 456 919 453 922 q 466 902 462 911 q 467 883 470 893 l 467 883 z "},"ë":{"ha":570,"x_min":0,"x_max":536,"o":"m 342 404 l 342 404 q 350 408 346 406 q 432 412 389 427 q 487 353 475 397 q 475 275 490 314 q 469 258 471 267 q 430 155 454 205 q 267 4 378 46 q 159 5 212 -14 q 87 67 114 24 q 46 160 60 111 q 14 490 0 322 q 61 682 20 591 q 280 835 129 819 q 456 774 379 838 q 535 597 532 703 q 535 545 536 578 q 523 484 533 512 q 488 452 513 456 q 463 456 475 452 q 463 456 463 456 q 296 473 380 478 q 225 428 245 469 q 210 337 205 388 q 235 250 214 286 q 241 243 237 245 q 250 240 245 240 q 272 254 263 241 q 285 284 280 267 q 293 313 290 301 q 294 319 294 317 q 342 404 303 372 m 358 654 l 358 654 q 325 679 346 673 q 284 672 313 681 q 235 648 256 664 q 220 614 214 633 q 229 607 223 609 q 240 604 235 605 q 244 604 242 604 q 301 601 270 600 q 353 619 333 602 q 358 654 370 637 m 136 876 q 111 925 118 898 q 104 978 104 953 q 111 1006 105 993 q 132 1026 117 1020 q 168 1025 149 1031 q 199 1005 186 1018 q 230 947 225 979 q 218 888 235 916 q 187 862 208 870 q 136 876 155 854 l 136 876 m 376 876 q 351 925 358 898 q 345 978 344 953 q 351 1006 345 993 q 372 1026 357 1020 q 408 1025 389 1031 q 439 1005 426 1018 q 470 947 465 979 q 458 888 475 916 q 427 862 448 870 q 376 876 395 854 l 376 876 z "},"ì":{"ha":250,"x_min":-39,"x_max":216,"o":"m 50 793 l 50 793 q 47 796 49 795 q 35 819 39 806 q 25 869 27 841 q 47 913 24 898 q 79 916 62 919 q 154 892 120 914 q 192 824 189 866 q 169 788 190 797 q 122 780 149 779 q 76 783 95 781 q 50 793 62 785 m 203 550 l 203 550 q 199 496 201 524 q 195 431 196 463 q 203 299 195 366 q 210 123 216 211 q 188 46 206 82 q 126 -3 167 8 q 62 13 92 -8 q 19 66 33 33 q 5 186 0 124 q 6 224 6 205 q 9 363 6 294 q 12 401 11 382 q 14 469 13 435 q 17 562 14 515 q 18 583 18 572 q 21 643 20 612 q 20 664 21 652 q 20 695 19 680 q 32 722 22 711 q 65 733 45 734 q 102 726 85 731 q 150 708 127 720 q 185 672 173 696 q 203 550 208 614 m -39 1232 l -39 1232 q -39 1235 -39 1233 q -13 1257 -35 1252 q 35 1259 9 1261 q 73 1252 60 1257 q 111 1206 92 1243 q 142 1137 130 1170 q 153 1111 149 1120 q 170 1074 162 1092 q 197 1016 183 1044 q 203 982 207 1000 q 175 953 197 961 q 134 945 154 945 q 82 967 101 946 q 51 1017 63 989 q 6 1112 28 1065 q -18 1165 -5 1139 q -25 1184 -20 1171 q -35 1212 -31 1198 q -39 1232 -39 1225 z "},"í":{"ha":250,"x_min":-41,"x_max":216,"o":"m 50 793 l 50 793 q 47 796 49 795 q 35 819 39 806 q 25 869 27 841 q 47 913 24 898 q 79 916 62 919 q 154 892 120 914 q 192 824 189 866 q 169 788 190 797 q 122 780 149 779 q 76 783 95 781 q 50 793 62 785 m 203 550 l 203 550 q 199 496 201 524 q 195 431 196 463 q 203 299 195 366 q 210 123 216 211 q 188 46 206 82 q 126 -3 167 8 q 62 13 92 -8 q 19 66 33 33 q 5 186 0 124 q 6 224 6 205 q 9 363 6 294 q 12 401 11 382 q 14 469 13 435 q 17 562 14 515 q 18 583 18 572 q 21 643 20 612 q 20 664 21 652 q 20 695 19 680 q 32 722 22 711 q 65 733 45 734 q 102 726 85 731 q 150 708 127 720 q 185 672 173 696 q 203 550 208 614 m 204 1232 q 200 1212 204 1225 q 191 1184 196 1198 q 183 1165 186 1171 q 159 1112 171 1139 q 114 1017 137 1065 q 83 967 102 989 q 32 945 64 946 q -10 953 12 945 q -38 982 -31 961 q -32 1016 -41 1000 q -5 1074 -18 1044 q 12 1111 3 1092 q 23 1137 16 1120 q 54 1206 36 1170 q 93 1252 73 1243 q 130 1259 105 1257 q 178 1257 155 1261 q 204 1235 200 1252 q 204 1232 204 1233 l 204 1232 z "},"î":{"ha":250,"x_min":-84,"x_max":287,"o":"m 50 793 l 50 793 q 47 796 49 795 q 35 819 39 806 q 25 869 27 841 q 47 913 24 898 q 79 916 62 919 q 154 892 120 914 q 192 824 189 866 q 169 788 190 797 q 122 780 149 779 q 76 783 95 781 q 50 793 62 785 m 203 550 l 203 550 q 199 496 201 524 q 195 431 196 463 q 203 299 195 366 q 210 123 216 211 q 188 46 206 82 q 126 -3 167 8 q 62 13 92 -8 q 19 66 33 33 q 5 186 0 124 q 6 224 6 205 q 9 363 6 294 q 12 401 11 382 q 14 469 13 435 q 17 562 14 515 q 18 583 18 572 q 21 643 20 612 q 20 664 21 652 q 20 695 19 680 q 32 722 22 711 q 65 733 45 734 q 102 726 85 731 q 150 708 127 720 q 185 672 173 696 q 203 550 208 614 m 283 961 q 240 933 271 939 q 187 928 210 928 q 158 931 172 928 q 136 948 144 935 q 122 983 127 964 q 119 993 120 987 q 117 997 118 994 q 110 1019 115 1005 q 98 1040 104 1033 q 83 1039 91 1048 q 66 994 70 1019 q 58 964 63 978 q 32 940 49 945 q -4 939 15 935 q -17 941 -10 940 q -47 946 -32 943 q -72 959 -62 950 q -79 986 -84 972 q -65 1013 -75 1000 q -62 1017 -64 1015 q 17 1148 -22 1082 q 49 1205 33 1177 q 54 1216 52 1210 q 63 1234 58 1225 q 77 1246 68 1242 q 108 1241 93 1253 q 134 1210 123 1229 q 153 1175 145 1191 q 157 1168 155 1171 q 235 1048 191 1105 q 267 1004 252 1025 q 272 997 270 1000 q 283 980 279 989 q 283 961 287 971 l 283 961 z "},"ï":{"ha":250,"x_min":-83,"x_max":289,"o":"m 50 793 l 50 793 q 47 796 49 795 q 35 819 39 806 q 25 869 27 841 q 47 913 24 898 q 79 916 62 919 q 154 892 120 914 q 192 824 189 866 q 169 788 190 797 q 122 780 149 779 q 76 783 95 781 q 50 793 62 785 m 203 550 l 203 550 q 199 496 201 524 q 195 431 196 463 q 203 299 195 366 q 210 123 216 211 q 188 46 206 82 q 126 -3 167 8 q 62 13 92 -8 q 19 66 33 33 q 5 186 0 124 q 6 224 6 205 q 9 363 6 294 q 12 401 11 382 q 14 469 13 435 q 17 562 14 515 q 18 583 18 572 q 21 643 20 612 q 20 664 21 652 q 20 695 19 680 q 32 722 22 711 q 65 733 45 734 q 102 726 85 731 q 150 708 127 720 q 185 672 173 696 q 203 550 208 614 m -50 951 q -76 1000 -68 972 q -82 1053 -83 1027 q -75 1081 -81 1067 q -54 1101 -69 1095 q -19 1099 -37 1106 q 13 1080 -1 1093 q 44 1022 39 1054 q 32 962 49 990 q 1 937 22 945 q -50 951 -31 929 l -50 951 m 190 951 q 164 1000 172 972 q 159 1053 157 1027 q 165 1081 159 1067 q 186 1101 171 1095 q 221 1099 203 1106 q 253 1080 239 1093 q 284 1022 279 1054 q 272 962 289 990 q 241 937 262 945 q 190 951 209 929 l 190 951 z "},"ð":{"ha":772,"x_min":0,"x_max":0,"o":""},"ñ":{"ha":587,"x_min":0,"x_max":553,"o":"m 31 15 q 9 67 12 36 q 10 130 6 99 q 24 532 33 331 q 6 738 19 635 q 5 745 5 741 q 1 795 1 768 q 13 841 0 823 q 60 854 25 859 q 117 805 100 844 q 136 739 131 773 q 137 730 136 734 q 144 709 139 719 q 159 697 149 699 q 178 703 170 696 q 216 754 203 723 q 233 783 224 769 q 344 852 275 836 q 482 839 418 876 q 549 706 544 791 q 541 537 553 621 q 533 453 535 490 q 531 248 530 350 q 533 193 531 221 q 526 50 542 117 q 488 0 515 16 q 427 -2 460 -16 q 374 65 387 20 q 358 228 353 144 q 349 370 361 300 q 326 421 343 398 q 303 437 317 432 q 276 439 290 443 q 247 416 258 432 q 200 275 201 353 q 211 119 199 197 q 212 113 211 116 q 206 41 219 75 q 159 5 191 14 q 95 -4 127 -5 q 45 5 68 -5 q 31 15 37 9 l 31 15 m 158 920 q 149 918 153 919 q 149 917 149 917 q 130 907 138 913 q 102 894 119 897 q 71 899 86 892 q 44 918 56 906 q 24 949 29 930 q 41 1002 20 980 q 171 1046 96 1053 q 285 1028 229 1042 q 313 1020 298 1025 q 387 1009 351 1005 q 417 1022 404 1014 q 435 1032 426 1028 q 457 1035 445 1036 q 480 1030 469 1034 q 500 1020 491 1025 q 528 994 518 1010 q 523 944 539 966 q 481 910 507 923 q 360 885 419 880 q 239 908 300 890 q 198 918 219 913 q 158 920 178 924 l 158 920 z "},"ò":{"ha":420,"x_min":0,"x_max":387,"o":"m 85 821 q 182 848 125 848 q 281 825 239 848 q 358 720 340 787 q 378 586 377 652 q 383 324 385 455 q 383 253 383 289 q 384 222 383 238 q 379 117 387 170 q 334 25 372 64 q 269 -5 307 0 q 117 29 180 -18 q 33 160 53 76 q 23 520 0 339 q 37 643 29 582 q 43 700 41 671 q 45 718 45 709 q 55 775 47 747 q 85 821 62 803 l 85 821 m 208 245 q 211 246 210 246 q 236 273 227 252 q 248 310 245 294 q 238 520 270 416 q 222 549 235 537 q 191 543 204 562 q 168 490 177 524 q 155 425 159 456 q 151 382 151 393 q 164 291 150 336 q 180 261 169 277 q 208 245 191 245 l 208 245 m 33 1164 l 33 1164 q 33 1167 33 1166 q 59 1189 37 1184 q 106 1191 81 1194 q 144 1185 132 1189 q 182 1139 164 1175 q 214 1069 201 1102 q 224 1043 220 1053 q 242 1006 233 1025 q 269 948 254 977 q 275 914 278 932 q 247 885 268 893 q 205 878 225 878 q 154 900 172 878 q 123 949 135 921 q 78 1045 100 997 q 54 1097 66 1071 q 46 1116 51 1103 q 37 1144 41 1130 q 33 1164 33 1158 z "},"ó":{"ha":420,"x_min":0,"x_max":387,"o":"m 85 821 q 182 848 125 848 q 281 825 239 848 q 358 720 340 787 q 378 586 377 652 q 383 324 385 455 q 383 253 383 289 q 384 222 383 238 q 379 117 387 170 q 334 25 372 64 q 269 -5 307 0 q 117 29 180 -18 q 33 160 53 76 q 23 520 0 339 q 37 643 29 582 q 43 700 41 671 q 45 718 45 709 q 55 775 47 747 q 85 821 62 803 l 85 821 m 208 245 q 211 246 210 246 q 236 273 227 252 q 248 310 245 294 q 238 520 270 416 q 222 549 235 537 q 191 543 204 562 q 168 490 177 524 q 155 425 159 456 q 151 382 151 393 q 164 291 150 336 q 180 261 169 277 q 208 245 191 245 l 208 245 m 276 1164 q 272 1144 276 1158 q 262 1116 267 1130 q 255 1097 258 1103 q 231 1045 243 1071 q 186 949 208 997 q 155 900 174 921 q 103 878 136 878 q 62 885 83 878 q 33 914 41 893 q 40 948 31 932 q 66 1006 54 977 q 84 1043 75 1025 q 95 1069 88 1053 q 126 1139 108 1102 q 164 1185 144 1175 q 202 1191 177 1189 q 249 1189 227 1194 q 275 1167 271 1184 q 276 1164 276 1166 l 276 1164 z "},"ô":{"ha":420,"x_min":-3,"x_max":387,"o":"m 85 821 q 182 848 125 848 q 281 825 239 848 q 358 720 340 787 q 378 586 377 652 q 383 324 385 455 q 383 253 383 289 q 384 222 383 238 q 379 117 387 170 q 334 25 372 64 q 269 -5 307 0 q 117 29 180 -18 q 33 160 53 76 q 23 520 0 339 q 37 643 29 582 q 43 700 41 671 q 45 718 45 709 q 55 775 47 747 q 85 821 62 803 l 85 821 m 208 245 q 211 246 210 246 q 236 273 227 252 q 248 310 245 294 q 238 520 270 416 q 222 549 235 537 q 191 543 204 562 q 168 490 177 524 q 155 425 159 456 q 151 382 151 393 q 164 291 150 336 q 180 261 169 277 q 208 245 191 245 l 208 245 m 365 897 q 322 869 353 875 q 269 864 291 863 q 239 867 253 863 q 217 884 226 871 q 203 918 208 900 q 200 928 201 923 q 199 932 199 930 q 191 955 196 941 q 179 976 186 968 q 164 974 172 983 q 147 929 151 954 q 139 899 144 913 q 113 876 130 880 q 77 874 96 871 q 64 876 71 876 q 35 882 50 878 q 9 895 20 886 q 2 921 -3 907 q 16 949 7 936 q 19 953 18 951 q 98 1084 60 1018 q 130 1141 115 1112 q 136 1152 133 1145 q 145 1170 140 1161 q 158 1181 150 1178 q 190 1176 175 1188 q 216 1145 204 1164 q 234 1111 227 1126 q 238 1103 236 1107 q 317 983 273 1041 q 349 939 333 961 q 354 932 351 936 q 364 916 360 924 q 365 897 368 907 l 365 897 z "},"õ":{"ha":420,"x_min":-55,"x_max":465,"o":"m 85 821 q 182 848 125 848 q 281 825 239 848 q 358 720 340 787 q 378 586 377 652 q 383 324 385 455 q 383 253 383 289 q 384 222 383 238 q 379 117 387 170 q 334 25 372 64 q 269 -5 307 0 q 117 29 180 -18 q 33 160 53 76 q 23 520 0 339 q 37 643 29 582 q 43 700 41 671 q 45 718 45 709 q 55 775 47 747 q 85 821 62 803 l 85 821 m 208 245 q 211 246 210 246 q 236 273 227 252 q 248 310 245 294 q 238 520 270 416 q 222 549 235 537 q 191 543 204 562 q 168 490 177 524 q 155 425 159 456 q 151 382 151 393 q 164 291 150 336 q 180 261 169 277 q 208 245 191 245 l 208 245 m 83 900 q 75 897 79 899 q 74 897 75 897 q 56 886 64 892 q 27 873 45 876 q -4 879 12 872 q -31 897 -19 886 q -50 928 -45 910 q -33 982 -55 960 q 96 1026 22 1033 q 210 1008 154 1021 q 239 1000 224 1004 q 312 989 276 985 q 342 1002 330 994 q 361 1011 351 1008 q 383 1015 370 1015 q 405 1009 394 1014 q 425 1000 416 1005 q 453 974 444 990 q 449 924 465 945 q 407 890 433 903 q 286 865 345 859 q 164 888 226 870 q 123 898 144 893 q 83 900 103 903 l 83 900 z "},"ö":{"ha":420,"x_min":-1,"x_max":387,"o":"m 85 821 q 182 848 125 848 q 281 825 239 848 q 358 720 340 787 q 378 586 377 652 q 383 324 385 455 q 383 253 383 289 q 384 222 383 238 q 379 117 387 170 q 334 25 372 64 q 269 -5 307 0 q 117 29 180 -18 q 33 160 53 76 q 23 520 0 339 q 37 643 29 582 q 43 700 41 671 q 45 718 45 709 q 55 775 47 747 q 85 821 62 803 l 85 821 m 208 245 q 211 246 210 246 q 236 273 227 252 q 248 310 245 294 q 238 520 270 416 q 222 549 235 537 q 191 543 204 562 q 168 490 177 524 q 155 425 159 456 q 151 382 151 393 q 164 291 150 336 q 180 261 169 277 q 208 245 191 245 l 208 245 m 31 880 q 6 929 13 901 q -1 981 -1 956 q 6 1010 0 996 q 27 1029 12 1023 q 62 1028 44 1035 q 94 1008 81 1021 q 125 951 120 983 q 113 891 130 919 q 82 865 103 873 q 31 880 50 857 l 31 880 m 272 880 q 246 929 253 901 q 240 981 239 956 q 246 1010 240 996 q 267 1029 252 1023 q 302 1028 284 1035 q 334 1008 321 1021 q 365 951 360 983 q 353 891 370 919 q 322 865 343 873 q 272 880 290 857 l 272 880 z "},"÷":{"ha":711,"x_min":0,"x_max":677,"o":"m 623 524 q 675 402 677 488 q 648 356 673 368 q 591 349 623 345 q 357 355 474 355 q 284 356 321 356 q 103 377 194 353 q 1 510 12 401 q 4 529 0 520 q 20 542 9 538 q 41 545 30 546 q 340 530 190 530 q 456 538 398 532 q 537 543 497 541 q 623 524 590 546 l 623 524 m 252 170 q 261 217 254 195 q 286 256 268 240 q 334 273 307 274 q 415 211 393 267 q 409 106 438 155 q 408 104 408 105 q 350 71 385 76 q 303 73 327 66 q 267 100 279 79 q 252 170 250 132 l 252 170 m 252 734 q 261 782 254 760 q 286 821 268 805 q 334 838 307 838 q 415 776 393 831 q 409 671 438 720 q 408 669 408 669 q 350 635 385 641 q 303 637 327 631 q 267 665 279 644 q 252 734 250 696 l 252 734 z "},"ø":{"ha":570,"x_min":0,"x_max":734,"o":"m 328 256 q 351 245 337 245 l 354 246 q 379 273 370 252 q 391 310 388 294 q 396 340 394 326 q 351 286 374 313 q 328 256 339 271 m 377 533 q 366 549 373 542 q 334 543 347 562 q 311 490 320 524 q 302 446 305 468 l 370 525 q 377 533 373 529 m 160 286 q 166 520 151 402 q 180 643 172 582 q 186 700 184 671 q 189 718 188 709 q 198 775 191 747 q 229 821 205 803 q 326 848 269 848 q 425 825 382 848 q 502 720 483 787 q 510 686 506 703 q 549 730 529 709 q 567 752 558 741 q 634 816 598 792 q 718 805 671 840 q 733 784 729 797 q 731 769 734 777 q 725 755 729 762 q 617 614 681 686 q 583 572 598 591 l 525 500 q 526 324 528 412 l 526 253 q 527 222 526 238 q 522 117 530 170 q 477 25 515 64 q 412 -5 450 0 q 260 29 323 -18 q 200 97 222 56 l 180 70 q 168 54 174 62 q 138 16 155 33 q 96 -1 121 -1 q 86 1 91 0 q 39 30 60 10 q 12 61 23 43 q 1 98 0 78 q 15 130 3 116 q 39 157 26 144 l 52 169 q 124 246 88 207 q 160 286 142 266 z "},"ù":{"ha":535,"x_min":0,"x_max":501,"o":"m 351 77 l 351 77 q 324 72 338 79 q 298 55 311 64 q 277 41 286 46 q 203 10 241 24 q 116 -9 166 -3 q 31 8 65 -16 q 5 55 11 26 q 1 109 0 83 q 7 199 3 153 q 10 254 9 227 q 15 745 23 499 q 22 802 12 775 q 66 838 37 829 q 127 841 96 847 q 227 779 189 830 q 260 667 258 728 q 257 483 264 574 q 253 361 254 422 q 257 328 252 345 q 278 304 262 311 q 310 308 295 298 q 330 333 324 317 q 336 377 337 354 q 343 725 340 551 q 346 755 343 741 q 358 782 349 770 q 397 799 374 798 q 463 772 436 800 q 486 719 481 749 q 490 659 491 689 q 486 248 488 454 q 494 77 485 162 q 479 3 501 35 q 444 -21 466 -14 q 401 -27 422 -27 q 354 -17 376 -27 q 333 16 332 -3 q 343 55 334 35 q 351 77 348 66 m 121 1130 l 121 1130 q 121 1133 121 1132 q 148 1155 125 1150 q 195 1157 170 1160 q 233 1151 220 1155 q 271 1105 252 1141 q 302 1035 289 1068 q 313 1009 309 1019 q 330 972 321 991 q 357 914 342 943 q 363 880 366 898 q 335 851 356 859 q 294 844 313 844 q 242 866 260 844 q 211 915 223 887 q 166 1011 189 963 q 142 1063 154 1037 q 134 1082 139 1069 q 125 1110 130 1096 q 121 1130 121 1124 z "},"ú":{"ha":535,"x_min":0,"x_max":501,"o":"m 351 77 l 351 77 q 324 72 338 79 q 298 55 311 64 q 277 41 286 46 q 203 10 241 24 q 116 -9 166 -3 q 31 8 65 -16 q 5 55 11 26 q 1 109 0 83 q 7 199 3 153 q 10 254 9 227 q 15 745 23 499 q 22 802 12 775 q 66 838 37 829 q 127 841 96 847 q 227 779 189 830 q 260 667 258 728 q 257 483 264 574 q 253 361 254 422 q 257 328 252 345 q 278 304 262 311 q 310 308 295 298 q 330 333 324 317 q 336 377 337 354 q 343 725 340 551 q 346 755 343 741 q 358 782 349 770 q 397 799 374 798 q 463 772 436 800 q 486 719 481 749 q 490 659 491 689 q 486 248 488 454 q 494 77 485 162 q 479 3 501 35 q 444 -21 466 -14 q 401 -27 422 -27 q 354 -17 376 -27 q 333 16 332 -3 q 343 55 334 35 q 351 77 348 66 m 364 1130 q 360 1110 364 1124 q 351 1082 355 1096 q 343 1063 346 1069 q 319 1011 331 1037 q 274 915 296 963 q 243 866 262 887 q 191 844 224 844 q 150 851 172 844 q 121 880 129 859 q 128 914 119 898 q 155 972 142 943 q 172 1009 163 991 q 183 1035 176 1019 q 214 1105 196 1068 q 252 1151 233 1141 q 290 1157 265 1155 q 337 1155 315 1160 q 363 1133 359 1150 q 364 1130 364 1132 l 364 1130 z "},"û":{"ha":535,"x_min":0,"x_max":501,"o":"m 351 77 l 351 77 q 324 72 338 79 q 298 55 311 64 q 277 41 286 46 q 203 10 241 24 q 116 -9 166 -3 q 31 8 65 -16 q 5 55 11 26 q 1 109 0 83 q 7 199 3 153 q 10 254 9 227 q 15 745 23 499 q 22 802 12 775 q 66 838 37 829 q 127 841 96 847 q 227 779 189 830 q 260 667 258 728 q 257 483 264 574 q 253 361 254 422 q 257 328 252 345 q 278 304 262 311 q 310 308 295 298 q 330 333 324 317 q 336 377 337 354 q 343 725 340 551 q 346 755 343 741 q 358 782 349 770 q 397 799 374 798 q 463 772 436 800 q 486 719 481 749 q 490 659 491 689 q 486 248 488 454 q 494 77 485 162 q 479 3 501 35 q 444 -21 466 -14 q 401 -27 422 -27 q 354 -17 376 -27 q 333 16 332 -3 q 343 55 334 35 q 351 77 348 66 m 450 886 q 407 859 438 865 q 353 854 376 853 q 324 857 338 853 q 302 873 311 861 q 288 908 293 890 q 285 918 286 913 q 283 922 284 920 q 276 944 281 930 q 264 966 271 958 q 249 964 257 973 q 232 919 236 944 q 224 889 229 903 q 198 865 215 870 q 162 864 182 861 q 149 866 156 865 q 119 872 134 868 q 94 884 104 876 q 87 911 82 897 q 101 939 92 926 q 104 943 102 941 q 183 1074 144 1008 q 215 1131 199 1102 q 220 1141 218 1135 q 230 1159 224 1151 q 243 1171 235 1168 q 274 1166 260 1178 q 300 1135 289 1154 q 319 1101 312 1116 q 323 1093 321 1097 q 402 973 357 1031 q 434 929 418 951 q 439 922 436 926 q 449 905 445 914 q 450 886 453 897 l 450 886 z "},"ü":{"ha":535,"x_min":0,"x_max":501,"o":"m 351 77 l 351 77 q 324 72 338 79 q 298 55 311 64 q 277 41 286 46 q 203 10 241 24 q 116 -9 166 -3 q 31 8 65 -16 q 5 55 11 26 q 1 109 0 83 q 7 199 3 153 q 10 254 9 227 q 15 745 23 499 q 22 802 12 775 q 66 838 37 829 q 127 841 96 847 q 227 779 189 830 q 260 667 258 728 q 257 483 264 574 q 253 361 254 422 q 257 328 252 345 q 278 304 262 311 q 310 308 295 298 q 330 333 324 317 q 336 377 337 354 q 343 725 340 551 q 346 755 343 741 q 358 782 349 770 q 397 799 374 798 q 463 772 436 800 q 486 719 481 749 q 490 659 491 689 q 486 248 488 454 q 494 77 485 162 q 479 3 501 35 q 444 -21 466 -14 q 401 -27 422 -27 q 354 -17 376 -27 q 333 16 332 -3 q 343 55 334 35 q 351 77 348 66 m 99 883 q 74 932 81 905 q 68 985 66 960 q 74 1013 68 1000 q 95 1033 80 1027 q 130 1031 112 1038 q 162 1012 149 1025 q 193 954 188 986 q 181 895 198 922 q 150 869 171 877 q 99 883 118 861 l 99 883 m 340 883 q 314 932 321 905 q 308 985 307 960 q 314 1013 308 1000 q 335 1033 320 1027 q 371 1031 352 1038 q 403 1012 389 1025 q 433 954 428 986 q 421 895 438 922 q 390 869 411 877 q 340 883 358 861 l 340 883 z "},"ý":{"ha":577,"x_min":0,"x_max":543,"o":"m 336 241 q 326 242 332 242 q 298 234 311 242 q 273 216 286 227 q 245 197 259 205 q 121 184 184 164 q 46 263 68 208 q 17 479 8 368 q 26 646 19 563 q 27 665 27 655 q 36 720 28 694 q 73 758 43 745 q 216 726 154 784 q 241 670 236 702 q 245 608 247 638 q 221 397 245 501 q 230 403 222 400 q 245 409 237 406 q 256 412 253 411 q 294 457 282 429 q 313 562 313 507 q 332 667 314 616 q 401 723 354 713 q 486 699 448 734 q 518 641 511 674 q 528 574 526 608 q 528 572 528 573 q 502 146 543 357 q 443 -44 485 50 q 316 -193 400 -138 q 130 -198 225 -239 q 47 -144 81 -180 q 4 -41 8 -100 q 15 57 0 3 q 74 130 30 112 q 130 125 102 138 q 186 96 159 113 q 224 73 206 82 q 312 77 277 52 q 353 159 348 102 q 354 165 353 161 q 355 208 356 184 q 336 241 353 232 l 336 241 m 422 1062 q 418 1042 422 1056 q 409 1015 414 1028 q 401 995 404 1001 q 376 943 389 969 q 332 847 355 895 q 301 798 320 819 q 250 775 282 777 q 208 783 229 775 q 180 812 186 791 q 186 846 176 830 q 213 903 200 874 q 230 941 221 922 q 241 966 234 950 q 272 1037 254 1000 q 311 1082 290 1073 q 348 1089 323 1087 q 395 1087 373 1092 q 421 1065 418 1082 q 422 1062 422 1063 l 422 1062 z "},"þ":{"ha":685,"x_min":0,"x_max":0,"o":""},"ÿ":{"ha":577,"x_min":0,"x_max":543,"o":"m 336 241 q 326 242 332 242 q 298 234 311 242 q 273 216 286 227 q 245 197 259 205 q 121 184 184 164 q 46 263 68 208 q 17 479 8 368 q 26 646 19 563 q 27 665 27 655 q 36 720 28 694 q 73 758 43 745 q 216 726 154 784 q 241 670 236 702 q 245 608 247 638 q 221 397 245 501 q 230 403 222 400 q 245 409 237 406 q 256 412 253 411 q 294 457 282 429 q 313 562 313 507 q 332 667 314 616 q 401 723 354 713 q 486 699 448 734 q 518 641 511 674 q 528 574 526 608 q 528 572 528 573 q 502 146 543 357 q 443 -44 485 50 q 316 -193 400 -138 q 130 -198 225 -239 q 47 -144 81 -180 q 4 -41 8 -100 q 15 57 0 3 q 74 130 30 112 q 130 125 102 138 q 186 96 159 113 q 224 73 206 82 q 312 77 277 52 q 353 159 348 102 q 354 165 353 161 q 355 208 356 184 q 336 241 353 232 l 336 241 m 140 799 q 114 847 121 820 q 109 900 107 875 q 115 928 109 915 q 136 948 121 942 q 171 947 153 954 q 203 927 189 940 q 234 869 229 901 q 222 810 239 838 q 191 784 212 792 q 140 799 159 777 l 140 799 m 380 799 q 354 847 361 820 q 349 900 347 875 q 355 928 349 915 q 376 948 361 942 q 411 947 393 954 q 443 927 430 940 q 474 869 469 901 q 462 810 479 838 q 431 784 452 792 q 380 799 399 777 l 380 799 z "},"ı":{"ha":250,"x_min":0,"x_max":216,"o":"m 203 550 l 203 550 q 199 496 201 524 q 195 431 196 463 q 203 299 195 366 q 210 123 216 211 q 188 46 206 82 q 126 -3 167 8 q 62 13 92 -8 q 19 66 33 33 q 5 186 0 124 q 6 224 6 205 q 9 363 6 294 q 12 401 11 382 q 14 469 13 435 q 17 562 14 515 q 18 583 18 572 q 21 643 20 612 q 20 664 21 652 q 20 695 19 680 q 32 722 22 711 q 65 733 45 734 q 102 726 85 731 q 150 708 127 720 q 185 672 173 696 q 203 550 208 614 z "},"ˆ":{"ha":405,"x_min":0,"x_max":371,"o":"m 367 1088 q 325 1060 355 1065 q 271 1055 294 1055 q 242 1058 256 1054 q 220 1075 229 1061 q 205 1109 211 1090 q 203 1119 204 1114 q 201 1123 202 1120 q 194 1145 199 1132 q 181 1167 189 1159 q 167 1165 174 1175 q 150 1120 154 1145 q 142 1090 147 1104 q 116 1066 133 1072 q 80 1065 99 1061 q 67 1067 74 1066 q 37 1073 52 1069 q 12 1086 22 1076 q 5 1113 0 1098 q 18 1139 9 1127 q 22 1144 20 1141 q 101 1275 62 1208 q 133 1331 117 1303 q 138 1342 136 1337 q 147 1360 142 1352 q 160 1373 153 1369 q 192 1367 177 1379 q 218 1336 207 1355 q 237 1302 229 1317 q 241 1295 239 1297 q 319 1174 275 1232 q 351 1130 336 1152 q 356 1123 354 1126 q 367 1107 363 1116 q 367 1088 371 1098 l 367 1088 z "},"ˇ":{"ha":405,"x_min":0,"x_max":371,"o":"m 367 1342 l 367 1342 q 367 1323 371 1331 q 356 1306 363 1314 q 351 1299 354 1303 q 319 1255 336 1278 q 241 1135 275 1198 q 237 1128 239 1132 q 218 1093 229 1112 q 192 1062 207 1074 q 160 1057 177 1050 q 147 1069 153 1061 q 138 1087 142 1078 q 133 1098 136 1093 q 101 1155 117 1126 q 22 1286 62 1221 q 18 1290 20 1288 q 5 1317 9 1303 q 12 1344 0 1331 q 37 1357 22 1353 q 67 1362 52 1360 q 80 1364 74 1363 q 116 1363 99 1368 q 142 1339 133 1358 q 150 1310 147 1325 q 167 1264 154 1284 q 181 1263 174 1255 q 194 1284 189 1270 q 201 1306 199 1297 q 203 1310 202 1309 q 205 1320 204 1316 q 220 1355 211 1339 q 242 1372 229 1368 q 271 1375 256 1375 q 325 1370 294 1375 q 367 1342 355 1364 z "},"ˉ":{"ha":694,"x_min":0,"x_max":0,"o":""},"˘":{"ha":694,"x_min":0,"x_max":0,"o":""},"˙":{"ha":694,"x_min":0,"x_max":0,"o":""},"˚":{"ha":281,"x_min":0,"x_max":248,"o":"m 247 1204 l 247 1204 q 248 1197 248 1200 q 237 1143 247 1169 q 172 1069 218 1095 q 75 1063 126 1044 q 10 1130 28 1082 q 0 1196 0 1160 q 7 1262 1 1231 q 42 1334 14 1305 q 116 1359 70 1363 q 208 1304 172 1350 q 247 1204 244 1259 m 122 1138 l 122 1138 q 136 1146 130 1141 q 153 1175 149 1158 q 153 1215 158 1195 q 141 1234 149 1225 q 121 1240 132 1242 q 106 1231 113 1237 q 87 1201 95 1219 q 79 1166 79 1183 q 94 1141 81 1148 q 122 1138 106 1133 z "},"˛":{"ha":694,"x_min":0,"x_max":0,"o":""},"˜":{"ha":694,"x_min":0,"x_max":0,"o":""},"˝":{"ha":694,"x_min":0,"x_max":0,"o":""},"–":{"ha":1071,"x_min":0,"x_max":1037,"o":"m 954 524 q 1034 402 1037 488 q 992 356 1030 368 q 905 349 955 345 q 547 355 726 355 q 435 356 490 356 q 157 377 297 353 q 1 510 17 401 q 5 529 0 520 q 30 542 14 538 q 62 545 45 546 q 520 530 291 530 q 699 538 610 532 q 823 543 760 541 q 954 524 903 546 l 954 524 z "},"—":{"ha":1132,"x_min":0,"x_max":1098,"o":"m 1082 375 q 1052 366 1069 367 q 1017 368 1035 366 q 998 368 1007 368 q 890 369 944 369 q 672 370 781 370 q 231 368 452 370 q 92 382 159 364 q 27 427 54 396 q 14 494 0 458 q 59 517 24 511 q 123 524 94 523 q 139 526 133 525 q 409 530 273 536 q 517 527 463 528 q 690 528 604 527 q 935 526 813 528 q 964 526 949 526 q 1030 513 998 524 q 1080 477 1063 503 q 1096 427 1094 453 q 1096 399 1098 414 q 1082 375 1094 385 l 1082 375 z "},"‘":{"ha":198,"x_min":0,"x_max":164,"o":"m 94 943 q 114 943 102 941 q 126 944 120 944 q 135 941 132 944 q 153 918 148 932 q 159 892 158 905 q 161 885 160 888 q 164 860 164 873 q 152 840 163 847 q 125 835 140 833 q 49 843 87 833 q 3 887 10 852 q 9 974 0 931 q 46 1038 15 1012 q 114 1069 75 1060 q 127 1069 121 1071 q 138 1055 136 1067 q 141 1031 141 1044 q 140 1013 141 1019 q 119 973 137 989 q 111 968 117 971 q 98 959 104 964 q 90 950 92 955 q 94 943 87 946 l 94 943 z "},"’":{"ha":198,"x_min":0,"x_max":164,"o":"m 70 962 q 50 962 62 964 q 39 961 44 961 q 29 963 33 961 q 12 986 16 972 q 5 1013 7 1000 q 3 1019 4 1016 q 0 1045 0 1032 q 13 1065 1 1058 q 39 1070 24 1071 q 115 1061 77 1071 q 161 1017 154 1052 q 155 930 164 973 q 118 867 149 893 q 50 836 89 844 q 37 835 43 833 q 26 849 28 838 q 23 874 23 861 q 24 892 24 886 q 45 932 27 916 q 54 937 48 934 q 66 945 60 941 q 75 955 73 950 q 70 962 77 959 l 70 962 z "},"‚":{"ha":198,"x_min":0,"x_max":164,"o":"m 70 -7 q 50 -7 61 -5 q 38 -8 44 -8 q 28 -5 33 -8 q 11 18 16 4 q 4 44 6 31 q 3 51 4 47 q 0 76 0 63 q 12 96 1 89 q 39 101 24 102 q 115 93 77 102 q 161 49 154 83 q 154 -38 164 5 q 118 -102 149 -76 q 50 -133 89 -124 q 37 -134 43 -135 q 26 -119 28 -131 q 23 -95 23 -108 q 24 -77 23 -83 q 45 -37 27 -54 q 53 -32 47 -35 q 66 -23 60 -28 q 75 -15 73 -19 q 70 -7 77 -10 l 70 -7 z "},"“":{"ha":385,"x_min":0,"x_max":351,"o":"m 94 943 q 114 943 102 941 q 126 944 120 944 q 135 941 132 944 q 153 918 148 932 q 159 892 158 905 q 161 885 160 888 q 164 860 164 873 q 152 840 163 847 q 125 835 140 833 q 49 843 87 833 q 3 887 10 852 q 9 974 0 931 q 46 1038 15 1012 q 114 1069 75 1060 q 127 1069 121 1071 q 138 1055 136 1067 q 141 1031 141 1044 q 140 1013 141 1019 q 119 973 137 989 q 111 968 117 971 q 98 959 104 964 q 90 950 92 955 q 94 943 87 946 l 94 943 m 281 943 q 301 943 290 941 q 313 944 307 944 q 322 941 318 944 q 339 918 334 932 q 347 892 345 905 q 348 885 347 888 q 351 860 351 873 q 338 840 351 847 q 312 835 327 833 q 236 843 275 833 q 191 887 197 852 q 197 974 187 931 q 233 1038 202 1012 q 301 1069 262 1060 q 314 1069 308 1071 q 326 1055 323 1067 q 328 1031 328 1044 q 327 1013 328 1019 q 306 973 324 989 q 298 968 303 971 q 285 959 292 964 q 277 950 279 955 q 281 943 275 946 l 281 943 z "},"”":{"ha":385,"x_min":0,"x_max":351,"o":"m 70 962 q 50 962 62 964 q 39 961 44 961 q 29 963 33 961 q 12 986 16 972 q 5 1013 7 1000 q 3 1019 4 1016 q 0 1045 0 1032 q 13 1065 1 1058 q 39 1070 24 1071 q 115 1061 77 1071 q 161 1017 154 1052 q 155 930 164 973 q 118 867 149 893 q 50 836 89 844 q 37 835 43 833 q 26 849 28 838 q 23 874 23 861 q 24 892 24 886 q 45 932 27 916 q 54 937 48 934 q 66 945 60 941 q 75 955 73 950 q 70 962 77 959 l 70 962 m 257 962 q 237 962 248 964 q 225 961 231 961 q 216 963 220 961 q 198 986 203 972 q 191 1013 193 1000 q 191 1019 191 1016 q 188 1045 187 1032 q 199 1065 188 1058 q 227 1070 212 1071 q 302 1061 264 1071 q 348 1017 341 1052 q 341 930 351 973 q 305 867 336 893 q 237 836 276 844 q 224 835 231 833 q 213 849 216 838 q 210 874 210 861 q 212 892 210 886 q 232 932 214 916 q 240 937 235 934 q 253 945 247 941 q 262 955 260 950 q 257 962 264 959 l 257 962 z "},"„":{"ha":388,"x_min":0,"x_max":354,"o":"m 70 -7 q 50 -7 61 -5 q 38 -8 44 -8 q 28 -5 33 -8 q 11 18 16 4 q 4 44 6 31 q 3 51 4 47 q 0 76 0 63 q 12 96 1 89 q 39 101 24 102 q 115 93 77 102 q 161 49 154 83 q 154 -38 164 5 q 118 -102 149 -76 q 50 -133 89 -124 q 37 -134 43 -135 q 26 -119 28 -131 q 23 -95 23 -108 q 24 -77 23 -83 q 45 -37 27 -54 q 53 -32 47 -35 q 66 -23 60 -28 q 75 -15 73 -19 q 70 -7 77 -10 l 70 -7 m 260 -7 q 240 -7 252 -5 q 229 -8 234 -8 q 219 -5 223 -8 q 202 18 207 4 q 195 44 197 31 q 193 51 194 47 q 191 76 191 63 q 203 96 191 89 q 229 101 214 102 q 305 93 267 102 q 351 49 344 83 q 345 -38 354 5 q 309 -102 339 -76 q 240 -133 279 -124 q 227 -134 233 -135 q 216 -119 218 -131 q 213 -95 213 -108 q 214 -77 214 -83 q 235 -37 217 -54 q 243 -32 238 -35 q 256 -23 250 -28 q 264 -15 262 -19 q 260 -7 267 -10 l 260 -7 z "},"†":{"ha":711,"x_min":0,"x_max":677,"o":"m 439 458 q 437 426 435 442 q 437 416 437 421 q 435 373 437 395 q 432 337 432 355 q 439 247 431 292 q 445 153 441 227 q 448 3 448 78 q 444 -90 448 -71 q 377 -138 428 -132 q 288 -132 326 -145 q 254 -34 263 -117 q 245 136 245 49 q 248 250 245 223 q 259 355 253 302 q 260 366 260 361 q 263 384 261 374 q 269 426 268 404 q 259 460 271 448 q 204 480 240 475 q 130 485 169 484 q 71 488 98 486 q 35 501 51 489 q 18 535 22 515 q 18 536 18 536 q 3 621 6 573 q 35 692 0 668 q 77 702 52 701 q 130 700 102 702 q 205 700 171 696 q 252 732 239 704 q 256 780 259 755 q 253 828 255 804 q 252 956 245 893 q 283 987 258 982 q 337 986 309 993 q 378 968 365 979 q 415 897 406 939 q 425 817 425 856 q 425 795 425 807 q 428 732 422 763 q 464 693 434 701 q 496 694 480 691 q 504 694 500 694 q 532 699 516 696 q 593 703 566 707 q 643 678 623 699 q 650 566 677 630 q 573 482 624 503 q 524 474 552 476 q 475 473 496 473 q 475 473 475 473 q 459 472 467 473 q 445 466 450 471 q 439 458 441 463 l 439 458 z "},"‡":{"ha":688,"x_min":0,"x_max":0,"o":""},"•":{"ha":351,"x_min":0,"x_max":317,"o":"m 4 473 q 19 553 7 515 q 60 618 31 592 q 141 646 95 648 q 278 542 240 635 q 267 366 317 449 q 264 363 266 364 q 168 307 228 316 q 90 311 130 300 q 28 356 50 321 q 4 473 0 410 l 4 473 z "},"…":{"ha":742,"x_min":0,"x_max":708,"o":"m 3 1 q 11 48 4 26 q 35 87 18 71 q 84 104 56 104 q 166 42 143 98 q 159 -63 189 -14 q 157 -65 158 -64 q 100 -98 136 -93 q 53 -96 77 -102 q 16 -69 29 -90 q 3 1 0 -37 l 3 1 m 267 1 q 276 48 269 26 q 300 87 283 71 q 349 104 321 104 q 431 42 408 98 q 424 -63 454 -14 q 422 -65 423 -64 q 365 -98 401 -93 q 318 -96 342 -102 q 281 -69 294 -90 q 267 1 265 -37 l 267 1 m 522 1 q 531 48 524 26 q 555 87 538 71 q 604 104 576 104 q 685 42 663 98 q 679 -63 708 -14 q 677 -65 678 -64 q 620 -98 655 -93 q 573 -96 597 -102 q 536 -69 549 -90 q 522 1 519 -37 l 522 1 z "},"‹":{"ha":428,"x_min":0,"x_max":0,"o":""},"›":{"ha":428,"x_min":0,"x_max":0,"o":""},"⁄":{"ha":232,"x_min":0,"x_max":0,"o":""},"∕":{"ha":232,"x_min":0,"x_max":0,"o":""},"₣":{"ha":688,"x_min":0,"x_max":0,"o":""},"₤":{"ha":688,"x_min":0,"x_max":0,"o":""},"₧":{"ha":1375,"x_min":0,"x_max":0,"o":""},"€":{"ha":641,"x_min":0,"x_max":607,"o":"m 587 250 l 587 250 q 596 223 593 237 q 593 126 607 178 q 537 49 580 75 q 324 -1 439 -4 q 153 114 209 2 q 130 257 129 184 q 126 329 130 293 q 33 393 113 405 q 6 413 12 393 q 3 459 0 434 q 11 497 6 484 q 55 540 21 532 q 79 539 66 541 q 99 538 89 537 q 117 546 109 538 q 129 570 132 559 q 114 587 125 581 q 90 597 102 594 q 81 598 85 597 q 54 606 66 600 q 41 630 43 612 q 41 705 36 668 q 52 734 43 721 q 95 754 68 753 q 117 754 106 755 q 145 755 131 753 q 148 771 146 763 q 177 888 157 831 q 428 1073 243 1063 q 513 1046 475 1073 q 562 954 554 1010 q 550 872 571 909 q 510 847 532 846 q 465 858 488 848 q 445 865 455 862 q 334 841 381 886 q 308 803 323 828 q 291 757 292 778 q 321 739 290 736 q 362 725 353 741 q 373 684 372 709 q 376 665 374 674 q 369 618 379 642 q 337 586 359 595 q 316 584 328 583 q 295 587 305 585 q 287 589 291 588 q 251 588 269 593 q 236 577 242 585 q 231 560 231 570 q 243 543 233 549 q 266 536 254 536 q 287 537 276 536 q 312 539 299 539 q 349 522 333 536 q 373 488 365 508 q 385 429 383 463 q 364 375 387 395 q 338 369 355 368 q 303 373 321 370 q 270 376 285 376 q 251 368 256 376 q 250 347 248 358 q 284 243 256 292 q 332 209 301 216 q 371 215 352 206 q 406 239 390 224 q 485 288 440 270 q 572 271 530 305 q 587 250 581 261 z "},"№":{"ha":1540,"x_min":0,"x_max":0,"o":""},"™":{"ha":1015,"x_min":0,"x_max":0,"o":""},"∂":{"ha":688,"x_min":0,"x_max":0,"o":""},"∆":{"ha":733,"x_min":0,"x_max":0,"o":""},"∏":{"ha":1027,"x_min":0,"x_max":0,"o":""},"∑":{"ha":818,"x_min":0,"x_max":0,"o":""},"−":{"ha":688,"x_min":0,"x_max":0,"o":""},"√":{"ha":688,"x_min":0,"x_max":0,"o":""},"∞":{"ha":688,"x_min":0,"x_max":0,"o":""},"∫":{"ha":451,"x_min":0,"x_max":0,"o":""},"≈":{"ha":688,"x_min":0,"x_max":0,"o":""},"≤":{"ha":688,"x_min":0,"x_max":0,"o":""},"≥":{"ha":688,"x_min":0,"x_max":0,"o":""},"":{"ha":728,"x_min":0,"x_max":0,"o":""},"ﬁ":{"ha":728,"x_min":0,"x_max":0,"o":""},"":{"ha":733,"x_min":0,"x_max":0,"o":""},"ﬂ":{"ha":733,"x_min":0,"x_max":0,"o":""},"":{"ha":1143,"x_min":0,"x_max":1110,"o":"m 391 361 l 391 361 q 483 374 433 391 q 543 304 532 357 q 530 214 548 260 q 484 135 513 169 q 274 2 399 38 q 164 4 216 -16 q 52 149 77 52 q 14 451 0 296 q 62 628 18 544 q 274 770 132 751 q 449 717 370 776 q 527 612 502 676 q 541 481 552 547 q 519 438 538 455 q 459 425 492 420 q 430 429 444 427 q 290 427 358 444 q 231 347 233 404 q 256 243 229 290 q 279 221 264 228 q 307 225 294 217 q 337 255 327 237 q 354 296 347 274 q 391 361 363 334 m 355 602 l 355 602 q 342 617 350 611 q 321 625 334 624 q 281 620 306 627 q 237 600 256 614 q 221 566 218 587 q 228 558 222 560 q 239 556 233 557 q 241 556 239 556 q 298 552 268 551 q 351 568 328 552 q 355 602 368 585 m 916 402 l 916 402 q 923 407 920 405 q 1005 411 962 426 q 1060 352 1048 395 q 1048 275 1064 313 q 1042 258 1045 266 q 1004 155 1027 204 q 840 3 952 45 q 733 3 786 -16 q 660 67 687 24 q 620 159 633 110 q 587 489 573 321 q 634 681 593 590 q 854 834 703 818 q 1029 773 953 837 q 1109 595 1105 702 q 1108 544 1110 576 q 1096 483 1107 511 q 1061 451 1086 455 q 1037 455 1049 451 q 1036 455 1036 455 q 870 473 954 477 q 799 427 819 467 q 783 336 779 387 q 808 249 788 286 q 815 242 811 245 q 824 239 819 239 q 845 253 837 240 q 859 283 854 267 q 866 313 864 300 q 868 319 867 316 q 916 402 877 370 m 932 654 l 932 654 q 899 678 920 673 q 858 671 886 680 q 809 647 830 663 q 794 613 787 632 q 803 606 797 608 q 814 604 808 604 q 817 603 816 603 q 875 600 844 600 q 927 618 907 601 q 932 654 943 636 z "},"":{"ha":1099,"x_min":0,"x_max":1086,"o":"m 646 336 q 636 336 642 336 q 609 337 622 337 q 591 336 600 336 q 511 334 551 335 q 472 332 491 333 q 418 331 446 331 q 402 332 414 331 q 377 334 391 333 q 353 333 363 334 q 340 327 342 332 q 340 315 339 321 q 351 138 347 227 q 355 62 353 100 q 356 44 355 54 q 353 -115 365 -29 q 262 -218 341 -201 q 198 -203 227 -222 q 160 -151 170 -184 q 154 -31 148 -92 q 156 39 157 4 q 155 195 153 117 l 155 203 q 157 274 157 238 q 158 288 157 279 q 159 318 160 303 q 144 338 157 333 q 125 340 135 341 q 115 340 120 340 q 78 340 96 338 q 10 401 20 349 q 26 499 0 454 q 68 539 42 526 q 123 562 94 553 l 149 571 q 150 581 151 572 q 149 603 150 591 q 146 623 147 615 q 146 631 146 629 q 151 731 142 681 q 195 821 160 782 q 356 880 262 878 q 458 873 408 886 q 502 853 482 867 q 566 687 587 793 q 541 624 559 655 q 486 594 523 593 q 435 617 458 599 q 416 629 425 624 q 378 643 398 639 q 340 636 358 646 q 322 615 328 629 q 323 589 317 602 q 342 571 330 577 q 367 564 354 566 q 534 566 451 551 q 647 574 590 574 q 647 581 647 576 q 646 603 647 591 q 644 623 645 615 q 644 631 644 629 q 645 711 640 671 q 691 819 651 773 q 838 879 752 874 q 939 878 889 886 q 1000 854 972 871 q 1029 832 1016 845 q 1064 687 1086 769 q 1039 627 1057 657 q 989 591 1021 597 q 962 598 975 591 q 939 614 950 605 l 932 620 q 870 644 905 642 q 825 625 844 644 q 817 589 812 608 q 848 575 822 570 q 860 579 854 576 l 873 583 q 932 566 906 589 q 964 513 954 543 q 983 436 978 477 q 960 365 987 395 q 900 344 935 341 q 890 345 895 344 q 864 347 877 348 q 846 334 852 346 q 843 304 843 322 q 845 271 844 287 q 846 253 846 260 q 847 216 846 233 q 849 143 848 177 q 852 62 850 109 q 850 -85 860 -11 q 779 -208 840 -159 q 742 -225 762 -220 q 703 -220 721 -230 q 680 -189 688 -208 q 656 -106 660 -145 q 654 -26 652 -68 q 653 39 654 3 q 653 195 650 117 l 653 203 l 654 274 q 656 288 654 279 q 656 318 658 303 q 646 336 655 330 z "},"":{"ha":556,"x_min":0,"x_max":522,"o":"m 19 434 q 20 606 18 519 q 22 702 21 654 q 23 758 22 730 q 3 967 35 868 q 0 983 0 975 q 25 1011 3 1006 q 72 1015 46 1017 q 113 1008 98 1012 q 216 917 196 984 q 234 779 235 850 q 233 391 239 585 q 229 142 230 267 q 187 29 233 77 q 102 -5 155 1 q 24 28 50 -12 q 18 60 17 43 q 18 296 15 178 q 19 434 18 366 l 19 434 m 302 460 q 303 642 302 549 q 304 744 304 692 q 307 803 305 772 q 287 1024 318 920 q 283 1041 283 1032 q 308 1071 287 1065 q 355 1075 330 1078 q 397 1067 381 1072 q 499 971 479 1042 q 517 825 519 901 q 515 415 522 620 q 512 151 512 283 q 469 31 512 85 q 385 -5 437 2 q 306 31 332 -13 q 300 64 299 46 q 300 314 298 189 q 302 460 302 387 l 302 460 z "},"":{"ha":852,"x_min":1,"x_max":819,"o":"m 518 821 q 615 848 558 848 q 713 825 672 848 q 791 719 772 787 q 811 585 809 651 q 816 323 817 454 q 816 252 816 288 q 816 222 816 237 q 811 116 819 169 q 767 24 804 63 q 701 -5 739 -1 q 549 28 613 -18 q 465 159 485 75 q 456 519 433 338 q 469 642 462 581 q 476 699 473 671 q 478 716 477 707 q 487 773 479 745 q 518 821 494 802 l 518 821 m 640 245 q 644 245 642 245 q 669 272 660 251 q 680 309 677 294 q 670 519 702 415 q 655 548 667 536 q 623 543 637 562 q 600 490 609 524 q 587 424 591 456 q 583 381 583 393 q 597 290 583 334 q 612 260 601 276 q 640 245 623 244 l 640 245 m 96 764 q 184 797 134 793 q 277 778 233 800 q 360 677 340 742 q 382 545 380 613 q 390 240 391 393 q 390 237 390 239 q 384 131 391 185 q 346 33 376 77 q 250 -15 309 -12 q 142 13 191 -17 q 41 144 68 62 q 14 312 14 226 q 14 350 14 331 q 45 691 1 526 q 96 764 62 737 l 96 764 m 213 229 q 216 229 215 229 q 241 255 233 235 q 253 289 250 275 q 243 486 275 389 q 228 513 240 503 q 196 508 210 526 q 174 458 182 490 q 160 397 165 427 q 156 357 156 368 q 170 271 155 313 q 185 243 174 258 q 213 229 197 229 l 213 229 z "},"":{"ha":1314,"x_min":-1,"x_max":1281,"o":"m 1225 758 l 1225 758 q 1249 727 1238 743 q 1261 612 1281 670 q 1192 515 1242 555 q 1168 503 1182 505 q 1147 509 1157 503 q 1128 523 1137 515 q 1099 548 1114 535 q 1069 574 1084 561 q 995 616 1038 607 q 954 605 972 618 q 937 568 935 591 q 947 545 939 555 q 967 527 956 535 q 1029 488 996 506 q 1141 396 1097 454 q 1174 236 1185 324 q 1135 74 1163 149 q 1114 35 1128 54 q 1080 9 1101 17 q 1035 3 1058 3 q 979 1 1006 2 q 866 -3 922 -1 q 849 -3 857 -3 q 728 7 787 -10 q 619 170 622 54 q 636 236 619 206 q 690 277 654 265 q 749 277 720 284 q 806 259 779 271 q 840 248 823 253 q 907 237 867 238 q 966 261 947 235 q 961 300 978 283 q 917 328 943 317 q 873 345 890 340 q 871 346 871 345 q 862 349 866 347 q 781 381 819 362 q 715 439 743 400 q 674 589 671 507 q 862 845 684 781 q 1158 805 1016 879 q 1225 758 1195 787 m 605 721 l 605 721 q 629 692 618 708 q 638 596 650 655 q 594 500 627 537 q 513 494 560 464 q 475 526 493 509 q 444 553 460 540 q 397 576 429 564 q 340 583 366 588 q 317 541 314 578 q 346 502 321 518 q 397 474 370 486 q 430 457 417 465 q 537 351 498 418 q 539 110 591 231 q 347 -14 481 2 q 109 7 213 -31 q 0 161 3 51 q 17 224 -1 196 q 70 263 34 252 q 187 247 131 273 q 220 236 203 241 q 288 225 248 227 q 347 248 328 224 q 341 285 358 269 q 297 312 323 301 q 254 328 271 323 q 251 329 252 329 q 243 332 247 330 q 162 363 199 345 q 96 418 124 381 q 55 561 51 483 q 270 808 81 768 q 605 721 459 848 z "},"":{"ha":1127,"x_min":0,"x_max":1093,"o":"m 680 621 q 695 632 688 625 q 705 657 703 643 q 707 686 707 672 l 707 696 q 707 774 707 735 q 706 795 706 785 q 705 892 704 844 l 705 907 q 707 945 704 926 q 726 974 710 964 q 774 982 748 986 q 850 960 814 979 q 914 869 906 932 q 901 721 922 798 q 892 669 896 694 q 892 642 888 655 q 905 627 897 632 q 923 619 913 621 q 958 616 935 617 q 1026 609 992 615 q 1067 582 1059 602 q 1073 518 1073 554 q 1063 454 1074 482 q 1026 426 1053 426 q 915 414 976 426 q 846 344 853 403 q 845 316 846 330 q 848 196 841 256 q 857 165 849 179 q 874 152 863 156 q 895 153 884 148 q 905 169 904 159 q 904 190 906 180 l 904 191 q 931 311 894 256 q 1009 337 963 347 q 1077 288 1055 327 q 1084 272 1081 280 q 1089 205 1093 239 q 961 14 1072 78 q 767 -1 867 -33 q 671 87 698 24 q 647 220 644 151 q 655 304 650 262 q 663 387 661 345 q 663 402 664 395 q 659 411 661 407 q 600 411 629 410 q 590 410 595 410 q 580 412 585 410 q 552 414 566 412 q 511 421 534 416 q 400 433 455 436 q 335 368 346 431 q 340 186 321 276 q 368 151 349 159 q 397 172 387 142 q 399 218 402 195 q 398 251 397 235 q 458 334 404 311 q 528 327 500 348 q 568 269 555 307 q 488 39 604 125 q 239 6 371 -46 q 161 90 184 35 q 139 203 138 144 q 147 309 140 257 q 148 315 148 313 q 153 341 150 328 q 158 392 161 367 q 140 417 153 415 q 110 414 127 419 q 94 411 102 412 q 39 432 62 408 q 27 547 0 484 q 117 619 54 610 q 136 619 127 620 q 168 621 153 618 q 191 642 182 625 q 199 695 202 667 l 197 774 q 195 853 196 814 q 225 912 196 899 q 293 918 255 926 q 359 886 332 909 q 406 759 414 835 q 395 715 402 736 q 383 671 387 693 q 382 651 381 661 q 389 633 383 641 q 430 617 403 618 q 484 618 458 616 q 506 620 496 620 q 635 621 570 622 l 646 621 q 680 621 660 622 z "},"Œ":{"ha":949,"x_min":0,"x_max":915,"o":"m 913 91 l 913 91 q 824 -3 915 -2 q 610 3 718 -12 q 581 6 596 5 q 527 14 553 7 q 479 43 500 20 q 432 170 430 102 q 384 73 412 118 q 159 24 292 -51 q 46 172 74 81 q 14 359 18 262 q 39 791 0 578 q 43 819 41 805 q 95 1011 54 922 q 200 1089 136 1082 q 330 1057 264 1096 q 420 972 389 1022 q 422 1023 421 999 q 433 1076 425 1061 q 453 1092 441 1091 q 480 1087 465 1092 q 518 1083 498 1081 q 658 1087 581 1093 q 772 1087 720 1082 q 824 1074 800 1093 q 840 1046 836 1063 q 844 1011 844 1029 q 847 988 846 1000 q 846 898 854 939 q 786 843 838 857 q 754 840 774 840 q 714 840 734 840 q 673 840 688 841 q 661 840 667 840 q 640 836 648 840 q 627 812 631 831 q 618 654 612 735 q 618 654 618 654 q 618 648 618 650 q 622 644 619 645 q 639 639 629 640 q 659 639 649 638 q 675 639 669 640 q 748 623 714 636 q 827 549 802 601 q 842 469 848 503 q 783 430 837 435 q 715 431 751 429 q 612 429 662 437 q 618 411 615 424 q 625 384 621 397 q 628 370 626 376 q 630 361 629 363 q 702 288 659 301 q 800 290 745 275 q 814 293 808 291 q 848 298 831 300 q 857 296 853 298 q 864 292 861 295 q 873 277 871 285 q 878 260 876 269 q 878 259 878 260 q 888 218 883 239 q 913 91 907 155 m 300 328 l 300 328 q 320 443 317 374 q 323 549 324 511 q 323 556 323 552 q 317 674 323 625 q 290 780 312 723 q 275 805 285 793 q 253 820 265 817 q 228 809 240 823 q 211 766 216 792 q 205 715 206 739 q 203 699 204 706 q 219 347 189 521 q 229 313 221 328 q 256 292 237 295 q 283 301 273 290 q 300 328 294 312 z "},"œ":{"ha":886,"x_min":0,"x_max":852,"o":"m 608 473 l 608 473 q 535 427 555 469 q 520 334 515 386 q 546 246 524 283 q 552 239 548 242 q 562 236 556 236 q 583 251 574 237 q 596 281 591 264 q 604 311 602 298 q 606 317 605 314 q 655 402 615 370 q 663 407 659 404 q 746 411 702 426 q 802 351 790 395 q 789 272 806 311 q 784 255 786 263 q 744 150 768 201 q 578 -4 692 39 q 469 -3 523 -23 q 380 86 409 24 q 340 17 370 47 q 273 -13 312 -8 q 119 22 184 -26 q 33 155 54 69 q 24 521 0 337 q 37 646 30 584 q 45 704 41 675 q 46 722 45 713 q 56 780 48 751 q 87 827 63 808 q 186 855 128 855 q 286 831 243 855 q 372 694 358 783 q 591 841 443 825 q 770 779 692 844 q 851 599 848 707 q 851 546 852 579 q 839 484 849 513 q 803 452 828 456 q 778 455 790 452 q 777 456 777 456 q 608 473 694 478 m 252 307 l 252 307 q 242 521 275 415 q 227 550 239 538 q 194 544 208 564 q 171 491 180 525 q 158 424 162 456 q 153 381 153 392 q 167 288 153 333 q 183 257 172 273 q 212 241 195 241 q 215 242 213 242 q 240 270 231 248 q 252 307 249 291 m 531 616 l 531 616 q 539 609 534 611 q 551 606 545 607 q 555 606 553 606 q 613 603 581 602 q 666 621 646 604 q 671 658 682 640 q 637 682 659 677 q 596 676 625 684 q 546 651 568 667 q 531 616 524 635 z "},"Š":{"ha":564,"x_min":0,"x_max":530,"o":"m 292 285 q 284 389 303 332 q 233 480 265 445 q 144 543 194 518 q 111 563 127 553 q 26 672 47 604 q 12 812 4 739 q 35 930 16 871 q 98 1031 53 990 q 163 1063 128 1056 q 235 1072 197 1071 q 412 1074 324 1077 q 464 1065 440 1074 q 500 1031 487 1057 q 519 935 519 985 q 522 909 521 922 q 522 741 530 825 q 508 702 519 722 q 480 672 497 682 q 423 686 450 659 q 379 743 397 713 q 368 759 372 753 q 329 791 353 781 q 294 792 311 798 q 264 772 276 787 q 255 742 254 757 q 263 711 256 726 q 279 689 269 696 q 302 675 289 682 q 311 671 307 673 q 442 544 396 627 q 486 350 486 453 q 484 241 487 295 q 483 208 484 224 q 483 167 482 188 q 473 59 486 111 q 404 -14 456 4 q 331 -9 368 -20 q 327 -7 329 -8 q 85 -1 205 24 q 3 62 3 -18 q 3 155 4 109 q 3 275 0 214 q 16 332 4 305 q 65 366 35 366 q 126 353 96 365 q 214 317 171 336 q 235 309 224 313 q 292 285 264 295 l 292 285 m 471 1383 l 471 1383 q 470 1364 474 1373 q 460 1348 466 1355 q 455 1341 457 1344 q 423 1297 439 1318 q 344 1177 378 1239 q 340 1168 342 1173 q 321 1135 333 1154 q 295 1104 310 1116 q 264 1098 281 1092 q 251 1111 256 1102 q 241 1128 245 1119 q 237 1139 239 1134 q 204 1196 220 1168 q 125 1327 165 1262 q 122 1331 123 1329 q 108 1358 113 1343 q 115 1385 103 1373 q 140 1398 125 1394 q 170 1403 155 1402 q 184 1405 178 1404 q 219 1404 203 1409 q 245 1381 236 1399 q 254 1350 250 1367 q 270 1305 257 1325 q 285 1304 278 1296 q 297 1325 292 1312 q 304 1348 302 1339 q 306 1352 306 1350 q 309 1362 308 1356 q 323 1396 314 1380 q 346 1413 332 1409 q 374 1416 359 1417 q 428 1411 397 1416 q 471 1383 459 1405 z "},"š":{"ha":696,"x_min":0,"x_max":663,"o":"m 606 758 l 606 758 q 629 728 619 745 q 643 613 663 671 q 574 516 623 556 q 549 505 563 507 q 528 510 538 504 q 510 524 518 515 q 489 541 500 532 q 451 575 470 558 q 376 617 419 608 q 335 606 353 619 q 317 570 316 592 q 328 546 319 556 q 348 528 337 536 q 410 489 378 507 q 523 397 478 455 q 555 237 566 325 q 516 75 544 150 q 495 36 509 55 q 461 10 482 18 q 416 4 439 4 q 359 2 388 3 q 248 -2 303 0 q 230 -3 239 -2 q 109 9 168 -9 q 1 171 3 55 q 17 237 0 207 q 71 277 35 267 q 130 278 101 285 q 188 260 159 271 q 221 248 204 254 q 288 238 248 239 q 347 262 328 237 q 342 300 359 283 q 298 329 325 317 q 254 346 271 340 q 252 347 253 346 q 243 349 248 348 q 162 382 200 363 q 96 440 125 401 q 56 590 52 508 q 243 846 65 783 q 538 806 397 880 q 606 758 576 787 m 541 1166 l 541 1166 q 540 1146 545 1155 q 530 1130 536 1138 q 525 1123 527 1126 q 493 1079 509 1101 q 414 959 448 1021 q 410 951 412 956 q 391 917 403 936 q 365 886 380 898 q 334 880 351 874 q 320 893 326 884 q 311 911 315 901 q 307 922 309 917 q 274 979 291 950 q 195 1109 235 1044 q 192 1114 193 1112 q 178 1141 183 1126 q 185 1168 173 1155 q 211 1180 196 1177 q 240 1186 225 1184 q 254 1188 248 1187 q 289 1187 273 1192 q 315 1163 306 1182 q 323 1133 320 1149 q 340 1088 327 1108 q 355 1086 348 1079 q 367 1107 361 1094 q 374 1130 372 1121 q 376 1134 376 1133 q 379 1144 378 1139 q 393 1179 384 1162 q 415 1195 401 1192 q 444 1198 429 1199 q 498 1193 467 1199 q 541 1166 529 1187 z "}}}
